<?xml version="1.0" standalone="no"?>
<!DOCTYPE svg PUBLIC "-//W3C//DTD SVG 1.1//EN" "http://www.w3.org/Graphics/SVG/1.1/DTD/svg11.dtd" >
<svg>
<metadata>
Created by FontForge 20090914 at Wed Sep  2 17:56:03 2020
 By www-data
Copyright &#194;&#169; 2017 by Kastelov. All rights reserved.
</metadata>
<defs>
<font id="Axiforma-Regular" horiz-adv-x="611" >
  <font-face 
    font-family="Axiforma"
    font-weight="400"
    font-stretch="normal"
    units-per-em="1000"
    panose-1="0 0 5 0 0 0 0 0 0 0"
    ascent="771"
    descent="-229"
    x-height="535"
    cap-height="739"
    bbox="-414.998 -317 1271 1007"
    underline-thickness="50"
    underline-position="-150"
    unicode-range="U+000D-U+25CA"
  />
<missing-glyph horiz-adv-x="130" 
 />
    <glyph glyph-name="f_b" unicode="fb" horiz-adv-x="1062" 
d="M119 536l0.000976562 34c0 62.667 16.5 111.667 49.5 147s77.167 53 132.5 53c43.333 0 83.666 -10 120.999 -30l-30 -78c-30 12.667 -56.333 19 -79 19c-65.333 0 -98 -37.333 -98 -112v-33h171v-82h-171v-454h-96v454h-93v82h93zM754.001 549
c76 0 139.334 -27.333 190.001 -82c51.333 -54.667 77 -121 77 -199s-25.667 -144.667 -77 -200c-50.667 -54 -114.334 -81 -191.001 -81c-77.333 0 -140 30.333 -188 91v-78h-96v757h96v-302c48.667 62.667 111.667 94 189 94zM742.002 77
c54.667 0 98.334 18.333 131.001 55c34 36.667 51 82.334 51 137.001c0 52.667 -17 97.667 -51 135c-32.667 36.667 -76.334 55 -131.001 55c-55.333 0 -99.333 -18.333 -132 -55s-49 -81.667 -49 -135c0 -54.667 16.333 -100.334 49 -137.001s76.667 -55 132 -55z" />
    <glyph glyph-name="f_f" unicode="ff" horiz-adv-x="769" 
d="M702 681c-36.667 0 -64.668 -9.5 -84.001 -28.5s-29 -46.833 -29 -83.5v-33h170v-82h-170v-454h-96v454h-278v-454h-96v454h-93v82h93v35c0 62.667 19.333 111.5 58 146.5s91.334 52.5 158.001 52.5c52 0 102.667 -12.667 152 -38l-34 -78c-44.667 18 -81 27 -109 27
c-40.667 0 -72.334 -9.66699 -95.001 -29s-34 -47 -34 -83v-33h278v35c0 62.667 17.833 111.5 53.5 146.5s83.834 52.5 144.501 52.5c44 0 84.667 -9.66699 122 -29l-30 -79c-30 12.667 -57 19 -81 19z" />
    <glyph glyph-name="f_f_i" unicode="ffi" horiz-adv-x="1019" 
d="M687 681c-65.333 0 -98.001 -37.333 -98.001 -112v-33h195v-82h-195v-454h-96v454h-278v-454h-96v454h-93v82h93v35c0 62.667 19.333 111.5 58 146.5s91.334 52.5 158.001 52.5c52 0 102.667 -12.667 152 -38l-33 -78c-45.333 18 -82.333 27 -111 27
c-40 0 -71.333 -9.66699 -94 -29s-34 -47 -34 -83v-33h278v34c0 62.667 16.5 111.667 49.5 147s77.5 53 133.5 53c44 0 84.333 -10 121 -30l-31 -78c-30 12.667 -56.333 19 -79 19zM897.999 750c18.667 0 34.667 -6.66699 48 -20s20 -29.333 20 -48
c0 -20 -6.5 -36.5 -19.5 -49.5s-29.167 -19.5 -48.5 -19.5s-35.666 6.5 -48.999 19.5s-20 29.5 -20 49.5c0 19.333 6.66699 35.5 20 48.5s29.666 19.5 48.999 19.5zM944.999 0h-96v536h96v-536z" />
    <glyph glyph-name="f_f_j" unicode="ffj" horiz-adv-x="1019" 
d="M770 536l-0.00195312 -82h-181v-454h-96v454h-278v-454h-96v454h-93v82h93v35c0 62.667 19.333 111.5 58 146.5s91.334 52.5 158.001 52.5c50.667 0 101.334 -12.667 152.001 -38l-33 -78c-45.333 18 -82.333 27 -111 27c-40 0 -71.333 -9.66699 -94 -29s-34 -47 -34 -83
v-33h278v34c0 62.667 16.5 111.667 49.5 147s77.5 53 133.5 53c44 0 84.333 -10 121 -30l-31 -78c-30 12.667 -56.333 19 -79 19c-65.333 0 -98 -37.333 -98 -112v-33h181zM897.998 750c18.667 0 34.667 -6.66699 48 -20s20 -29.333 20 -48c0 -20 -6.5 -36.5 -19.5 -49.5
s-29.167 -19.5 -48.5 -19.5s-35.666 6.5 -48.999 19.5s-20 29.5 -20 49.5c0 19.333 6.66699 35.5 20 48.5s29.666 19.5 48.999 19.5zM848.998 -31v566.999h96v-561c0 -65.333 -15.667 -115.666 -47 -150.999s-74.666 -53 -129.999 -53c-40.667 0 -72.334 7.33301 -95.001 22
l19 80c26 -9.33301 47.333 -14 64 -14c62 0 93 36.667 93 110z" />
    <glyph glyph-name="f_h" unicode="fh" horiz-adv-x="1011" 
d="M119 536l0.000976562 34c0 62.667 16.5 111.667 49.5 147s77.167 53 132.5 53c43.333 0 83.666 -10 120.999 -30l-30 -78c-30 12.667 -56.333 19 -79 19c-65.333 0 -98 -37.333 -98 -112v-33h171v-82h-171v-454h-96v454h-93v82h93zM732.001 550
c59.333 0 109.332 -19.332 149.999 -57.999s61 -94.334 61 -167.001v-325h-95v298c0 51.333 -12.333 91.333 -37 120s-57.667 43 -99 43c-43.333 0 -78.666 -15.167 -105.999 -45.5s-41 -69.5 -41 -117.5v-298h-96v757h93v-287c16.667 24.667 40.167 44.167 70.5 58.5
s63.5 21.5 99.5 21.5z" />
    <glyph glyph-name="f_i" unicode="fi" horiz-adv-x="645" 
d="M119 536v34c0 62.667 16.5 111.667 49.5 147s77.5 53 133.5 53c44 0 84.333 -10 121 -30l-31 -78c-30 12.667 -56.333 19 -79 19c-65.333 0 -98 -37.333 -98 -112v-33h171v-82h-171v-454h-96v454h-93v82h93zM524 749c18.667 0 34.667 -6.5 48 -19.5s20 -29.167 20 -48.5
c0 -20 -6.5 -36.5 -19.5 -49.5s-29.167 -19.5 -48.5 -19.5s-35.666 6.5 -48.999 19.5s-20 29.5 -20 49.5c0 19.333 6.66699 35.5 20 48.5s29.666 19.5 48.999 19.5zM571 0h-96v536h96v-536z" />
    <glyph glyph-name="f_j" unicode="fj" horiz-adv-x="645" 
d="M395 536v-82h-180v-454h-96v454h-93v82h93v34c0 62.667 16.5 111.667 49.5 147s77.5 53 133.5 53c44 0 84.333 -10 121 -30l-31 -78c-30 12.667 -56.333 19 -79 19c-65.333 0 -98 -37.333 -98 -112v-33h180zM524 749c18.667 0 34.667 -6.5 48 -19.5s20 -29.167 20 -48.5
c0 -20 -6.5 -36.5 -19.5 -49.5s-29.167 -19.5 -48.5 -19.5s-35.666 6.5 -48.999 19.5s-20 29.5 -20 49.5c0 19.333 6.66699 35.5 20 48.5s29.666 19.5 48.999 19.5zM475 -31v566.999h96v-561c0 -65.333 -15.667 -115.666 -47 -150.999s-74.666 -53 -129.999 -53
c-40.667 0 -72.334 7.33301 -95.001 22l19 80c26 -9.33301 47.333 -14 64 -14c62 0 93 36.667 93 110z" />
    <glyph glyph-name="f_k" unicode="fk" horiz-adv-x="939" 
d="M119 536l0.000976562 34c0 62.667 16.5 111.667 49.5 147s77.167 53 132.5 53c43.333 0 83.666 -10 120.999 -30l-30 -78c-30 12.667 -56.333 19 -79 19c-65.333 0 -98 -37.333 -98 -112v-33h171v-82h-171v-454h-96v454h-93v82h93zM944.001 0h-126l-202 250l-51 -46v-204
h-96v757h96v-438l240 217h130l-251 -225z" />
    <glyph glyph-name="f_l" unicode="fl" horiz-adv-x="639" 
d="M119 536v34c0 63.333 15.833 112.5 47.5 147.5s75.5 52.5 131.5 52.5c44 0 84.333 -10 121 -30l-27 -78c-30 12.667 -56.333 19 -79 19c-65.333 0 -98 -37.333 -98 -112v-33h171v-82h-171v-454h-96v454h-93v82h93zM469 0v757h96v-757h-96z" />
    <glyph glyph-name=".notdef" horiz-adv-x="130" 
 />
    <glyph glyph-name="CR.001" horiz-adv-x="130" 
 />
    <glyph glyph-name="CR.001" horiz-adv-x="130" 
 />
    <glyph glyph-name="CR" unicode="&#xd;" horiz-adv-x="333" 
 />
    <glyph glyph-name="space" unicode=" " horiz-adv-x="247" 
 />
    <glyph glyph-name="exclam" unicode="!" horiz-adv-x="295" 
d="M195 180h-96l-4 561h106zM149 -12c-18.667 0 -34.166 6.16699 -46.499 18.5s-18.5 27.833 -18.5 46.5c0 17.333 6.16699 32 18.5 44s27.833 18 46.5 18c17.333 0 32.166 -6 44.499 -18s18.5 -26.667 18.5 -44c0 -18.667 -6 -34.167 -18 -46.5s-27 -18.5 -45 -18.5z" />
    <glyph glyph-name="quotedbl" unicode="&#x22;" horiz-adv-x="468" 
d="M135 446h-89l82 293h116zM338 446h-89l82 293h116z" />
    <glyph glyph-name="numbersign" unicode="#" horiz-adv-x="704" 
d="M670 540l-16 -79h-107l-32 -171h107l-15 -79h-107l-40 -211h-89l40 211h-173l-40 -211h-90l41 211h-114l14 79h115l33 171h-116l16 79h115l39 199h88l-38 -199h173l38 199h88l-38 -199h108zM253 290h173l33 171h-173z" />
    <glyph glyph-name="dollar" unicode="$" horiz-adv-x="565" 
d="M523 200c0 -56 -17.9971 -102.335 -53.9971 -139.002s-82.667 -59.667 -140 -69v-104h-74v101c-48.667 4 -92.834 19.167 -132.501 45.5s-70.167 61.833 -91.5 106.5l75 61c38 -78.667 96 -118 174 -118c40.667 0 73.167 10.667 97.5 32s36.5 47.333 36.5 78
c0 40.667 -25.333 75.334 -76 104.001c-5.33301 3.33301 -29.333 14.666 -72 33.999c-38.667 18.667 -67.334 34 -86.001 46c-73.333 46 -110 104.333 -110 175c0 52.667 17.667 97.334 53 134.001s82 58 140 64v92h74v-94c70.667 -12.667 127.334 -48 170.001 -106l-68 -64
c-40 52.667 -89 79 -147 79c-33.333 0 -60.833 -9.16699 -82.5 -27.5s-32.5 -42.166 -32.5 -71.499c0 -38 21.333 -70.333 64 -97c17.333 -10 45.666 -24.667 84.999 -44c43.333 -20.667 74.666 -36.667 93.999 -48c68.667 -42 103 -98.667 103 -170z" />
    <glyph glyph-name="percent" unicode="%" horiz-adv-x="880" 
d="M354 441c-37.333 -35.333 -81.334 -53 -132.001 -53c-51.333 0 -95.666 17.667 -132.999 53c-36.667 36 -55 79 -55 129c0 50.667 18.333 93.334 55 128.001c36.667 36 81 54 133 54c50.667 0 94.667 -18 132 -54c36.667 -34.667 55 -77.334 55 -128.001
c0 -50 -18.333 -93 -55 -129zM214.999 0h-100l544 739h101zM221.999 678c-31.333 0 -57.333 -10.333 -78 -31s-31 -46.334 -31 -77.001s10.5 -56.5 31.5 -77.5s46.833 -31.5 77.5 -31.5s56.5 10.5 77.5 31.5s31.5 46.833 31.5 77.5s-10.5 56.334 -31.5 77.001
s-46.833 31 -77.5 31zM469.999 168c0 50 18.3311 92.999 54.998 128.999s81 54 133 54s96.333 -18 133 -54c37.333 -36 56 -79 56 -129c0 -49.333 -18.667 -91.666 -56 -126.999s-81.666 -53 -132.999 -53s-95.666 17.667 -132.999 53c-36.667 34.667 -55 77 -55 127z
M657.997 60.999c31.333 0 57.5 10.167 78.5 30.5s31.5 45.833 31.5 76.5c0 31.333 -10.5 57.666 -31.5 78.999s-47.167 32 -78.5 32c-30.667 0 -56.5 -10.667 -77.5 -32s-31.5 -47.666 -31.5 -78.999c0 -30 10.667 -55.333 32 -76s47 -31 77 -31z" />
    <glyph glyph-name="ampersand" unicode="&#x26;" horiz-adv-x="698" 
d="M575 160l119.998 -104.998l-53 -62l-121 107c-74.667 -73.333 -154 -110 -238 -110c-67.333 0 -124.666 21 -171.999 63c-46.667 42.667 -70 94 -70 154c0 91.333 45.333 163.333 136 216c-29.333 42.667 -44 88.667 -44 138c0 51.333 19 95.666 57 132.999
c38.667 37.333 84.334 56 137.001 56c46.667 0 86.667 -14.667 120 -44c34 -29.333 51 -66 51 -110c0 -48.667 -19.333 -88 -58 -118c-29.333 -22.667 -70 -46.334 -122 -71.001l-16 -7l57 -51l154 -135c22 27.333 46 62 72 104l64 -50
c-20 -35.333 -44.667 -71.333 -74 -108zM324.998 679.002c-30 0 -55.5 -11.168 -76.5 -33.501s-31.5 -50.166 -31.5 -83.499c0 -38.667 10.333 -72.667 31 -102c62.667 29.333 102.667 50.333 120 63c28.667 20.667 43 45 43 73c0 23.333 -8.16699 43 -24.5 59
s-36.833 24 -61.5 24zM292.998 72.001c56 0 111.667 27.332 167 81.999l-174 154c-24 21.333 -43 39 -57 53c-62 -40 -93 -89.667 -93 -149c0 -39.333 14.667 -72.666 44 -99.999c29.333 -26.667 67 -40 113 -40z" />
    <glyph glyph-name="quotesingle" unicode="'" horiz-adv-x="262" 
d="M133 446h-89l82 293h116z" />
    <glyph glyph-name="parenleft" unicode="(" horiz-adv-x="391" 
d="M383 -148l-41.001 -72.001c-95.333 50.667 -169.666 121.334 -222.999 212.001c-52 89.333 -78 190 -78 302c0 112.667 26.167 213.667 78.5 303s126.833 160 223.5 212l40 -72c-158.667 -106 -238 -253.667 -238 -443c0 -188.667 79.333 -336 238 -442z" />
    <glyph glyph-name="parenright" unicode=")" horiz-adv-x="391" 
d="M48 -220l-40 71.999c158.667 106 238 253.333 238 442c0 189.333 -79.333 337 -238 443l40 72c96.667 -52 171.167 -122.667 223.5 -212s78.5 -190.333 78.5 -303s-26.167 -213.667 -78.5 -303s-126.833 -159.666 -223.5 -210.999z" />
    <glyph glyph-name="asterisk" unicode="*" horiz-adv-x="456" 
d="M229 506l-94 -118l-58 47l95 110l-134 60l33 67l123 -62l-3 146h74l-2 -146l124 62l30 -67l-132 -60l94 -110l-58 -47z" />
    <glyph glyph-name="plus" unicode="+" horiz-adv-x="536" 
d="M314 394h188v-90h-188v-189l-90 -1v190h-190v90h190v189h90v-189z" />
    <glyph glyph-name="comma" unicode="," horiz-adv-x="242" 
d="M119 108c20 0 36.499 -6.99902 49.499 -20.999s19.5 -31.667 19.5 -53c0 -57.333 -41.333 -112.333 -124 -165l-31 43c40.667 30.667 65.334 52.667 74.001 66c2 2 4.33301 5.66699 7 11h-4c-15.333 0 -28.5 5.66699 -39.5 17s-16.5 24.666 -16.5 39.999
c0 16.667 6.5 31.167 19.5 43.5s28.167 18.5 45.5 18.5z" />
    <glyph glyph-name="hyphen" unicode="-" horiz-adv-x="518" 
d="M452 232h-386v90h386v-90z" />
    <glyph glyph-name="period" unicode="." horiz-adv-x="232" 
d="M52 49c0 17.333 6.16699 32 18.5 44s27.5 18 45.5 18s33.167 -6 45.5 -18s18.5 -26.667 18.5 -44c0 -18.667 -6.16699 -34.167 -18.5 -46.5s-27.5 -18.5 -45.5 -18.5s-33.167 6.16699 -45.5 18.5s-18.5 27.833 -18.5 46.5z" />
    <glyph glyph-name="slash" unicode="/" horiz-adv-x="607" 
d="M114 -123h-94l472 948h94z" />
    <glyph glyph-name="zero" unicode="0" horiz-adv-x="679" 
d="M340 -12c-50.667 0 -95.334 11.167 -134.001 33.5s-69.334 52.833 -92.001 91.5c-42 74 -63 159.667 -63 257s21 183 63 257c22.667 38.667 53.334 69.167 92.001 91.5s83.334 33.5 134.001 33.5c51.333 0 96.333 -11.333 135 -34s68.667 -52.834 90 -90.501
s37.166 -78.167 47.499 -121.5s15.5 -88.666 15.5 -135.999s-5.16699 -92.666 -15.5 -135.999s-26.166 -83.833 -47.499 -121.5s-51.333 -67.834 -90 -90.501s-83.667 -34 -135 -34zM527 370c0 84.667 -15.333 153.667 -46 207c-30.667 54.667 -77.667 82 -141 82
s-110.333 -27.333 -141 -82c-30.667 -53.333 -46 -122.333 -46 -207c0 -85.333 15.333 -154.666 46 -207.999c31.333 -54 78.333 -81 141 -81s109.667 27 141 81c30.667 53.333 46 122.666 46 207.999z" />
    <glyph glyph-name="one" unicode="1" horiz-adv-x="386" 
d="M4 563l209 176h79v-739h-99v606l-134 -112z" />
    <glyph glyph-name="two" unicode="2" horiz-adv-x="559" 
d="M397 319l-206 -227h318v-92h-461v83l237 254c42.667 44.667 73 81.167 91 109.5s27 57.833 27 88.5c0 36 -12.833 65.833 -38.5 89.5s-57.5 35.5 -95.5 35.5c-61.333 0 -121 -28 -179 -84l-55 71c71.333 70 150 105 236 105c67.333 0 122.333 -20.333 165 -61
s64 -94.334 64 -161.001c0 -65.333 -34.333 -135.666 -103 -210.999z" />
    <glyph glyph-name="three" unicode="3" horiz-adv-x="554" 
d="M248 -12c-80 0 -155.665 24.333 -226.998 73l45 81c65.333 -41.333 125.666 -62 180.999 -62c46 0 82.5 11.5 109.5 34.5s40.5 53.5 40.5 91.5s-14.167 69 -42.5 93s-64.833 36 -109.5 36h-91v89h90c40.667 0 74 11.167 100 33.5s39 51.166 39 86.499
s-12.333 63.5 -37 84.5s-56.334 31.5 -95.001 31.5c-51.333 0 -105.333 -21.667 -162 -65l-51 70c26.667 26.667 59.834 47.834 99.501 63.501s80.167 23.5 121.5 23.5c66 0 120.333 -18.667 163 -56c42 -36.667 63 -83 63 -139c0 -39.333 -11.667 -74.333 -35 -105
s-54.333 -52 -93 -64v-4c44 -10 79 -31.5 105 -64.5s39 -71.833 39 -116.5c0 -63.333 -23.667 -115 -71 -155c-46.667 -40 -107.334 -60 -182.001 -60z" />
    <glyph glyph-name="four" unicode="4" horiz-adv-x="594" 
d="M470 273h83v-87h-83v-186h-96v186h-344l-21 60l404 493h57v-466zM374 558l-233 -285h233v285z" />
    <glyph glyph-name="five" unicode="5" horiz-adv-x="572" 
d="M285 482c71.333 0 130.333 -23.333 177 -70c47.333 -46 71 -104.333 71 -175c0 -72 -24.667 -131.667 -74 -179c-48.667 -46.667 -111.334 -70 -188.001 -70c-86.667 0 -165.667 29.667 -237 89l47 78c60 -50 122 -75 186 -75c48 0 87.667 14.667 119 44
c30.667 30 46 67.333 46 112c0 44 -15 80.667 -45 110c-30 30 -68 45 -114 45c-53.333 0 -98.666 -19.667 -135.999 -59l-66 38l42 369h370v-89h-293l-25 -197c37.333 19.333 77.333 29 120 29z" />
    <glyph glyph-name="six" unicode="6" horiz-adv-x="615" 
d="M320 -9c-86.667 0 -153 33.333 -199 100c-46 67.333 -69 152.666 -69 255.999c0 71.333 10.667 136.833 32 196.5s55.666 109.334 102.999 149.001s104.333 59.5 171 59.5c74.667 0 137.667 -20.667 189 -62l-42 -75c-43.333 33.333 -90.333 50 -141 50
c-47.333 0 -88 -16.5 -122 -49.5s-58.167 -71.333 -72.5 -115s-21.166 -87.5 -20.499 -131.5v-4c16 34 41 61.167 75 81.5s72.667 30.5 116 30.5c66.667 0 122 -22.667 166 -68c44 -44.667 66 -101.667 66 -171c0 -70.667 -23.667 -129.667 -71 -177
c-46.667 -46.667 -107 -70 -181 -70zM321 80c43.333 0 79.667 14.999 109 44.999c30 31.333 45 69 45 113c0 43.333 -14.667 79.666 -44 108.999c-28.667 28.667 -64.667 43 -108 43c-44 0 -80.667 -14.667 -110 -44s-44 -65.666 -44 -108.999s14.667 -80.666 44 -111.999
c28.667 -30 64.667 -45 108 -45z" />
    <glyph glyph-name="seven" unicode="7" horiz-adv-x="503" 
d="M21 650v89h465v-59l-288 -680h-107l282 650h-352z" />
    <glyph glyph-name="eight" unicode="8" horiz-adv-x="625" 
d="M313 -12c-78 0 -141.667 20 -191 60s-74 90.333 -74 151c0 41.333 13.167 79.5 39.5 114.5s61.5 60.833 105.5 77.5v2c-36 16.667 -64 39.667 -84 69s-30 61.333 -30 96c0 55.333 21.667 101.666 65 138.999c42.667 36.667 99 55 169 55
c69.333 0 125.333 -18.333 168 -55c43.333 -37.333 65 -83.666 65 -138.999c0 -35.333 -10.167 -67.5 -30.5 -96.5s-48.5 -51.833 -84.5 -68.5v-3c44 -16 79.333 -41.333 106 -76s40 -73 40 -115c0 -60.667 -24.667 -111 -74 -151c-48.667 -40 -112 -60 -190 -60zM450 549
c0 34.667 -12.832 63.167 -38.499 85.5s-58.5 33.5 -98.5 33.5c-42 0 -75.833 -11.167 -101.5 -33.5s-38.5 -50.833 -38.5 -85.5c0 -34 12.833 -62.167 38.5 -84.5s59.167 -33.5 100.5 -33.5s74.666 11.167 99.999 33.5s38 50.5 38 84.5zM313.001 75
c48.667 0 88.332 12.833 118.999 38.5s46 58.5 46 98.5c0 38.667 -15.167 70.5 -45.5 95.5s-70.166 37.5 -119.499 37.5c-50 0 -90.333 -12.5 -121 -37.5s-46 -56.833 -46 -95.5c0 -40 15.5 -72.833 46.5 -98.5s71.167 -38.5 120.5 -38.5z" />
    <glyph glyph-name="nine" unicode="9" horiz-adv-x="612" 
d="M295 752c86 0 151.331 -32.999 195.998 -98.999c45.333 -65.333 68 -152.333 68 -261c0 -54.667 -5.66699 -105.667 -17 -153s-28.666 -90 -51.999 -128s-54.5 -68 -93.5 -90s-84.167 -33 -135.5 -33c-78.667 0 -142.667 20.667 -192 62l38 77
c46.667 -34.667 97 -52 151 -52c69.333 0 121.333 28.833 156 86.5s52 128.5 52 212.5c-16.667 -32.667 -42.167 -59 -76.5 -79s-72.833 -30 -115.5 -30c-66.667 0 -122 22.667 -166 68c-44 44.667 -66 101.667 -66 171c0 71.333 23.667 130.666 71 177.999
c46.667 46.667 107.334 70 182.001 70zM444.998 505.001c0 44 -14.665 81.667 -43.998 113c-28.667 30.667 -64.667 46 -108 46c-44.667 0 -81.334 -15.333 -110.001 -46c-29.333 -30.667 -44 -68.667 -44 -114c0 -44.667 14.333 -81.334 43 -110.001s65 -43 109 -43
c43.333 0 79.666 14.667 108.999 44c30 28.667 45 65.334 45 110.001z" />
    <glyph glyph-name="colon" unicode=":" horiz-adv-x="261" 
d="M66 418c0 17.333 6.16699 32 18.5 44s27.5 18 45.5 18s33.167 -6 45.5 -18s18.5 -26.667 18.5 -44c0 -18.667 -6.16699 -34.167 -18.5 -46.5s-27.5 -18.5 -45.5 -18.5s-33.167 6.16699 -45.5 18.5s-18.5 27.833 -18.5 46.5zM66 49c0 17.333 6.16699 32 18.5 44
s27.5 18 45.5 18s33.167 -6 45.5 -18s18.5 -26.667 18.5 -44c0 -18.667 -6.16699 -34.167 -18.5 -46.5s-27.5 -18.5 -45.5 -18.5s-33.167 6.16699 -45.5 18.5s-18.5 27.833 -18.5 46.5z" />
    <glyph glyph-name="semicolon" unicode=";" horiz-adv-x="287" 
d="M83 417c0 17.333 6.16699 32 18.5 44s27.5 18 45.5 18s33.333 -6 46 -18s19 -26.667 19 -44c0 -18.667 -6.33301 -34.167 -19 -46.5s-28 -18.5 -46 -18.5s-33.167 6.16699 -45.5 18.5s-18.5 27.833 -18.5 46.5zM144 108c20 0 36.499 -6.99902 49.499 -20.999
s19.5 -31.667 19.5 -53c0 -57.333 -41.333 -112.333 -124 -165l-31 43c40.667 30.667 65.334 52.667 74.001 66c2 2 4.33301 5.66699 7 11h-4c-15.333 0 -28.5 5.66699 -39.5 17s-16.5 24.666 -16.5 39.999c0 16.667 6.5 31.167 19.5 43.5s28.167 18.5 45.5 18.5z" />
    <glyph glyph-name="less" unicode="&#x3c;" horiz-adv-x="572" 
d="M499 160v-101l-465 229v87l465 229v-100l-363 -173z" />
    <glyph glyph-name="equal" unicode="=" horiz-adv-x="602" 
d="M532 372h-462v86h462v-86zM532 197h-462v86h462v-86z" />
    <glyph glyph-name="greater" unicode="&#x3e;" horiz-adv-x="546" 
d="M516 288l-454 -242v101l333 172l-333 171v101l454 -243v-60z" />
    <glyph glyph-name="question" unicode="?" horiz-adv-x="511" 
d="M262 167l-90.001 0.00292969v73c0 26 6.83301 50.333 20.5 73s30.334 42.667 50.001 60l59 51.5c19.667 17 36.334 36.167 50.001 57.5s20.5 44 20.5 68c0 35.333 -12.667 64.166 -38 86.499s-57.333 33.5 -96 33.5c-53.333 0 -104 -26.333 -152 -79l-59 67
c27.333 31.333 60.166 56.166 98.499 74.499s77.833 27.5 118.5 27.5c62 0 114.667 -19.333 158 -58c44 -38.667 66 -88.334 66 -149.001c0 -58 -24.333 -109 -73 -153c-7.33301 -6.66699 -19.166 -16.834 -35.499 -30.501s-28.833 -24.5 -37.5 -32.5
s-18.334 -17.833 -29.001 -29.5s-18.5 -23.167 -23.5 -34.5s-7.5 -22.666 -7.5 -33.999v-72zM152.999 53.0029c0 17.333 6.33398 32 19.001 44s28 18 46 18c17.333 0 32.166 -6 44.499 -18s18.5 -26.667 18.5 -44c0 -18.667 -6 -34.167 -18 -46.5s-27 -18.5 -45 -18.5
s-33.333 6.16699 -46 18.5s-19 27.833 -19 46.5z" />
    <glyph glyph-name="at" unicode="@" horiz-adv-x="974" 
d="M617 439l-0.000976562 49.9961h77v-275c0 -22 5.33301 -39.833 16 -53.5s24 -20.5 40 -20.5c30 0 55.667 17.667 77 53c22 34.667 33 79.334 33 134.001c0 92.667 -35.333 172 -106 238c-70 66 -155.333 99 -256 99c-102.667 -1.33301 -189.667 -38.333 -261 -111
c-71.333 -73.333 -107 -162.666 -107 -267.999c0 -104 37.333 -193 112 -267s167 -111 277 -111c104.667 0 197.334 32.667 278.001 98l41 -63c-38.667 -32.667 -86.334 -59 -143.001 -79c-59.333 -22 -120.333 -33 -183 -33c-83.333 -1.33301 -161.333 18.834 -234 60.501
s-130 97.834 -172 168.501s-62 145.667 -60 225c0 125.333 44 232.666 132 321.999s194 134 318 134c60 0 117.5 -11.167 172.5 -33.5s102.167 -52.166 141.5 -89.499s70.666 -81.333 93.999 -132s35 -103.334 35 -158.001c0 -74 -19.667 -135.667 -59 -185
s-87 -74 -143 -74c-29.333 0 -54 7.5 -74 22.5s-33 33.833 -39 56.5c-17.333 -24.667 -40.166 -44 -68.499 -58s-58.5 -21 -90.5 -21c-56.667 0 -105 20.667 -145 62c-39.333 42.667 -59 94.334 -59 155.001c0 61.333 20 113 60 155c40.667 42.667 90.334 64 149.001 64
c62.667 0 111.667 -21.667 147 -65zM615.999 283.996c0 42 -13 77.002 -39 105.002c-24.667 28.667 -57 43 -97 43c-38.667 0 -71.667 -14 -99 -42c-26 -26.667 -39 -61.334 -39 -104.001c0 -41.333 12.667 -76.333 38 -105c26 -27.333 58.667 -41 98 -41s72 13.667 98 41
c26.667 27.333 40 61.666 40 102.999z" />
    <glyph glyph-name="A" unicode="A" horiz-adv-x="674" 
d="M661 0h-109l-75 192h-281l-75 -192h-109l299 739h54zM443 286l-106 279l-107 -279h213z" />
    <glyph glyph-name="B" unicode="B" horiz-adv-x="672" 
d="M488 404c44 -12 78.167 -35.501 102.5 -70.501s36.5 -75.5 36.5 -121.5c0 -58 -20.333 -107.667 -61 -149c-40 -42 -96 -63 -168 -63h-305v739h292c64 0 113.667 -18.667 149 -56c36 -36.667 54 -79.667 54 -129c0 -34 -9 -64.667 -27 -92s-42.333 -46.666 -73 -57.999z
M372 645.999h-179.999v-206h177c35.333 0 63.666 10.5 84.999 31.5s32 46.5 32 76.5c0 27.333 -10.5 50.5 -31.5 69.5s-48.5 28.5 -82.5 28.5zM192.001 93.999h190c44 0 78.333 12.333 103 37c26 24.667 39 54 39 88c0 36.667 -13.167 67.5 -39.5 92.5
s-61.833 37.5 -106.5 37.5h-186v-255z" />
    <glyph glyph-name="C" unicode="C" horiz-adv-x="776" 
d="M426 -11c-106.667 0 -196.667 35.332 -270 105.999c-73.333 71.333 -110 162 -110 272c0 112 37.333 204 112 276c74.667 72.667 165 109 271 109c67.333 0 129.333 -15 186 -45c56.667 -28.667 101 -67.667 133 -117l-74 -62c-62.667 84.667 -143.667 127 -243 127
c-78.667 0 -145.334 -27.333 -200.001 -82s-82 -123.667 -82 -207c0 -81.333 26.667 -148.666 80 -201.999c53.333 -52.667 120.333 -79 201 -79c49.333 0 95.333 11 138 33s79.334 52.667 110.001 92l72 -61c-35.333 -49.333 -81.5 -88.333 -138.5 -117
s-118.833 -43 -185.5 -43z" />
    <glyph glyph-name="D" unicode="D" horiz-adv-x="758" 
d="M358 0l-265.001 -0.000976562v739h275c104.667 0 187.334 -33.333 248.001 -100c61.333 -67.333 92 -157.666 92 -270.999c0 -114 -31.333 -203.667 -94 -269c-62 -66 -147.333 -99 -256 -99zM192.999 643.999v-548.999h169c75.333 0 134.666 25.667 177.999 77
c42.667 51.333 64 117.666 64 198.999c0 80 -21.333 145.333 -64 196c-43.333 51.333 -102.666 77 -177.999 77h-169z" />
    <glyph glyph-name="E" unicode="E" horiz-adv-x="609" 
d="M553 0h-460v739h460v-95h-360v-221h333v-95h-333v-233h360v-95z" />
    <glyph glyph-name="F" unicode="F" horiz-adv-x="573" 
d="M193 0h-100v739h452v-97h-352v-219h307v-97h-307v-326z" />
    <glyph glyph-name="G" unicode="G" horiz-adv-x="812" 
d="M424 -11c-108.667 0 -199.002 35.999 -271.002 107.999c-71.333 72.667 -107 163.334 -107 272.001c0 110.667 37.333 202 112 274c74.667 72.667 165.334 109 272.001 109c61.333 0 119.5 -12.333 174.5 -37s99.5 -57.667 133.5 -99l-71 -65
c-62 69.333 -140.667 104 -236 104c-79.333 0 -146.666 -27 -201.999 -81c-54 -54 -81 -122.667 -81 -206c0 -81.333 27 -149 81 -203c54.667 -53.333 121 -80 199 -80c43.333 0 86 9.33301 128 28s78.333 44 109 76v147h-247v92h341v-283c-90 -104 -201.667 -156 -335 -156
z" />
    <glyph glyph-name="H" unicode="H" horiz-adv-x="758" 
d="M194 0h-101v739h101v-312h371v312h100v-739h-100v331h-371v-331z" />
    <glyph glyph-name="I" unicode="I" horiz-adv-x="286" 
d="M93 0v739h100v-739h-100z" />
    <glyph glyph-name="J" unicode="J" horiz-adv-x="558" 
d="M225 -12c-86 0 -156.668 31.668 -212.001 95.001l61 73c40 -48.667 90.333 -73 151 -73c44.667 0 80.334 14.167 107.001 42.5s40 68.166 40 119.499v494h100v-499c0 -80 -23 -142 -69 -186c-44.667 -44 -104 -66 -178 -66z" />
    <glyph glyph-name="K" unicode="K" horiz-adv-x="666" 
d="M678 0h-124l-260 324l-101 -119v-205h-100v739h100v-402l339 402h119l-292 -348z" />
    <glyph glyph-name="L" unicode="L" horiz-adv-x="603" 
d="M590 0h-497v739h100v-642h397v-97z" />
    <glyph glyph-name="M" unicode="M" horiz-adv-x="919" 
d="M192 0h-99v739h48l319 -469l317 469h49v-739h-100v499l-254 -373h-26l-254 373v-499z" />
    <glyph glyph-name="N" unicode="N" horiz-adv-x="780" 
d="M588 212v527h99v-739h-52l-443 524v-524h-99v739h45z" />
    <glyph glyph-name="O" unicode="O" horiz-adv-x="855" 
d="M45 365c0 108 37.333 199.333 112 274c75.333 75.333 165.333 113 270 113s194.667 -37.667 270 -113s113 -165.333 113 -270s-37.667 -194.667 -113 -270c-75.333 -74 -166.333 -111 -273 -111c-107.333 0 -197.333 36.333 -270 109s-109 162 -109 268zM706 368
c0 81.333 -27 149.332 -81 203.999s-120 82 -198 82c-77.333 0 -143 -27.667 -197 -83s-81 -123 -81 -203c0 -79.333 26.667 -146.666 80 -201.999c52.667 -54 118.667 -81 198 -81s145.333 27 198 81c54 54 81 121.333 81 202z" />
    <glyph glyph-name="P" unicode="P" horiz-adv-x="608" 
d="M93 739h247c77.333 0 136.666 -22.667 177.999 -68c40.667 -44.667 61 -98 61 -160c0 -63.333 -21.333 -117.333 -64 -162c-43.333 -44 -104.666 -66 -183.999 -66h-138v-283h-100v739zM193 376l140 0.000976562c46 0 81.833 13 107.5 39s38.5 58.667 38.5 98
c0 37.333 -11.833 68.666 -35.5 93.999s-56.167 38 -97.5 38h-153v-269z" />
    <glyph glyph-name="Q" unicode="Q" horiz-adv-x="855" 
d="M710 -40c28.667 0 58.001 5.33203 88.001 15.999l12 -84c-31.333 -12.667 -66.666 -19 -105.999 -19c-92 0 -174 38.667 -246 116c-4.66699 -0.666992 -14.667 -1 -30 -1c-106 0 -196.333 37.333 -271 112s-112 164.667 -112 270c0 104.667 37.333 194.334 112 269.001
c75.333 75.333 165.666 113 270.999 113s195.333 -37.333 270 -112s112 -164.667 112 -270c0 -80 -22.333 -152.333 -67 -217c-44.667 -64 -103 -110.333 -175 -139c43.333 -36 90.666 -54 141.999 -54zM149.001 367.999c0 -80.667 27 -148 81 -202s120 -81 198 -81
c78.667 0 144.667 27 198 81c54 54 81 121.333 81 202c0 81.333 -27 149.333 -81 204c-52.667 54.667 -118.667 82 -198 82c-78 0 -144 -27.333 -198 -82s-81 -122.667 -81 -204z" />
    <glyph glyph-name="R" unicode="R" horiz-adv-x="641" 
d="M610 0h-123l-192 300h-102v-300h-100v739h251c74 0 131 -22 171 -66c40.667 -42.667 61 -94 61 -154c0 -50 -15.167 -94.667 -45.5 -134s-72.5 -65 -126.5 -77zM345 644l-151.999 0.000976562v-250h132c48 0 84.833 11.667 110.5 35s38.5 53.666 38.5 90.999
c0 36.667 -11.333 66.5 -34 89.5s-54.334 34.5 -95.001 34.5z" />
    <glyph glyph-name="S" unicode="S" horiz-adv-x="564" 
d="M279 -12c-54.667 0 -104.501 13.168 -149.501 39.501s-79.167 63.833 -102.5 112.5l74 61c40 -78.667 99 -118 177 -118c41.333 0 74.333 10.667 99 32s37 48 37 80c0 39.333 -25.667 73.666 -77 102.999c-9.33301 4.66699 -34.666 16.667 -75.999 36
c-34 15.333 -61.667 29.333 -83 42c-74 46.667 -111 105.334 -111 176.001c0 56.667 20.333 104 61 142c40.667 38.667 94.667 58 162 58c92 0 164.333 -36.333 217 -109l-67 -64c-40 52.667 -89.667 79 -149 79c-34 0 -62 -9.16699 -84 -27.5s-33 -42.5 -33 -72.5
c0 -38.667 21 -70.334 63 -95.001c17.333 -10.667 46 -25.334 86 -44.001c42 -20 73 -35.667 93 -47c71.333 -43.333 107 -100.666 107 -171.999c0 -63.333 -23.333 -114.333 -70 -153c-46.667 -39.333 -104.667 -59 -174 -59z" />
    <glyph glyph-name="T" unicode="T" horiz-adv-x="566" 
d="M233 0v642h-219v97h538v-97h-219v-642h-100z" />
    <glyph glyph-name="U" unicode="U" horiz-adv-x="706" 
d="M85 249l0.00292969 490h100v-472c0 -58.667 14.667 -103.667 44 -135s70.666 -47 123.999 -47c52.667 0 93.667 16 123 48s44 76.667 44 134v472h101v-490c0 -80.667 -24.667 -144.667 -74 -192c-48.667 -46.667 -113.334 -70 -194.001 -70s-145.334 23.333 -194.001 70
c-49.333 47.333 -74 111.333 -74 192z" />
    <glyph glyph-name="V" unicode="V" horiz-adv-x="708" 
d="M356 172l233 567h109l-314 -739h-57l-319 739h114z" />
    <glyph glyph-name="W" unicode="W" horiz-adv-x="1029" 
d="M321 0h-56l-254 739h106l178 -541l196 541h45l201 -541l175 541h105l-252 -739h-55l-195 552z" />
    <glyph glyph-name="X" unicode="X" horiz-adv-x="627" 
d="M128 0h-120l246 375l-234 364h116l178 -288l180 288h120l-242 -364l244 -375h-116l-186 293z" />
    <glyph glyph-name="Y" unicode="Y" horiz-adv-x="639" 
d="M511 739h111l-253 -473v-266h-100v266l-250 473h111l189 -374z" />
    <glyph glyph-name="Z" unicode="Z" horiz-adv-x="618" 
d="M584 0h-553v62l402 583h-384v94h524v-63l-398 -582h409v-94z" />
    <glyph glyph-name="bracketleft" unicode="[" horiz-adv-x="370" 
d="M353 -227h-266v1038h266v-79h-167v-880h167v-79z" />
    <glyph glyph-name="backslash" unicode="\" horiz-adv-x="605" 
d="M115 825l471 -948h-94l-471 948h94z" />
    <glyph glyph-name="bracketright" unicode="]" horiz-adv-x="370" 
d="M282 -227h-265v79h167v880h-167v79h265v-1038z" />
    <glyph glyph-name="asciicircum" unicode="^" horiz-adv-x="520" 
d="M137 431h-97l193 311h56l191 -311h-95l-124 212z" />
    <glyph glyph-name="underscore" unicode="_" horiz-adv-x="582" 
d="M582 -170h-582v87h582v-87z" />
    <glyph glyph-name="grave" unicode="`" horiz-adv-x="421" 
d="M157 787l59 -167h-83l-93 167h117z" />
    <glyph glyph-name="a" unicode="a" horiz-adv-x="665" 
d="M498 458v77.999h92v-536h-92v76c-48 -59.333 -111 -89 -189 -89c-77.333 0 -141.333 27.333 -192 82s-76 122.334 -76 203.001s25.333 146.667 76 198c50.667 52.667 114.667 79 192 79c76 0 139 -30.333 189 -91zM504 268.999c0 54 -17 99.333 -51 136
c-34 37.333 -78.333 56 -133 56s-98.667 -18.667 -132 -56s-50 -83 -50 -137s16.667 -99.667 50 -137s77.333 -56 132 -56s99 18.667 133 56c34 36.667 51 82.667 51 138z" />
    <glyph glyph-name="b" unicode="b" horiz-adv-x="668" 
d="M359 549c76 0 139.333 -27.333 190 -82c51.333 -54.667 77 -121 77 -199s-25.667 -144.667 -77 -200c-51.333 -54 -115 -81 -191 -81c-77.333 0 -140 30.333 -188 91v-78h-96v757h96v-302c48.667 62.667 111.667 94 189 94zM347 77c54.667 0 98.334 18.333 131.001 55
c34 36.667 51 82.334 51 137.001c0 52.667 -17 97.667 -51 135c-32.667 36.667 -76.334 55 -131.001 55c-55.333 0 -99.333 -18.333 -132 -55s-49 -81.667 -49 -135c0 -54.667 16.333 -100.334 49 -137.001s76.667 -55 132 -55z" />
    <glyph glyph-name="c" unicode="c" horiz-adv-x="599" 
d="M324 -12c-83.333 0 -151.331 26.334 -203.998 79.001s-79 119.667 -79 201s26.667 148.666 80 201.999c53.333 52.667 122.666 79 207.999 79c52.667 0 101.167 -12.667 145.5 -38s76.833 -59.333 97.5 -102l-79 -46c-18 30.667 -41.5 54.667 -70.5 72
s-60.167 26 -93.5 26c-54.667 0 -100.334 -18.333 -137.001 -55c-36 -37.333 -54 -83.333 -54 -138c0 -54 17.667 -99.667 53 -137c34.667 -36.667 79 -55 133 -55c33.333 0 65.5 9 96.5 27s54.167 41 69.5 69l80 -46c-22.667 -42 -56 -75.333 -100 -100
c-45.333 -25.333 -94 -38 -146 -38z" />
    <glyph glyph-name="d" unicode="d" horiz-adv-x="667" 
d="M497 458l-0.000976562 299h96v-757h-96v75c-46.667 -58.667 -108.667 -88 -186 -88c-78 0 -142.667 27 -194 81c-50.667 54.667 -76 121.667 -76 201c0 78.667 25.333 144.667 76 198c50.667 54.667 114.667 82 192 82c76.667 0 139.334 -30.333 188.001 -91z
M503.999 269c0 54 -17 99.332 -51 135.999c-33.333 37.333 -77.333 56 -132 56s-99 -18.667 -133 -56c-33.333 -37.333 -50 -82.666 -50 -135.999c0 -54.667 16.667 -100.667 50 -138c34 -37.333 78.333 -56 133 -56s98.667 18.667 132 56c34 36.667 51 82.667 51 138z" />
    <glyph glyph-name="e" unicode="e" 
d="M572 278c0 -6.66699 -0.999023 -23.002 -2.99902 -49.002h-427c8.66699 -47.333 28.667 -84.666 60 -111.999s74 -41 128 -41c32 0 65 5.5 99 16.5s63.333 25.5 88 43.5l41 -73c-28 -21.333 -62.667 -39.166 -104 -53.499s-83.333 -21.5 -126 -21.5
c-48.667 0 -91.834 8 -129.501 24s-67.5 37.667 -89.5 65s-38.667 57.333 -50 90s-17 67 -17 103c0 80 25 146.667 75 200c50.667 52.667 116 79 196 79c76 0 138 -24.333 186 -73c48.667 -48.667 73 -114.667 73 -198zM142.001 311.998h331.001
c-2.66699 46 -18.834 82.833 -48.501 110.5s-66.834 41.5 -111.501 41.5c-43.333 0 -80.666 -14.167 -111.999 -42.5s-51 -64.833 -59 -109.5z" />
    <glyph glyph-name="f" unicode="f" horiz-adv-x="395" 
d="M331 681c-77.333 0 -116 -37.333 -116 -112v-33h171v-82h-171v-454h-96v454h-93v82h93v35c0 62.667 18.167 111.5 54.5 146.5s84.833 52.5 145.5 52.5c42.667 0 82.667 -9.66699 120 -29l-29 -79c-30 12.667 -56.333 19 -79 19z" />
    <glyph glyph-name="g" unicode="g" horiz-adv-x="667" 
d="M498 466v70h95v-481c0 -86 -26 -154.667 -78 -206c-52.667 -51.333 -122.334 -77 -209.001 -77c-87.333 0 -166.333 25.333 -237 76l45 76c58.667 -43.333 122.334 -65 191.001 -65c59.333 0 106.333 17 141 51c34.667 32.667 52 75.667 52 129v44
c-48 -56 -110.667 -84 -188 -84s-141.333 26.333 -192 79c-51.333 53.333 -77 119 -77 197s26.333 143 79 195c52.667 52.667 117.667 79 195 79c74 0 135 -27.667 183 -83zM190 139c35.333 -36 79 -54 131 -54c52.667 0 96.334 18 131.001 54
c34.667 35.333 52 80.333 52 135s-17.333 99.334 -52 134.001c-35.333 36 -79 54 -131 54c-52.667 0 -96.334 -18 -131.001 -54c-34.667 -34.667 -52 -79.334 -52 -134.001s17.333 -99.667 52 -135z" />
    <glyph glyph-name="h" unicode="h" horiz-adv-x="616" 
d="M170 0l-96.001 0.000976562v757h93v-287c16.667 24.667 40.167 44.167 70.5 58.5s63.5 21.5 99.5 21.5c59.333 0 109.333 -19.333 150 -58s61 -94.334 61 -167.001v-325h-95v298c0 51.333 -12.333 91.333 -37 120s-57.667 43 -99 43
c-43.333 0 -78.666 -15.167 -105.999 -45.5s-41 -69.5 -41 -117.5v-298z" />
    <glyph glyph-name="i" unicode="i" horiz-adv-x="245" 
d="M124 612c-20 0 -36.667 6.5 -50 19.5s-20 29.5 -20 49.5c0 19.333 6.66699 35.333 20 48s30 19 50 19c18.667 0 34.667 -6.5 48 -19.5s20 -28.833 20 -47.5c0 -20 -6.66699 -36.5 -20 -49.5s-29.333 -19.5 -48 -19.5zM170 536v-536h-96v536h96z" />
    <glyph glyph-name="j" unicode="j" horiz-adv-x="269" 
d="M147 612c-20 0 -36.667 6.5 -50 19.5s-20 29.5 -20 49.5c0 19.333 6.66699 35.333 20 48s30 19 50 19c18.667 0 34.667 -6.5 48 -19.5s20 -28.833 20 -47.5c0 -20 -6.66699 -36.5 -20 -49.5s-29.333 -19.5 -48 -19.5zM17 -229c-40 0 -71.668 7.33203 -95.001 21.999
l19 80c26 -9.33301 47.667 -14 65 -14c61.333 0 92 36.667 92 110v567h96v-561c0 -65.333 -15.667 -115.666 -47 -150.999s-74.666 -53 -129.999 -53z" />
    <glyph glyph-name="k" unicode="k" horiz-adv-x="545" 
d="M549 0h-126l-202 250l-51 -46v-204h-96v757h96v-438l240 217h130l-251 -225z" />
    <glyph glyph-name="l" unicode="l" horiz-adv-x="245" 
d="M170 757v-757h-96v757h96z" />
    <glyph glyph-name="m" unicode="m" horiz-adv-x="974" 
d="M693 550c64.667 0 116.667 -21 156 -63c38.667 -40.667 58 -96.667 58 -168v-319h-96v304c0 50 -11.5 88.667 -34.5 116s-54.5 41 -94.5 41c-42 0 -76.333 -14.667 -103 -44s-40 -67.666 -40 -114.999v-302h-95v302c0 50 -11.667 89 -35 117s-55 42 -95 42
c-42 0 -76.5 -14.833 -103.5 -44.5s-40.5 -68.5 -40.5 -116.5v-300h-96v536h94v-79c16 30 38.167 53.167 66.5 69.5s60.166 24.166 95.499 23.499c36.667 0 70.334 -8.83301 101.001 -26.5s53 -42.167 67 -73.5c18 30.667 44.5 55 79.5 73s73.5 27 115.5 27z" />
    <glyph glyph-name="n" unicode="n" horiz-adv-x="618" 
d="M170 0h-96v536h94v-76c34 60 90.667 90 170 90c60 0 110.333 -19.333 151 -58s61 -94.334 61 -167.001v-325h-95v298c0 51.333 -12.5 91.333 -37.5 120s-58.167 43 -99.5 43c-43.333 0 -79 -15.333 -107 -46c-27.333 -31.333 -41 -70.666 -41 -117.999v-297z" />
    <glyph glyph-name="o" unicode="o" horiz-adv-x="645" 
d="M323 -13c-82 0 -149.668 27 -203.001 81c-52.667 54.667 -79 121.667 -79 201s26.333 145.666 79 198.999c52.667 54.667 120.334 82 203.001 82c81.333 0 148.333 -27.333 201 -82c53.333 -55.333 80 -121.666 80 -198.999c0 -78.667 -26.667 -145.667 -80 -201
c-53.333 -54 -120.333 -81 -201 -81zM507.999 269c0 52.667 -18 97.667 -54 135c-36 38 -79.667 57 -131 57s-95 -19 -131 -57c-36 -37.333 -54 -82.333 -54 -135c0 -53.333 18 -99 54 -137s79.667 -57 131 -57s95 19 131 57s54 83.667 54 137z" />
    <glyph glyph-name="p" unicode="p" horiz-adv-x="670" 
d="M361 549c76.667 0 140.333 -27.334 191 -82.001c51.333 -55.333 77 -121.666 77 -198.999c0 -78 -25.667 -144.667 -77 -200c-50.667 -54 -114.667 -81 -192 -81c-78 0 -141.333 30.333 -190 91v-299h-96v757h96v-81c50 62.667 113.667 94 191 94zM532.999 268.999
c0 54 -17 99.332 -51 135.999c-34 37.333 -78.333 56 -133 56s-99 -18.667 -133 -56c-33.333 -37.333 -50 -82.666 -50 -135.999c0 -54.667 16.667 -100.667 50 -138c34 -37.333 78.333 -56 133 -56s99 18.667 133 56c34 36.667 51 82.667 51 138z" />
    <glyph glyph-name="q" unicode="q" horiz-adv-x="670" 
d="M500 456l-0.000976562 80h95v-757h-96v298c-48.667 -60 -112 -90 -190 -90c-76.667 0 -140.667 27 -192 81c-50.667 54.667 -76 121.667 -76 201c0 77.333 25.667 143.333 77 198c50.667 54.667 114.334 82 191.001 82c77.333 0 141 -31 191 -93zM503.999 269
c0 54 -17 99.332 -51 135.999c-33.333 37.333 -77.333 56 -132 56s-99 -18.667 -133 -56c-33.333 -37.333 -50 -82.666 -50 -135.999c0 -54.667 16.667 -100.667 50 -138c34 -37.333 78.333 -56 133 -56s98.667 18.667 132 56c34 36.667 51 82.667 51 138z" />
    <glyph glyph-name="r" unicode="r" horiz-adv-x="389" 
d="M170 0h-95.999v536h91v-79c31.333 62 82.666 93 153.999 93c19.333 0 40.333 -2.66699 63 -8l-9 -93c-19.333 6 -38 9 -56 9c-44 0 -79.5 -15 -106.5 -45s-40.5 -73 -40.5 -129v-284z" />
    <glyph glyph-name="s" unicode="s" horiz-adv-x="454" 
d="M224 -12c-41.333 0 -79.833 9.99902 -115.5 29.999s-63.5 48.667 -83.5 86l69 53c14.667 -27.333 34.167 -48.333 58.5 -63s49.166 -22 74.499 -22c28 0 50.833 7.16699 68.5 21.5s26.5 31.833 26.5 52.5c0 28.667 -16.333 51.334 -49 68.001
c-8.66699 4.66699 -31 14.667 -67 30c-33.333 14 -55.333 24 -66 30c-54.667 30 -82 73.333 -82 130c0 43.333 16 79 48 107c31.333 28.667 73.666 43 126.999 43c34.667 0 67.334 -7.33301 98.001 -22s54.667 -35.667 72 -63l-61 -58
c-29.333 41.333 -67.666 62 -114.999 62c-23.333 0 -42 -6.16699 -56 -18.5s-21 -27.833 -21 -46.5c0 -28 15 -49 45 -63l59 -26c32 -12.667 56 -23.667 72 -33c60.667 -30.667 91 -75.667 91 -135c0 -46 -18 -84.667 -54 -116c-36.667 -31.333 -83 -47 -139 -47z" />
    <glyph glyph-name="t" unicode="t" horiz-adv-x="427" 
d="M388 106l36.001 -74.001c-38.667 -30 -86.334 -45 -143.001 -45c-56 0 -98.5 17.333 -127.5 52s-43.5 84.334 -43.5 149.001v266h-95v82h96v190h94v-190h190v-82h-190v-273c0 -70.667 29 -106 87 -106c31.333 0 63.333 10.333 96 31z" />
    <glyph glyph-name="u" unicode="u" horiz-adv-x="595" 
d="M297 -13c-70 0 -125.833 20.667 -167.5 62s-62.5 97 -62.5 167v320h96v-317c0 -44 11.833 -78.833 35.5 -104.5s56.5 -38.5 98.5 -38.5s75 12.833 99 38.5s36 60.5 36 104.5v317h95v-320c0 -71.333 -20.5 -127.333 -61.5 -168s-97.167 -61 -168.5 -61z" />
    <glyph glyph-name="v" unicode="v" horiz-adv-x="563" 
d="M283 135l162 401h106l-236 -535h-67l-236 535h107z" />
    <glyph glyph-name="w" unicode="w" horiz-adv-x="840" 
d="M274 1h-79l-184 535h101l127 -402l146 402h67l152 -402l122 402h100l-179 -535h-80l-148 401z" />
    <glyph glyph-name="x" unicode="x" horiz-adv-x="508" 
d="M310 271l184 -271h-111l-130 201l-130 -201h-116l189 278l-170 258h111l119 -188l121 188h113z" />
    <glyph glyph-name="y" unicode="y" horiz-adv-x="555" 
d="M290 134l144.001 401.999h106l-225 -596c-22 -59.333 -47.833 -102.166 -77.5 -128.499s-65.834 -39.5 -108.501 -39.5c-34 0 -62.667 7 -86 21l12 84c24 -10.667 45.667 -16 65 -16c44 0 79.333 31.333 106 94l20 47l-233 534h111z" />
    <glyph glyph-name="z" unicode="z" horiz-adv-x="508" 
d="M465 479l-305 -397h314v-82h-444v61l306 392h-288v82h417v-56z" />
    <glyph glyph-name="braceleft" unicode="{" horiz-adv-x="371" 
d="M121 292l0.00195312 -4.00098c30.667 -10 56.334 -27.333 77.001 -52s31 -53 31 -85c0 -26 -1.33301 -60.667 -4 -104s-4 -78 -4 -104c0 -62.667 31.667 -94 95 -94h33v-80h-43c-118 0 -177 58.667 -177 176c0 32 1.33301 69.333 4 112c2.66699 43.333 4 75.333 4 96
c0 36 -12.667 61.667 -38 77c-18.667 11.333 -44.334 20.333 -77.001 27v66c33.333 7.33301 58.666 16.333 75.999 27c26 15.333 39 41 39 77c0 20.667 -1.33301 52.667 -4 96s-4 81.333 -4 114c0 116 59 174 177 174h43v-80h-33c-63.333 0 -95 -31 -95 -93
c0 -26.667 1.33301 -61.667 4 -105s4 -77.666 4 -102.999c0 -32.667 -10.333 -61.667 -31 -87s-46.334 -42.333 -77.001 -51z" />
    <glyph glyph-name="bar" unicode="|" horiz-adv-x="261" 
d="M173 -179h-86v1026h86v-1026z" />
    <glyph glyph-name="braceright" unicode="}" horiz-adv-x="371" 
d="M250 288l-0.000976562 4c-30.667 8.66699 -56.334 25.667 -77.001 51s-31 54.333 -31 87c0 25.333 1.33301 59.666 4 102.999s4 78.333 4 105c0 62 -31.667 93 -95 93h-33v80h43c58 0 102 -14.667 132 -44s45 -72.666 45 -129.999c0 -32.667 -1.33301 -70.667 -4 -114
c-2 -48.667 -3 -80.667 -3 -96c0 -35.333 12.667 -61 38 -77c16.667 -10 42.334 -19 77.001 -27v-66c-34 -7.33301 -60 -16.333 -78 -27c-24.667 -15.333 -37 -41 -37 -77c0 -15.333 1 -47.333 3 -96c2.66699 -42.667 4 -80 4 -112c0 -57.333 -15.167 -101 -45.5 -131
s-73.833 -45 -130.5 -45h-44v80h33c63.333 0 95 31.333 95 94c0 26 -1.33301 60.667 -4 104s-4 78 -4 104c0 32 10.333 60.333 31 85s46.334 42 77.001 52z" />
    <glyph glyph-name="asciitilde" unicode="~" horiz-adv-x="668" 
d="M438 250c-32.667 0 -71.334 11.333 -116.001 34s-76.667 34 -96 34c-20 0 -37.333 -4.5 -52 -13.5s-31 -24.5 -49 -46.5l-61 45c38 66 94 99 168 99c32.667 0 71.334 -11.333 116.001 -34s76.667 -34 96 -34c20.667 0 38.167 4.5 52.5 13.5s30.5 24.833 48.5 47.5l62 -46
c-40 -66 -96.333 -99 -169 -99z" />
    <glyph glyph-name="exclamdown" unicode="&#xa1;" horiz-adv-x="261" 
d="M142 526c18 0 32.999 -6.16699 44.999 -18.5s18 -27.833 18 -46.5c0 -17.333 -6.16699 -32 -18.5 -44s-27.166 -18 -44.499 -18c-18.667 0 -34.167 6 -46.5 18s-18.5 26.667 -18.5 44c0 18.667 6.16699 34.167 18.5 46.5s27.833 18.5 46.5 18.5zM87.999 -227l4 561h96
l6 -561h-106z" />
    <glyph glyph-name="cent" unicode="&#xa2;" horiz-adv-x="610" 
d="M363 458v-378.003c27.333 5.33301 52.666 16.333 75.999 33s41.333 36.334 54 59.001l80 -46c-19.333 -36.667 -47.833 -67.167 -85.5 -91.5s-79.167 -39.166 -124.5 -44.499v-80h-68v79c-73.333 6.66699 -134 36 -182 88c-46 50.667 -69 114.334 -69 191.001
c0 76 23 139.333 69 190c47.333 51.333 108 81 182 89v83h68v-83c46.667 -4.66699 89 -19.334 127 -44.001s66.333 -56 85 -94l-79 -46c-33.333 54.667 -77.666 86.334 -132.999 95.001zM141 267.997c0 -49.333 14.333 -91.333 43 -126
c29.333 -34.667 66.333 -55.667 111 -63v379c-46 -8.66699 -83.167 -30.5 -111.5 -65.5s-42.5 -76.5 -42.5 -124.5z" />
    <glyph glyph-name="sterling" unicode="&#xa3;" horiz-adv-x="571" 
d="M171 92l358 -0.000976562v-92h-474v79c28 21.333 51.333 50 70 86c19.333 37.333 29 73.333 29 108c0 18.667 -3.33301 39 -10 61h-90v82h61c-18 51.333 -27 92 -27 122c0.666992 60.667 22.334 111.334 65.001 152.001c42 40 95.667 60.667 161 62
c44 0.666992 84.833 -9.5 122.5 -30.5s67.5 -49.833 89.5 -86.5l-74 -53c-14 24 -32.833 43.167 -56.5 57.5s-48.5 21.5 -74.5 21.5c-38 0 -69.5 -12.667 -94.5 -38s-37.5 -57 -37.5 -95c0 -28 8.66699 -65.333 26 -112h242v-82h-214
c6.66699 -26.667 9.66699 -51.334 9 -74.001c-0.666992 -31.333 -8.33398 -62.166 -23.001 -92.499s-34 -55.5 -58 -75.5z" />
    <glyph glyph-name="currency" unicode="&#xa4;" horiz-adv-x="636" 
d="M543 367c0 -47.333 -13 -89.333 -39 -126l72 -70l-53 -52l-70 68c-39.333 -30.667 -85 -46 -137 -46c-48.667 0 -93.334 14.667 -134.001 44l-69 -66l-52 52l69 68c-26.667 38.667 -40 81.334 -40 128.001c0 50 15 95.667 45 137l-74 73l52 52l75 -73
c38.667 26.667 81.334 40 128.001 40c47.333 0 91 -14 131 -42l76 75l53 -52l-76 -76c28.667 -38.667 43 -83.334 43 -134.001zM461 369c0 42 -14 77.667 -42 107c-28 28.667 -62.333 43 -103 43s-75 -14.333 -103 -43c-27.333 -29.333 -41 -65 -41 -107
s13.667 -77.667 41 -107c28 -29.333 62.333 -44 103 -44s75 14.667 103 44s42 65 42 107z" />
    <glyph glyph-name="yen" unicode="&#xa5;" horiz-adv-x="641" 
d="M504 739h107l-199 -371h132v-74h-172l-3 -6v-51h175v-75h-175v-162h-99v162h-177v75h177v53l-2 4h-175v74h135l-197 371h107l183 -354z" />
    <glyph glyph-name="brokenbar" unicode="&#xa6;" horiz-adv-x="261" 
d="M173 434h-86v413h86v-413zM87 234h86v-413h-86v413z" />
    <glyph glyph-name="section" unicode="&#xa7;" horiz-adv-x="562" 
d="M524 212c0 -27.333 -6.66699 -52.6689 -20 -76.002s-31.666 -41.666 -54.999 -54.999c19.333 -29.333 29 -62.666 29 -99.999c0 -55.333 -20 -101.666 -60 -138.999c-39.333 -37.333 -90.666 -56 -153.999 -56c-90.667 0 -163.667 35.667 -219 107l67 63
c42.667 -52.667 92.667 -79 150 -79c35.333 0 63.666 9.83301 84.999 29.5s32 44.167 32 73.5c0 34.667 -16.333 63.667 -49 87c-18 13.333 -33.667 24 -47 32l-58 31l-68 36c-15.333 10 -33.333 23 -54 39c-40 32 -60 71.667 -60 119c0 58 25 101.333 75 130
c-20 29.333 -30 63.333 -30 102c0 56 19.667 102.667 59 140c39.333 36.667 91 55 155 55c84 0 152 -33.667 204 -101l-68 -59c-38.667 46 -82.334 69 -131.001 69c-36 0 -65 -9.83301 -87 -29.5s-33 -43.834 -33 -72.501c0 -33.333 16 -62 48 -86
c15.333 -11.333 30 -21.333 44 -30l59 -32l17 -9c50 -26.667 88 -51.667 114 -75c36.667 -30.667 55 -68.667 55 -114zM270 211.997c61.333 -33.333 100.667 -56.3359 118 -69.0029c24.667 12.667 37 32.334 37 59.001c0 22.667 -9 42.334 -27 59.001s-48 35.667 -90 57
c-66 33.333 -109.667 58.333 -131 75c-24 -12 -36 -31.667 -36 -59c0 -26 13.333 -49 40 -69c19.333 -13.333 32 -21.666 38 -24.999z" />
    <glyph glyph-name="dieresis" unicode="&#xa8;" horiz-adv-x="496" 
d="M119 630c-20 0 -36.667 6.5 -50 19.5s-20 29.833 -20 50.5c0 18.667 6.66699 34.334 20 47.001s30 19 50 19c18.667 0 34.5 -6.33301 47.5 -19s19.5 -28.334 19.5 -47.001c0 -20 -6.5 -36.667 -19.5 -50s-28.833 -20 -47.5 -20zM248 700
c0 18.667 6.66699 34.334 20 47.001s29.666 19 48.999 19s35.5 -6.33301 48.5 -19s19.5 -28.334 19.5 -47.001c0 -20 -6.5 -36.667 -19.5 -50s-29.167 -20 -48.5 -20s-35.666 6.66699 -48.999 20s-20 30 -20 50z" />
    <glyph glyph-name="copyright" unicode="&#xa9;" horiz-adv-x="860" 
d="M45 369c0 104.667 37.6689 194.667 113.002 270s166 113 272 113s196.667 -37.667 272 -113s113 -165.333 113 -270c0 -104 -37.667 -193.667 -113 -269c-74.667 -74.667 -165.334 -112 -272.001 -112s-197.334 37.333 -272.001 112c-75.333 75.333 -113 165 -113 269z
M430.002 55c86.667 0 161.333 30.667 224 92c62 62 93 136 93 222c0 87.333 -31 161.333 -93 222c-62 62 -136.667 93 -224 93s-162 -31 -224 -93c-61.333 -61.333 -92 -135.333 -92 -222c0 -86 31 -160 93 -222c62.667 -61.333 137 -92 223 -92zM433.001 164
c-57.333 0 -105.666 19.666 -144.999 58.999c-39.333 40.667 -59 89.334 -59 146.001c0 58 19.667 106.667 59 146s87.666 59 144.999 59c68 0 120.333 -24.333 157 -73l-47 -39c-30 33.333 -66.667 50 -110 50c-40 0 -72.667 -13.167 -98 -39.5s-38 -60.833 -38 -103.5
c0 -42 12.667 -76.167 38 -102.5s58 -39.5 98 -39.5c46.667 0 83.667 15.667 111 47l45 -43c-38 -44.667 -90 -67 -156 -67z" />
    <glyph glyph-name="ordfeminine" unicode="&#xaa;" horiz-adv-x="412" 
d="M195 736c46 0 82.999 -13.832 110.999 -41.499s42 -65.834 42 -114.501v-189h-60v37c-26.667 -30.667 -64.667 -46 -114 -46c-38.667 0 -69.667 10.667 -93 32s-35 48.333 -35 81c0 31.333 12.333 56 37 74s58.334 27 101.001 27c32 0 66.667 -3.33301 104 -10
c-3.33301 59.333 -36 89 -98 89c-39.333 0 -72.333 -9.33301 -99 -28l-24 51c33.333 25.333 76 38 128 38zM180.999 444.001c62 0 97 30.001 105 90.001c-27.333 6.66699 -59.333 10 -96 10c-24.667 0 -44 -4.33301 -58 -13s-21 -20.334 -21 -35.001
c0 -16 6.33301 -28.667 19 -38s29.667 -14 51 -14z" />
    <glyph glyph-name="guillemotleft" unicode="&#xab;" horiz-adv-x="516" 
d="M278 88h-95l-142 203l142 203h95l-143 -203zM463 88h-96l-140 203l140 203h96l-142 -203z" />
    <glyph glyph-name="logicalnot" unicode="&#xac;" horiz-adv-x="607" 
d="M448 274h-378v90h463v-212h-85v122z" />
    <glyph glyph-name="uni00AD" unicode="&#xad;" horiz-adv-x="512" 
d="M447 284h-382v88h382v-88z" />
    <glyph glyph-name="registered" unicode="&#xae;" horiz-adv-x="568" 
d="M114 692c47.333 47.333 104.002 70.998 170.002 70.998c65.333 0 121.666 -23.667 168.999 -71s71 -103.666 71 -168.999c0 -66 -23.667 -122.667 -71 -170c-46.667 -46.667 -103 -70 -169 -70c-66.667 0 -123.334 23.333 -170.001 70s-70 103.334 -70 170.001
c0 66 23.333 122.333 70 169zM149.002 387.998c37.333 -37.333 82.333 -56 135 -56s97.667 18.667 135 56s56 82.333 56 135s-18.667 97.667 -56 135s-82.333 56 -135 56s-97.667 -18.667 -135 -56s-56 -82.333 -56 -135s18.667 -97.667 56 -135zM380.002 565.998
c0 -34.667 -15.333 -58.333 -46 -71l52 -90h-52l-48 82h-40v-82h-46v241h97c24 0 43.833 -7.5 59.5 -22.5s23.5 -34.167 23.5 -57.5zM286.002 606.999h-40v-82h40c32 0 48 14 48 42c0 26.667 -16 40 -48 40z" />
    <glyph glyph-name="overscore" unicode="&#xaf;" horiz-adv-x="471" 
d="M347 647l-307 -1v86h307v-85z" />
    <glyph glyph-name="degree" unicode="&#xb0;" horiz-adv-x="363" 
d="M283 581c-27.333 -26.667 -61.002 -40 -101.002 -40s-73.667 13.333 -101 40c-28 27.333 -42 60 -42 98c0 39.333 14 72.333 42 99c28.667 27.333 62.334 41 101.001 41s72.334 -13.667 101.001 -41c28 -26.667 42 -59.667 42 -99c0 -38 -14 -70.667 -42 -98z
M259.998 679c0 22.667 -7.66699 41.667 -23 57s-33.666 23 -54.999 23s-39.666 -7.66699 -54.999 -23s-23 -34.333 -23 -57c0 -22 7.66699 -40.5 23 -55.5s33.666 -22.5 54.999 -22.5s39.666 7.5 54.999 22.5s23 33.5 23 55.5z" />
    <glyph glyph-name="plusminus" unicode="&#xb1;" horiz-adv-x="597" 
d="M345 673v-189h188v-91h-188v-188l-90 -1v189h-190v91h190v189h90zM533 82h-468v87h468v-87z" />
    <glyph glyph-name="uni00B2" unicode="&#xb2;" horiz-adv-x="344" 
d="M244 678l-101 -105.999h159v-65h-262v58l130 132c37.333 39.333 56 70.333 56 93c0 16.667 -5.83301 30.167 -17.5 40.5s-26.5 15.5 -44.5 15.5c-30.667 0 -62 -15 -94 -45l-37 53c39.333 38.667 84.333 58 135 58c38 0 69.167 -11.167 93.5 -33.5s36.5 -51.5 36.5 -87.5
c0 -36.667 -18 -74.334 -54 -113.001z" />
    <glyph glyph-name="uni00B3" unicode="&#xb3;" horiz-adv-x="331" 
d="M147 501c-46 0 -89.3301 12.998 -129.997 38.998l30 56c37.333 -21.333 70 -32 98 -32c23.333 0 41.5 5.16699 54.5 15.5s19.5 24.5 19.5 42.5c0 17.333 -6.83301 31.333 -20.5 42s-31.834 16 -54.501 16h-51v61h48c20 0 36.667 5 50 15s20 23 20 39
s-6.16699 28.833 -18.5 38.5s-27.5 14.5 -45.5 14.5c-26.667 0 -55 -11 -85 -33l-35 50c33.333 31.333 75.666 47 126.999 47c37.333 0 68.166 -10 92.499 -30s36.5 -45 36.5 -75c0 -21.333 -6.5 -40.166 -19.5 -56.499s-30.167 -27.833 -51.5 -34.5v-2
c25.333 -5.33301 45 -16.666 59 -33.999s21 -38.333 21 -63c0 -34 -13.5 -61.833 -40.5 -83.5s-61.833 -32.5 -104.5 -32.5z" />
    <glyph glyph-name="acute" unicode="&#xb4;" horiz-adv-x="449" 
d="M123 620h-83l59 167h117z" />
    <glyph glyph-name="paragraph" unicode="&#xb6;" horiz-adv-x="660" 
d="M251 734l356.999 -0.000976562v-89h-69v-848h-93v848h-75v-848h-93v508h-29c-61.333 0 -113.333 20.667 -156 62c-42 40.667 -63 92 -63 154c0 60.667 21 111.334 63 152.001c42.667 40.667 95.334 61 158.001 61z" />
    <glyph glyph-name="middot" unicode="&#xb7;" horiz-adv-x="255" 
d="M64 49c0 17.333 6.16699 32 18.5 44s27.5 18 45.5 18s33.167 -6 45.5 -18s18.5 -26.667 18.5 -44c0 -18.667 -6.16699 -34.167 -18.5 -46.5s-27.5 -18.5 -45.5 -18.5s-33.167 6.16699 -45.5 18.5s-18.5 27.833 -18.5 46.5z" />
    <glyph glyph-name="cedilla" unicode="&#xb8;" horiz-adv-x="315" 
d="M173 -48l8 -0.000976562c29.333 0 53.833 -8.33301 73.5 -25s29.5 -39 29.5 -67c0 -31.333 -11.5 -57.666 -34.5 -78.999s-54.833 -32 -95.5 -32c-34 0 -72 9.66699 -114 29l25 63c28.667 -14 55.667 -21 81 -21c18 0 32.167 4.16699 42.5 12.5s15.5 18.833 15.5 31.5
c0 24 -17.333 36 -52 36h-56l-9 22l39 98l74 -2z" />
    <glyph glyph-name="uni00B9" unicode="&#xb9;" horiz-adv-x="265" 
d="M18 793l132 106h54v-392h-72v293l-76 -61z" />
    <glyph glyph-name="ordmasculine" unicode="&#xba;" horiz-adv-x="440" 
d="M42 557c0 50.667 17 93 51 127c34 34.667 76.333 52 127 52s93 -17.333 127 -52c34 -34 51 -76.333 51 -127c0 -50 -17 -92 -51 -126c-34.667 -33.333 -77 -50 -127 -50s-92.333 16.667 -127 50c-34 34 -51 76 -51 126zM219 441c33.333 0 61.166 11.167 83.499 33.5
s33.5 50.166 33.5 83.499c0 34 -11.167 62.333 -33.5 85s-50.166 34 -83.499 34c-32.667 0 -59.834 -11.333 -81.501 -34s-32.5 -51 -32.5 -85c0 -33.333 10.833 -61.166 32.5 -83.499s48.834 -33.5 81.501 -33.5z" />
    <glyph glyph-name="guillemotright" unicode="&#xbb;" horiz-adv-x="516" 
d="M289 291l-140 -203h-96l142 203l-142 203h96zM475 291l-142 -203h-95l143 203l-143 203h95z" />
    <glyph glyph-name="onequarter" unicode="&#xbc;" horiz-adv-x="858" 
d="M221 346h-73v293l-75 -60l-39 54l132 106h55v-393zM106 0l578 739h83l-576 -739h-85zM772 155h44v-57h-44v-98h-63v98h-185l-15 41l214 257h49v-241zM709 292l-115 -137h115v137z" />
    <glyph glyph-name="onehalf" unicode="&#xbd;" horiz-adv-x="838" 
d="M222 346h-73v293l-75 -60l-39 54l132 106h55v-393zM83 0l578 739h84l-576 -739h-86zM739 171l-101 -106h159v-65h-262v58l130 132c37.333 39.333 56 70.333 56 93c0 16.667 -5.83301 30.167 -17.5 40.5s-26.5 15.5 -44.5 15.5c-30.667 0 -62 -15 -94 -45l-37 53
c39.333 38.667 84.333 58 135 58c38 0 69.167 -11.167 93.5 -33.5s36.5 -51.5 36.5 -87.5s-18 -73.667 -54 -113z" />
    <glyph glyph-name="threequarters" unicode="&#xbe;" horiz-adv-x="840" 
d="M150 404c23.333 0 41.502 5.16504 54.502 15.498s19.5 24.5 19.5 42.5c0 17.333 -6.83301 31.333 -20.5 42s-31.834 16 -54.501 16h-51v61h48c20 0 36.667 5 50 15s20 23 20 39s-6.16699 28.833 -18.5 38.5s-27.5 14.5 -45.5 14.5c-26.667 0 -55 -11 -85 -33l-35 50
c33.333 31.333 75.666 47 126.999 47c37.333 0 68.166 -10 92.499 -30s36.5 -45 36.5 -75c0 -21.333 -6.5 -40.166 -19.5 -56.499s-30.167 -27.833 -51.5 -34.5v-2c25.333 -5.33301 45 -16.666 59 -33.999s21 -38.333 21 -63c0 -34 -13.5 -61.833 -40.5 -83.5
s-61.833 -32.5 -104.5 -32.5c-45.333 0 -88.666 13 -129.999 39l30 56c37.333 -21.333 70 -32 98 -32zM134.002 -0.00195312l578 739h83l-576 -739h-85zM690.002 395.998h49v-241h44v-57h-44v-98h-63v98h-185l-15 41zM676.002 291.998l-115 -137h115v137z" />
    <glyph glyph-name="questiondown" unicode="&#xbf;" horiz-adv-x="503" 
d="M352 462c0 -17.333 -6.33398 -32 -19.001 -44s-28 -18 -46 -18c-17.333 0 -32.166 6 -44.499 18s-18.5 26.667 -18.5 44c0 18.667 6 34.167 18 46.5s27 18.5 45 18.5s33.333 -6.16699 46 -18.5s19 -27.833 19 -46.5zM242.999 348l90 -0.00195312v-73
c0 -26 -6.83301 -50.333 -20.5 -73s-30.334 -42.667 -50.001 -60l-59 -51.5c-19.667 -17 -36.334 -36.167 -50.001 -57.5s-20.5 -44 -20.5 -68c0 -35.333 12.667 -64.166 38 -86.499s57.333 -33.5 96 -33.5c53.333 0 104 26.333 152 79l59 -67
c-27.333 -31.333 -60.166 -56.166 -98.499 -74.499s-77.833 -27.5 -118.5 -27.5c-62 0 -114.667 19.333 -158 58c-44 39.333 -66 89 -66 149c0 58 24 108.667 72 152c8 7.33301 20.167 17.833 36.5 31.5s29 24.667 38 33s18.833 18.333 29.5 30s18.334 23 23.001 34
s7 22.167 7 33.5v72z" />
    <glyph glyph-name="Agrave" unicode="&#xc0;" horiz-adv-x="674" 
d="M322 962l60 -168h-84l-94 168h118zM661 0h-109l-75 192h-281l-75 -192h-109l299 739h54zM443 286l-106 279l-107 -279h213z" />
    <glyph glyph-name="Aacute" unicode="&#xc1;" horiz-adv-x="674" 
d="M364 961h118l-93 -168h-84zM661 0h-109l-75 192h-281l-75 -192h-109l299 739h54zM443 286l-106 279l-107 -279h213z" />
    <glyph glyph-name="Acircumflex" unicode="&#xc2;" horiz-adv-x="674" 
d="M409 792l-72 91l-72 -91h-103l141 165h69l141 -165h-104zM661 0h-109l-75 192h-281l-75 -192h-109l299 739h54zM443 286l-106 279l-107 -279h213z" />
    <glyph glyph-name="Atilde" unicode="&#xc3;" horiz-adv-x="674" 
d="M266 847c-24.667 0 -44.666 -15.667 -59.999 -47l-62 29c8.66699 30 23.5 53.5 44.5 70.5s45.5 25.5 73.5 25.5c22 0 47.333 -7.33301 76 -22c29.333 -14.667 50.666 -22 63.999 -22c24.667 0 44 15 58 45l60 -28c-8 -30 -22.333 -53.5 -43 -70.5s-45 -25.5 -73 -25.5
c-21.333 0 -46.333 7.33301 -75 22c-29.333 15.333 -50.333 23 -63 23zM661.001 0h-109l-75 192h-281l-75 -192h-109l299 739h54zM443.001 286l-106 279l-107 -279h213z" />
    <glyph glyph-name="Adieresis" unicode="&#xc4;" horiz-adv-x="674" 
d="M248 806c-18 0 -33.167 6 -45.5 18s-18.5 27 -18.5 45c0 16.667 6.16699 30.834 18.5 42.501s27.5 17.5 45.5 17.5c16.667 0 30.834 -5.83301 42.501 -17.5s17.5 -25.834 17.5 -42.501c0 -18 -5.83301 -33 -17.5 -45s-25.834 -18 -42.501 -18zM427 806
c-18 0 -32.999 6 -44.999 18s-18 27 -18 45c0 16.667 6.16699 30.834 18.5 42.501s27.166 17.5 44.499 17.5s31.833 -5.83301 43.5 -17.5s17.5 -25.834 17.5 -42.501c0 -18 -5.83301 -33 -17.5 -45s-26.167 -18 -43.5 -18zM661.001 0h-109l-75 192h-281l-75 -192h-109
l299 739h54zM443.001 286l-106 279l-107 -279h213z" />
    <glyph glyph-name="Aring" unicode="&#xc5;" horiz-adv-x="674" 
d="M341 781c-33.333 0 -61.333 10.833 -84 32.5s-34 48.5 -34 80.5c0 31.333 11.333 58 34 80s50.667 33 84 33c32.667 0 60 -11 82 -33c22.667 -22 34 -48.667 34 -80c0 -32 -11.167 -58.833 -33.5 -80.5s-49.833 -32.5 -82.5 -32.5zM341 948c-15.333 0 -28.333 -5 -39 -15
s-16 -22.333 -16 -37c0 -16 5.33301 -29.333 16 -40s23.667 -16 39 -16c14.667 0 27.167 5.33301 37.5 16s15.5 24 15.5 40c0 14 -5.33301 26.167 -16 36.5s-23 15.5 -37 15.5zM661 0h-109l-75 192h-281l-75 -192h-109l299 739h54zM443 286l-106 279l-107 -279h213z" />
    <glyph glyph-name="AE" unicode="&#xc6;" horiz-adv-x="1015" 
d="M959 739v-95h-369v-221h339v-95h-339v-233h369v-95h-469v218h-259l-133 -218h-113l463 739h511zM490 644l-202 -332h202v332z" />
    <glyph glyph-name="Ccedilla" unicode="&#xc7;" horiz-adv-x="776" 
d="M678 210l71.999 -61.002c-32.667 -45.333 -75.167 -82.166 -127.5 -110.499s-109.166 -44.5 -170.499 -48.5l-15 -38h8c29.333 0 53.833 -8.33301 73.5 -25s29.5 -39 29.5 -67c0 -31.333 -11.5 -57.666 -34.5 -78.999s-54.833 -32 -95.5 -32c-34 0 -72 9.66699 -114 29
l25 63c28.667 -14 55.667 -21 81 -21c18 0 32.167 4.16699 42.5 12.5s15.5 18.833 15.5 31.5c0 24 -17.333 36 -52 36h-56l-9 22l28 70c-96.667 11.333 -176 51 -238 119c-63.333 69.333 -95 154.666 -95 255.999c0 112 37.333 204 112 276c74.667 72.667 165 109 271 109
c67.333 0 129.333 -15 186 -45c56.667 -28.667 101 -67.667 133 -117l-74 -62c-62.667 84.667 -143.667 127 -243 127c-78.667 0 -145.334 -27.333 -200.001 -82s-82 -123.667 -82 -207c0 -81.333 26.667 -148.666 80 -201.999c53.333 -52.667 120.333 -79 201 -79
c49.333 0 95.333 11 138 33s79.334 52.667 110.001 92z" />
    <glyph glyph-name="Egrave" unicode="&#xc8;" horiz-adv-x="609" 
d="M318 962l60 -168h-84l-94 168h118zM553 0h-460v739h460v-95h-360v-221h333v-95h-333v-233h360v-95z" />
    <glyph glyph-name="Eacute" unicode="&#xc9;" horiz-adv-x="609" 
d="M358 793h-84l59 168h118zM553 0h-460v739h460v-95h-360v-221h333v-95h-333v-233h360v-95z" />
    <glyph glyph-name="Ecircumflex" unicode="&#xca;" horiz-adv-x="609" 
d="M252 792h-103l141 165h69l141 -165h-104l-72 91zM553 0h-460v739h460v-95h-360v-221h333v-95h-333v-233h360v-95z" />
    <glyph glyph-name="Edieresis" unicode="&#xcb;" horiz-adv-x="609" 
d="M237 806c-18 0 -33.167 6 -45.5 18s-18.5 27 -18.5 45c0 16.667 6.16699 30.834 18.5 42.501s27.5 17.5 45.5 17.5c16.667 0 30.834 -5.83301 42.501 -17.5s17.5 -25.834 17.5 -42.501c0 -18 -5.83301 -33 -17.5 -45s-25.834 -18 -42.501 -18zM416 806
c-18 0 -32.999 6 -44.999 18s-18 27 -18 45c0 16.667 6.16699 30.834 18.5 42.501s27.166 17.5 44.499 17.5s31.833 -5.83301 43.5 -17.5s17.5 -25.834 17.5 -42.501c0 -18 -5.83301 -33 -17.5 -45s-26.167 -18 -43.5 -18zM553.001 0h-460v739h460v-95h-360v-221h333v-95
h-333v-233h360v-95z" />
    <glyph glyph-name="Igrave" unicode="&#xcc;" horiz-adv-x="286" 
d="M129 962l60 -168h-84l-94 168h118zM96 0v739h100v-739h-100z" />
    <glyph glyph-name="Iacute" unicode="&#xcd;" horiz-adv-x="283" 
d="M182 794h-84l59 168h118zM93 0v739h100v-739h-100z" />
    <glyph glyph-name="Icircumflex" unicode="&#xce;" horiz-adv-x="286" 
d="M74 794h-103l141 165h69l141 -165h-104l-72 91zM96 0v739h100v-739h-100z" />
    <glyph glyph-name="Idieresis" unicode="&#xcf;" horiz-adv-x="286" 
d="M53 801c-19.333 0 -35.332 6.16699 -47.999 18.5s-19 28.166 -19 47.499c0 17.333 6.5 32.166 19.5 44.499s28.833 18.5 47.5 18.5c17.333 0 32.166 -6.16699 44.499 -18.5s18.5 -27.166 18.5 -44.499c0 -19.333 -6 -35.166 -18 -47.499s-27 -18.5 -45 -18.5z
M240.001 801c-18.667 0 -34.167 6.16699 -46.5 18.5s-18.5 28.166 -18.5 47.499c0 17.333 6.16699 32.166 18.5 44.499s27.833 18.5 46.5 18.5c18 0 33.333 -6.16699 46 -18.5s19 -27.166 19 -44.499c0 -19.333 -6.33301 -35.166 -19 -47.499s-28 -18.5 -46 -18.5zM96.001 0
v739h100v-739h-100z" />
    <glyph glyph-name="Eth" unicode="&#xd0;" horiz-adv-x="777" 
d="M112 739l274.999 -0.000976562c104.667 0 187.334 -33.333 248.001 -100c61.333 -67.333 92 -157.666 92 -270.999c0 -114 -31.333 -203.667 -94 -269c-62 -66 -147.333 -99 -256 -99h-265v327h-100v86h100v326zM211.999 94.999l169 0.000976562
c75.333 0 134.666 25.667 177.999 77c42.667 51.333 64 117.666 64 198.999c0 80 -21.333 145.333 -64 196c-43.333 51.333 -102.666 77 -177.999 77h-169v-231h213v-86h-213v-232z" />
    <glyph glyph-name="Ntilde" unicode="&#xd1;" horiz-adv-x="780" 
d="M267 800l-61.999 29c8.66699 30 23.5 53.5 44.5 70.5s45.5 25.5 73.5 25.5c22 0 47.333 -7.33301 76 -22c29.333 -14.667 50.666 -22 63.999 -22c24.667 0 44 15 58 45l60 -28c-8 -30 -22.333 -53.5 -43 -70.5s-45 -25.5 -73 -25.5c-21.333 0 -46.333 7.33301 -75 22
c-29.333 15.333 -50.333 23 -63 23c-24.667 0 -44.667 -15.667 -60 -47zM588.001 212v527h99v-739h-52l-443 524v-524h-99v739h45z" />
    <glyph glyph-name="Ograve" unicode="&#xd2;" horiz-adv-x="855" 
d="M425 962l60 -168h-84l-94 168h118zM45 365c0 108 37.333 199.333 112 274c75.333 75.333 165.333 113 270 113s194.667 -37.667 270 -113s113 -165.333 113 -270s-37.667 -194.667 -113 -270c-75.333 -74 -166.333 -111 -273 -111c-107.333 0 -197.333 36.333 -270 109
s-109 162 -109 268zM706 368c0 81.333 -27 149.332 -81 203.999s-120 82 -198 82c-77.333 0 -143 -27.667 -197 -83s-81 -123 -81 -203c0 -79.333 26.667 -146.666 80 -201.999c52.667 -54 118.667 -81 198 -81s145.333 27 198 81c54 54 81 121.333 81 202z" />
    <glyph glyph-name="Oacute" unicode="&#xd3;" horiz-adv-x="855" 
d="M466 793h-84l59 168h118zM45 365c0 108 37.333 199.333 112 274c75.333 75.333 165.333 113 270 113s194.667 -37.667 270 -113s113 -165.333 113 -270s-37.667 -194.667 -113 -270c-75.333 -74 -166.333 -111 -273 -111c-107.333 0 -197.333 36.333 -270 109
s-109 162 -109 268zM706 368c0 81.333 -27 149.332 -81 203.999s-120 82 -198 82c-77.333 0 -143 -27.667 -197 -83s-81 -123 -81 -203c0 -79.333 26.667 -146.666 80 -201.999c52.667 -54 118.667 -81 198 -81s145.333 27 198 81c54 54 81 121.333 81 202z" />
    <glyph glyph-name="Ocircumflex" unicode="&#xd4;" horiz-adv-x="855" 
d="M355 792h-103l141 165h69l141 -165h-104l-72 91zM45 365c0 108 37.333 199.333 112 274c75.333 75.333 165.333 113 270 113s194.667 -37.667 270 -113s113 -165.333 113 -270s-37.667 -194.667 -113 -270c-75.333 -74 -166.333 -111 -273 -111
c-107.333 0 -197.333 36.333 -270 109s-109 162 -109 268zM706 368c0 81.333 -27 149.332 -81 203.999s-120 82 -198 82c-77.333 0 -143 -27.667 -197 -83s-81 -123 -81 -203c0 -79.333 26.667 -146.666 80 -201.999c52.667 -54 118.667 -81 198 -81s145.333 27 198 81
c54 54 81 121.333 81 202z" />
    <glyph glyph-name="Otilde" unicode="&#xd5;" horiz-adv-x="855" 
d="M306 800l-61.999 29c8.66699 30 23.5 53.5 44.5 70.5s45.5 25.5 73.5 25.5c22 0 47.333 -7.33301 76 -22c29.333 -14.667 50.666 -22 63.999 -22c24.667 0 44 15 58 45l60 -28c-8 -30 -22.333 -53.5 -43 -70.5s-45 -25.5 -73 -25.5c-21.333 0 -46.333 7.33301 -75 22
c-29.333 15.333 -50.333 23 -63 23c-24.667 0 -44.667 -15.667 -60 -47zM45.001 365c0 108 37.333 199.333 112 274c75.333 75.333 165.333 113 270 113s194.667 -37.667 270 -113s113 -165.333 113 -270s-37.667 -194.667 -113 -270c-75.333 -74 -166.333 -111 -273 -111
c-107.333 0 -197.333 36.333 -270 109s-109 162 -109 268zM706.001 368c0 81.333 -27 149.332 -81 203.999s-120 82 -198 82c-77.333 0 -143 -27.667 -197 -83s-81 -123 -81 -203c0 -79.333 26.667 -146.666 80 -201.999c52.667 -54 118.667 -81 198 -81s145.333 27 198 81
c54 54 81 121.333 81 202z" />
    <glyph glyph-name="Odieresis" unicode="&#xd6;" horiz-adv-x="855" 
d="M345 806c-18 0 -33.167 6 -45.5 18s-18.5 27 -18.5 45c0 16.667 6.16699 30.834 18.5 42.501s27.5 17.5 45.5 17.5c16.667 0 30.834 -5.83301 42.501 -17.5s17.5 -25.834 17.5 -42.501c0 -18 -5.83301 -33 -17.5 -45s-25.834 -18 -42.501 -18zM524 806
c-18 0 -32.999 6 -44.999 18s-18 27 -18 45c0 16.667 6.16699 30.834 18.5 42.501s27.166 17.5 44.499 17.5s31.833 -5.83301 43.5 -17.5s17.5 -25.834 17.5 -42.501c0 -18 -5.83301 -33 -17.5 -45s-26.167 -18 -43.5 -18zM45.001 365c0 108 37.333 199.333 112 274
c75.333 75.333 165.333 113 270 113s194.667 -37.667 270 -113s113 -165.333 113 -270s-37.667 -194.667 -113 -270c-75.333 -74 -166.333 -111 -273 -111c-107.333 0 -197.333 36.333 -270 109s-109 162 -109 268zM706.001 368c0 81.333 -27 149.332 -81 203.999
s-120 82 -198 82c-77.333 0 -143 -27.667 -197 -83s-81 -123 -81 -203c0 -79.333 26.667 -146.666 80 -201.999c52.667 -54 118.667 -81 198 -81s145.333 27 198 81c54 54 81 121.333 81 202z" />
    <glyph glyph-name="multiply" unicode="&#xd7;" horiz-adv-x="519" 
d="M406 545l59 -57l-148 -149l148 -148l-57 -60l-149 150l-149 -150l-57 60l148 148l-147 147l56 59l148 -148z" />
    <glyph glyph-name="Oslash" unicode="&#xd8;" horiz-adv-x="855" 
d="M743 742l-61 -86.9971c40.667 -36.667 72.167 -79.834 94.5 -129.501s33.5 -101.834 33.5 -156.501c0 -104.667 -37.667 -194.667 -113 -270c-75.333 -74 -166.333 -111 -273 -111c-65.333 0 -125.666 14.667 -180.999 44l-56 -79l-65 45l55 78
c-88 75.333 -132 171.666 -132 288.999c0 108 37.333 199.333 112 274c75.333 75.333 165.333 113 270 113c67.333 0 130.666 -17 189.999 -51l61 86zM149 368.003c0 -84 29 -153.333 87 -208l325 461c-42 22 -86.667 33 -134 33c-77.333 0 -143 -27.667 -197 -83
s-81 -123 -81 -203zM427 85.0029c79.333 0 145.333 27 198 81c54 54 81 121.333 81 202c0 82 -27.333 150.333 -82 205l-323 -459c37.333 -19.333 79.333 -29 126 -29z" />
    <glyph glyph-name="Ugrave" unicode="&#xd9;" horiz-adv-x="706" 
d="M344 962l60 -168h-84l-94 168h118zM85 249l0.00292969 490h100v-472c0 -58.667 14.667 -103.667 44 -135s70.666 -47 123.999 -47c52.667 0 93.667 16 123 48s44 76.667 44 134v472h101v-490c0 -80.667 -24.667 -144.667 -74 -192
c-48.667 -46.667 -113.334 -70 -194.001 -70s-145.334 23.333 -194.001 70c-49.333 47.333 -74 111.333 -74 192z" />
    <glyph glyph-name="Uacute" unicode="&#xda;" horiz-adv-x="706" 
d="M391 793h-84l59 168h118zM85 249l0.00292969 490h100v-472c0 -58.667 14.667 -103.667 44 -135s70.666 -47 123.999 -47c52.667 0 93.667 16 123 48s44 76.667 44 134v472h101v-490c0 -80.667 -24.667 -144.667 -74 -192c-48.667 -46.667 -113.334 -70 -194.001 -70
s-145.334 23.333 -194.001 70c-49.333 47.333 -74 111.333 -74 192z" />
    <glyph glyph-name="Ucircumflex" unicode="&#xdb;" horiz-adv-x="706" 
d="M281 792h-103l141 165h69l141 -165h-104l-72 91zM85 249l0.00292969 490h100v-472c0 -58.667 14.667 -103.667 44 -135s70.666 -47 123.999 -47c52.667 0 93.667 16 123 48s44 76.667 44 134v472h101v-490c0 -80.667 -24.667 -144.667 -74 -192
c-48.667 -46.667 -113.334 -70 -194.001 -70s-145.334 23.333 -194.001 70c-49.333 47.333 -74 111.333 -74 192z" />
    <glyph glyph-name="Udieresis" unicode="&#xdc;" horiz-adv-x="706" 
d="M265 806c-18 0 -33.167 6 -45.5 18s-18.5 27 -18.5 45c0 16.667 6.16699 30.834 18.5 42.501s27.5 17.5 45.5 17.5c16.667 0 30.834 -5.83301 42.501 -17.5s17.5 -25.834 17.5 -42.501c0 -18 -5.83301 -33 -17.5 -45s-25.834 -18 -42.501 -18zM444 806
c-18 0 -32.999 6 -44.999 18s-18 27 -18 45c0 16.667 6.16699 30.834 18.5 42.501s27.166 17.5 44.499 17.5s31.833 -5.83301 43.5 -17.5s17.5 -25.834 17.5 -42.501c0 -18 -5.83301 -33 -17.5 -45s-26.167 -18 -43.5 -18zM85.001 249l0.00292969 490h100v-472
c0 -58.667 14.667 -103.667 44 -135s70.666 -47 123.999 -47c52.667 0 93.667 16 123 48s44 76.667 44 134v472h101v-490c0 -80.667 -24.667 -144.667 -74 -192c-48.667 -46.667 -113.334 -70 -194.001 -70s-145.334 23.333 -194.001 70c-49.333 47.333 -74 111.333 -74 192
z" />
    <glyph glyph-name="Yacute" unicode="&#xdd;" horiz-adv-x="639" 
d="M354 793h-84l59 168h118zM511 739h111l-253 -473v-266h-100v266l-250 473h111l189 -374z" />
    <glyph glyph-name="Thorn" unicode="&#xde;" horiz-adv-x="622" 
d="M193 609h149c76.667 0 135.667 -22.667 177 -68c40.667 -44.667 61 -98 61 -160c0 -63.333 -21.333 -117.333 -64 -162c-42.667 -44 -104 -66 -184 -66h-139v-153h-100v739h100v-130zM193 246h141c46 0 81.833 13 107.5 39s38.5 58.667 38.5 98
c0 37.333 -11.833 68.5 -35.5 93.5s-56.167 37.5 -97.5 37.5h-154v-268z" />
    <glyph glyph-name="germandbls" unicode="&#xdf;" horiz-adv-x="643" 
d="M474 395c38.667 -14.667 69.668 -39 93.001 -73s35 -73 35 -117c0 -65.333 -24.333 -119 -73 -161s-108.667 -63 -180 -63c-42.667 0 -83 7.66699 -121 23l24 85c24 -11.333 55.667 -17 95 -17c47.333 0 85.666 14 114.999 42c28.667 28 43 61 43 99
c0 41.333 -17 74.333 -51 99s-78.333 37 -133 37v80c44 0 80 12.833 108 38.5s42 57.834 42 96.501c0 37.333 -12.667 67.5 -38 90.5s-58 34.5 -98 34.5c-50 0 -89.667 -19.5 -119 -58.5s-44 -93.833 -44 -164.5v-643h-98v667c0 93.333 25.333 164.333 76 213
c51.333 49.333 114 74 188 74c68 0 123.333 -19.667 166 -59c42.667 -38.667 64 -88.334 64 -149.001c0 -37.333 -8.33301 -71.333 -25 -102s-39.667 -54.667 -69 -72z" />
    <glyph glyph-name="agrave" unicode="&#xe0;" horiz-adv-x="665" 
d="M314 790l59 -167h-83l-93 167h117zM498 458v77.999h92v-536h-92v76c-48 -59.333 -111 -89 -189 -89c-77.333 0 -141.333 27.333 -192 82s-76 122.334 -76 203.001s25.333 146.667 76 198c50.667 52.667 114.667 79 192 79c76 0 139 -30.333 189 -91zM504 268.999
c0 54 -17 99.333 -51 136c-34 37.333 -78.333 56 -133 56s-98.667 -18.667 -132 -56s-50 -83 -50 -137s16.667 -99.667 50 -137s77.333 -56 132 -56s99 18.667 133 56c34 36.667 51 82.667 51 138z" />
    <glyph glyph-name="aacute" unicode="&#xe1;" horiz-adv-x="665" 
d="M346 790h117l-93 -167h-83zM498 458v77.999h92v-536h-92v76c-48 -59.333 -111 -89 -189 -89c-77.333 0 -141.333 27.333 -192 82s-76 122.334 -76 203.001s25.333 146.667 76 198c50.667 52.667 114.667 79 192 79c76 0 139 -30.333 189 -91zM504 268.999
c0 54 -17 99.333 -51 136c-34 37.333 -78.333 56 -133 56s-98.667 -18.667 -132 -56s-50 -83 -50 -137s16.667 -99.667 50 -137s77.333 -56 132 -56s99 18.667 133 56c34 36.667 51 82.667 51 138z" />
    <glyph glyph-name="acircumflex" unicode="&#xe2;" horiz-adv-x="665" 
d="M400 621l-72 90l-72 -90h-102l140 164h69l140 -164h-103zM498 458v77.999h92v-536h-92v76c-48 -59.333 -111 -89 -189 -89c-77.333 0 -141.333 27.333 -192 82s-76 122.334 -76 203.001s25.333 146.667 76 198c50.667 52.667 114.667 79 192 79c76 0 139 -30.333 189 -91
zM504 268.999c0 54 -17 99.333 -51 136c-34 37.333 -78.333 56 -133 56s-98.667 -18.667 -132 -56s-50 -83 -50 -137s16.667 -99.667 50 -137s77.333 -56 132 -56s99 18.667 133 56c34 36.667 51 82.667 51 138z" />
    <glyph glyph-name="atilde" unicode="&#xe3;" horiz-adv-x="665" 
d="M262 678c-24 0 -43.667 -15.667 -59 -47l-62 29c8.66699 30 23.5 53.5 44.5 70.5s45.5 25.5 73.5 25.5c22 0 47.333 -7.33301 76 -22s49.667 -22 63 -22c24.667 0 44 15 58 45l60 -28c-8 -30 -22.333 -53.5 -43 -70.5s-45 -25.5 -73 -25.5
c-21.333 0 -46.333 7.33301 -75 22c-29.333 15.333 -50.333 23 -63 23zM498 458v77.999h92v-536h-92v76c-48 -59.333 -111 -89 -189 -89c-77.333 0 -141.333 27.333 -192 82s-76 122.334 -76 203.001s25.333 146.667 76 198c50.667 52.667 114.667 79 192 79
c76 0 139 -30.333 189 -91zM504 268.999c0 54 -17 99.333 -51 136c-34 37.333 -78.333 56 -133 56s-98.667 -18.667 -132 -56s-50 -83 -50 -137s16.667 -99.667 50 -137s77.333 -56 132 -56s99 18.667 133 56c34 36.667 51 82.667 51 138z" />
    <glyph glyph-name="adieresis" unicode="&#xe4;" horiz-adv-x="665" 
d="M232 618c-20 0 -36.667 6.5 -50 19.5s-20 29.833 -20 50.5c0 18.667 6.66699 34.334 20 47.001s30 19 50 19c18.667 0 34.5 -6.33301 47.5 -19s19.5 -28.334 19.5 -47.001c0 -20 -6.5 -36.667 -19.5 -50s-28.833 -20 -47.5 -20zM430 618
c-20 0 -36.499 6.66699 -49.499 20s-19.5 30 -19.5 50c0 18.667 6.66699 34.334 20 47.001s29.666 19 48.999 19s35.5 -6.33301 48.5 -19s19.5 -28.334 19.5 -47.001c0 -20 -6.5 -36.667 -19.5 -50s-29.167 -20 -48.5 -20zM498.001 458v77.999h92v-536h-92v76
c-48 -59.333 -111 -89 -189 -89c-77.333 0 -141.333 27.333 -192 82s-76 122.334 -76 203.001s25.333 146.667 76 198c50.667 52.667 114.667 79 192 79c76 0 139 -30.333 189 -91zM504.001 268.999c0 54 -17 99.333 -51 136c-34 37.333 -78.333 56 -133 56
s-98.667 -18.667 -132 -56s-50 -83 -50 -137s16.667 -99.667 50 -137s77.333 -56 132 -56s99 18.667 133 56c34 36.667 51 82.667 51 138z" />
    <glyph glyph-name="aring" unicode="&#xe5;" horiz-adv-x="665" 
d="M412 634c-22.667 -21.333 -50 -32 -82 -32s-59.667 10.667 -83 32c-22.667 22 -34 48.667 -34 80s11.333 58 34 80c23.333 22 51 33 83 33c32.667 0 60 -11 82 -33c22.667 -22 34 -48.667 34 -80s-11.333 -58 -34 -80zM330 768c-15.333 0 -28.333 -5 -39 -15
s-16 -22.333 -16 -37c0 -16 5.33301 -29.167 16 -39.5s23.667 -15.5 39 -15.5c14.667 0 27.167 5.16699 37.5 15.5s15.5 23.5 15.5 39.5c0 14 -5.33301 26.167 -16 36.5s-23 15.5 -37 15.5zM498 458v77.999h92v-536h-92v76c-48 -59.333 -111 -89 -189 -89
c-77.333 0 -141.333 27.333 -192 82s-76 122.334 -76 203.001s25.333 146.667 76 198c50.667 52.667 114.667 79 192 79c76 0 139 -30.333 189 -91zM504 268.999c0 54 -17 99.333 -51 136c-34 37.333 -78.333 56 -133 56s-98.667 -18.667 -132 -56s-50 -83 -50 -137
s16.667 -99.667 50 -137s77.333 -56 132 -56s99 18.667 133 56c34 36.667 51 82.667 51 138z" />
    <glyph glyph-name="ae" unicode="&#xe6;" horiz-adv-x="995" 
d="M957 288c0 -8.66699 -0.995117 -25 -2.99512 -49h-426c6.66699 -48.667 26 -88.167 58 -118.5s73.333 -45.5 124 -45.5c30 0 61.833 5.66699 95.5 17s62.5 26 86.5 44l43 -75c-26.667 -21.333 -60.834 -38.833 -102.501 -52.5s-83.834 -20.5 -126.501 -20.5
c-108 0 -186.333 42 -235 126c-24 -41.333 -56.5 -72.833 -97.5 -94.5s-86.167 -32.5 -135.5 -32.5c-62.667 0 -112.834 16 -150.501 48s-56.5 74 -56.5 126c0 31.333 8 58.5 24 81.5s37.333 39.5 64 49.5c46 17.333 94 26 144 26h163c-14 95.333 -67.667 143 -161 143
c-70.667 0 -126.334 -16.667 -167.001 -50l-44 74c25.333 18.667 58.333 34 99 46c40 12 78 18 114 18c45.333 0 86.833 -9.5 124.5 -28.5s67.167 -46.167 88.5 -81.5c51.333 73.333 126 110 224 110c73.333 0 133.666 -23 180.999 -69c48 -45.333 72 -109.333 72 -192z
M703.005 463c-45.333 0 -83.334 -13 -114.001 -39s-50.334 -61.333 -59.001 -106h331c-3.33301 45.333 -19.666 80.833 -48.999 106.5s-65.666 38.5 -108.999 38.5zM243.004 75c50 0 91.333 15.334 124 46.001c34 31.333 54 70.666 60 117.999h-164c-92 0 -138 -27 -138 -81
c0 -25.333 11 -45.5 33 -60.5s50.333 -22.5 85 -22.5z" />
    <glyph glyph-name="ccedilla" unicode="&#xe7;" horiz-adv-x="599" 
d="M324 76c33.333 0 65.502 9 96.502 27s54.167 41 69.5 69l80 -46c-20.667 -38 -51.167 -69.5 -91.5 -94.5s-84.5 -39.167 -132.5 -42.5l-15 -37h8c29.333 0 53.833 -8.33301 73.5 -25s29.5 -39 29.5 -67c0 -31.333 -11.5 -57.666 -34.5 -78.999s-54.833 -32 -95.5 -32
c-34 0 -72 9.66699 -114 29l25 63c28.667 -14 55.667 -21 81 -21c18 0 32.167 4.16699 42.5 12.5s15.5 18.833 15.5 31.5c0 24 -17.333 36 -52 36h-56l-9 22l28 70c-70 10.667 -126.333 41 -169 91c-42 51.333 -63 113 -63 185c0 81.333 26.667 148.666 80 201.999
c53.333 52.667 122.666 79 207.999 79c52.667 0 101.167 -12.667 145.5 -38s76.833 -59.333 97.5 -102l-79 -46c-18 30.667 -41.5 54.667 -70.5 72s-60.167 26 -93.5 26c-54.667 0 -100.334 -18.333 -137.001 -55c-36 -37.333 -54 -83.333 -54 -138
c0 -54 17.667 -99.667 53 -137c34.667 -36.667 79 -55 133 -55z" />
    <glyph glyph-name="egrave" unicode="&#xe8;" 
d="M299 788l59 -167h-83l-93 167h117zM572 278c0 -6.66699 -0.999023 -23.002 -2.99902 -49.002h-427c8.66699 -47.333 28.667 -84.666 60 -111.999s74 -41 128 -41c32 0 65 5.5 99 16.5s63.333 25.5 88 43.5l41 -73c-28 -21.333 -62.667 -39.166 -104 -53.499
s-83.333 -21.5 -126 -21.5c-48.667 0 -91.834 8 -129.501 24s-67.5 37.667 -89.5 65s-38.667 57.333 -50 90s-17 67 -17 103c0 80 25 146.667 75 200c50.667 52.667 116 79 196 79c76 0 138 -24.333 186 -73c48.667 -48.667 73 -114.667 73 -198zM142.001 311.998h331.001
c-2.66699 46 -18.834 82.833 -48.501 110.5s-66.834 41.5 -111.501 41.5c-43.333 0 -80.666 -14.167 -111.999 -42.5s-51 -64.833 -59 -109.5z" />
    <glyph glyph-name="eacute" unicode="&#xe9;" 
d="M330 790h117l-93 -167h-83zM572 278c0 -6.66699 -0.999023 -23.002 -2.99902 -49.002h-427c8.66699 -47.333 28.667 -84.666 60 -111.999s74 -41 128 -41c32 0 65 5.5 99 16.5s63.333 25.5 88 43.5l41 -73c-28 -21.333 -62.667 -39.166 -104 -53.499
s-83.333 -21.5 -126 -21.5c-48.667 0 -91.834 8 -129.501 24s-67.5 37.667 -89.5 65s-38.667 57.333 -50 90s-17 67 -17 103c0 80 25 146.667 75 200c50.667 52.667 116 79 196 79c76 0 138 -24.333 186 -73c48.667 -48.667 73 -114.667 73 -198zM142.001 311.998h331.001
c-2.66699 46 -18.834 82.833 -48.501 110.5s-66.834 41.5 -111.501 41.5c-43.333 0 -80.666 -14.167 -111.999 -42.5s-51 -64.833 -59 -109.5z" />
    <glyph glyph-name="ecircumflex" unicode="&#xea;" 
d="M388 623l-72 90l-72 -90h-102l140 164h69l140 -164h-103zM572 278c0 -6.66699 -0.999023 -23.002 -2.99902 -49.002h-427c8.66699 -47.333 28.667 -84.666 60 -111.999s74 -41 128 -41c32 0 65 5.5 99 16.5s63.333 25.5 88 43.5l41 -73
c-28 -21.333 -62.667 -39.166 -104 -53.499s-83.333 -21.5 -126 -21.5c-48.667 0 -91.834 8 -129.501 24s-67.5 37.667 -89.5 65s-38.667 57.333 -50 90s-17 67 -17 103c0 80 25 146.667 75 200c50.667 52.667 116 79 196 79c76 0 138 -24.333 186 -73
c48.667 -48.667 73 -114.667 73 -198zM142.001 311.998h331.001c-2.66699 46 -18.834 82.833 -48.501 110.5s-66.834 41.5 -111.501 41.5c-43.333 0 -80.666 -14.167 -111.999 -42.5s-51 -64.833 -59 -109.5z" />
    <glyph glyph-name="edieresis" unicode="&#xeb;" 
d="M227 613c-20 0 -36.667 6.5 -50 19.5s-20 29.833 -20 50.5c0 18.667 6.66699 34.334 20 47.001s30 19 50 19c18.667 0 34.5 -6.33301 47.5 -19s19.5 -28.334 19.5 -47.001c0 -20 -6.5 -36.667 -19.5 -50s-28.833 -20 -47.5 -20zM356 683
c0 18.667 6.66699 34.334 20 47.001s29.666 19 48.999 19s35.5 -6.33301 48.5 -19s19.5 -28.334 19.5 -47.001c0 -20 -6.5 -36.667 -19.5 -50s-29.167 -20 -48.5 -20s-35.666 6.5 -48.999 19.5s-20 29.833 -20 50.5zM572 278c0 -6.66699 -0.999023 -23.002 -2.99902 -49.002
h-427c8.66699 -47.333 28.667 -84.666 60 -111.999s74 -41 128 -41c32 0 65 5.5 99 16.5s63.333 25.5 88 43.5l41 -73c-28 -21.333 -62.667 -39.166 -104 -53.499s-83.333 -21.5 -126 -21.5c-48.667 0 -91.834 8 -129.501 24s-67.5 37.667 -89.5 65s-38.667 57.333 -50 90
s-17 67 -17 103c0 80 25 146.667 75 200c50.667 52.667 116 79 196 79c76 0 138 -24.333 186 -73c48.667 -48.667 73 -114.667 73 -198zM142.001 311.998h331.001c-2.66699 46 -18.834 82.833 -48.501 110.5s-66.834 41.5 -111.501 41.5
c-43.333 0 -80.666 -14.167 -111.999 -42.5s-51 -64.833 -59 -109.5z" />
    <glyph glyph-name="igrave" unicode="&#xec;" horiz-adv-x="245" 
d="M108 788l59 -167h-83l-93 167h117zM170 536v-536h-96v536h96z" />
    <glyph glyph-name="iacute" unicode="&#xed;" horiz-adv-x="244" 
d="M163 623h-83l59 167h117zM170 536v-536h-96v536h96z" />
    <glyph glyph-name="icircumflex" unicode="&#xee;" horiz-adv-x="245" 
d="M49 619h-102l140 164h69l140 -164h-103l-72 90zM170 536v-536h-96v536h96z" />
    <glyph glyph-name="idieresis" unicode="&#xef;" horiz-adv-x="245" 
d="M24 616c-20 0 -36.667 6.5 -50 19.5s-20 29.833 -20 50.5c0 18.667 6.66699 34.334 20 47.001s30 19 50 19c18.667 0 34.5 -6.33301 47.5 -19s19.5 -28.334 19.5 -47.001c0 -20 -6.5 -36.667 -19.5 -50s-28.833 -20 -47.5 -20zM222 616c-20 0 -36.499 6.66699 -49.499 20
s-19.5 30 -19.5 50c0 18.667 6.66699 34.334 20 47.001s29.666 19 48.999 19s35.5 -6.33301 48.5 -19s19.5 -28.334 19.5 -47.001c0 -20 -6.5 -36.667 -19.5 -50s-29.167 -20 -48.5 -20zM170.001 536v-536h-96v536h96z" />
    <glyph glyph-name="eth" unicode="&#xf0;" horiz-adv-x="656" 
d="M575 750l-90.9971 -61c83.333 -107.333 125 -221 125 -341c0 -103.333 -28.333 -189.333 -85 -258s-128.667 -103 -216 -103c-76 0 -139.667 24.667 -191 74c-50 50 -75 112.333 -75 187c0 74 24.667 136.333 74 187c49.333 50 110.666 75 183.999 75
c47.333 0 90.333 -11.833 129 -35.5s67 -54.834 85 -93.501c-2.66699 74.667 -30.334 150.334 -83.001 227.001c-8.66699 12 -16.334 22 -23.001 30l-101 -68l-41 56l96 64c-33.333 34.667 -69 66 -107 94l66 64c44 -34 83.333 -69.333 118 -106l97 65zM310.003 73
c50 0 91.335 17.334 124.002 52.001c34 35.333 51 78 51 128c0 48.667 -17 89.667 -51 123c-33.333 33.333 -74 50 -122 50c-50.667 0 -92.334 -17 -125.001 -51c-32.667 -33.333 -49 -75.333 -49 -126c0 -48.667 16 -90.334 48 -125.001c33.333 -34 74.666 -51 123.999 -51
z" />
    <glyph glyph-name="ntilde" unicode="&#xf1;" horiz-adv-x="618" 
d="M188 626l-62 29c8.66699 30 23.5 53.5 44.5 70.5s45.5 25.5 73.5 25.5c22 0 47.333 -7.33301 76 -22s49.667 -22 63 -22c24.667 0 44 15 58 45l60 -28c-8 -30 -22.333 -53.5 -43 -70.5s-45 -25.5 -73 -25.5c-21.333 0 -46.333 7.33301 -75 22
c-29.333 15.333 -50.333 23 -63 23c-24 0 -43.667 -15.667 -59 -47zM170 0h-96v536h94v-76c34 60 90.667 90 170 90c60 0 110.333 -19.333 151 -58s61 -94.334 61 -167.001v-325h-95v298c0 51.333 -12.5 91.333 -37.5 120s-58.167 43 -99.5 43
c-43.333 0 -79 -15.333 -107 -46c-27.333 -31.333 -41 -70.666 -41 -117.999v-297z" />
    <glyph glyph-name="ograve" unicode="&#xf2;" horiz-adv-x="645" 
d="M309 788l59 -167h-83l-93 167h117zM323 -13c-82 0 -149.668 27 -203.001 81c-52.667 54.667 -79 121.667 -79 201s26.333 145.666 79 198.999c52.667 54.667 120.334 82 203.001 82c81.333 0 148.333 -27.333 201 -82c53.333 -55.333 80 -121.666 80 -198.999
c0 -78.667 -26.667 -145.667 -80 -201c-53.333 -54 -120.333 -81 -201 -81zM507.999 269c0 52.667 -18 97.667 -54 135c-36 38 -79.667 57 -131 57s-95 -19 -131 -57c-36 -37.333 -54 -82.333 -54 -135c0 -53.333 18 -99 54 -137s79.667 -57 131 -57s95 19 131 57
s54 83.667 54 137z" />
    <glyph glyph-name="oacute" unicode="&#xf3;" horiz-adv-x="645" 
d="M355 623h-83l59 167h117zM323 -13c-82 0 -149.668 27 -203.001 81c-52.667 54.667 -79 121.667 -79 201s26.333 145.666 79 198.999c52.667 54.667 120.334 82 203.001 82c81.333 0 148.333 -27.333 201 -82c53.333 -55.333 80 -121.666 80 -198.999
c0 -78.667 -26.667 -145.667 -80 -201c-53.333 -54 -120.333 -81 -201 -81zM507.999 269c0 52.667 -18 97.667 -54 135c-36 38 -79.667 57 -131 57s-95 -19 -131 -57c-36 -37.333 -54 -82.333 -54 -135c0 -53.333 18 -99 54 -137s79.667 -57 131 -57s95 19 131 57
s54 83.667 54 137z" />
    <glyph glyph-name="ocircumflex" unicode="&#xf4;" horiz-adv-x="645" 
d="M252 625h-102l140 164h69l140 -164h-103l-72 90zM323 -13c-82 0 -149.668 27 -203.001 81c-52.667 54.667 -79 121.667 -79 201s26.333 145.666 79 198.999c52.667 54.667 120.334 82 203.001 82c81.333 0 148.333 -27.333 201 -82
c53.333 -55.333 80 -121.666 80 -198.999c0 -78.667 -26.667 -145.667 -80 -201c-53.333 -54 -120.333 -81 -201 -81zM507.999 269c0 52.667 -18 97.667 -54 135c-36 38 -79.667 57 -131 57s-95 -19 -131 -57c-36 -37.333 -54 -82.333 -54 -135c0 -53.333 18 -99 54 -137
s79.667 -57 131 -57s95 19 131 57s54 83.667 54 137z" />
    <glyph glyph-name="otilde" unicode="&#xf5;" horiz-adv-x="645" 
d="M198 629l-62 29c8.66699 30 23.5 53.5 44.5 70.5s45.5 25.5 73.5 25.5c22 0 47.333 -7.33301 76 -22s49.667 -22 63 -22c24.667 0 44 15 58 45l60 -28c-8 -30 -22.333 -53.5 -43 -70.5s-45 -25.5 -73 -25.5c-21.333 0 -46.333 7.33301 -75 22
c-29.333 15.333 -50.333 23 -63 23c-24 0 -43.667 -15.667 -59 -47zM323 -13c-82 0 -149.668 27 -203.001 81c-52.667 54.667 -79 121.667 -79 201s26.333 145.666 79 198.999c52.667 54.667 120.334 82 203.001 82c81.333 0 148.333 -27.333 201 -82
c53.333 -55.333 80 -121.666 80 -198.999c0 -78.667 -26.667 -145.667 -80 -201c-53.333 -54 -120.333 -81 -201 -81zM507.999 269c0 52.667 -18 97.667 -54 135c-36 38 -79.667 57 -131 57s-95 -19 -131 -57c-36 -37.333 -54 -82.333 -54 -135c0 -53.333 18 -99 54 -137
s79.667 -57 131 -57s95 19 131 57s54 83.667 54 137z" />
    <glyph glyph-name="odieresis" unicode="&#xf6;" horiz-adv-x="645" 
d="M226 616c-20 0 -36.667 6.5 -50 19.5s-20 29.833 -20 50.5c0 18.667 6.66699 34.334 20 47.001s30 19 50 19c18.667 0 34.5 -6.33301 47.5 -19s19.5 -28.334 19.5 -47.001c0 -20 -6.5 -36.667 -19.5 -50s-28.833 -20 -47.5 -20zM424 616
c-20 0 -36.499 6.66699 -49.499 20s-19.5 30 -19.5 50c0 18.667 6.66699 34.334 20 47.001s29.666 19 48.999 19s35.5 -6.33301 48.5 -19s19.5 -28.334 19.5 -47.001c0 -20 -6.5 -36.667 -19.5 -50s-29.167 -20 -48.5 -20zM323.001 -13c-82 0 -149.668 27 -203.001 81
c-52.667 54.667 -79 121.667 -79 201s26.333 145.666 79 198.999c52.667 54.667 120.334 82 203.001 82c81.333 0 148.333 -27.333 201 -82c53.333 -55.333 80 -121.666 80 -198.999c0 -78.667 -26.667 -145.667 -80 -201c-53.333 -54 -120.333 -81 -201 -81zM508 269
c0 52.667 -18 97.667 -54 135c-36 38 -79.667 57 -131 57s-95 -19 -131 -57c-36 -37.333 -54 -82.333 -54 -135c0 -53.333 18 -99 54 -137s79.667 -57 131 -57s95 19 131 57s54 83.667 54 137z" />
    <glyph glyph-name="divide" unicode="&#xf7;" horiz-adv-x="550" 
d="M211 504c0 17.333 6 31.833 18 43.5s27 17.5 45 17.5s33.167 -5.83301 45.5 -17.5s18.5 -26.167 18.5 -43.5c0 -18.667 -6.16699 -34.167 -18.5 -46.5s-27.5 -18.5 -45.5 -18.5s-33 6.16699 -45 18.5s-18 27.833 -18 46.5zM499 286h-447v86h447v-86zM211 157
c0 17.333 6 31.833 18 43.5s27 17.5 45 17.5s33.167 -5.83301 45.5 -17.5s18.5 -26.167 18.5 -43.5c0 -18.667 -6.16699 -34.167 -18.5 -46.5s-27.5 -18.5 -45.5 -18.5s-33 6.16699 -45 18.5s-18 27.833 -18 46.5z" />
    <glyph glyph-name="oslash" unicode="&#xf8;" horiz-adv-x="645" 
d="M562 556l-52.001 -75c62.667 -54 94 -124.667 94 -212c0 -78.667 -26.667 -145.667 -80 -201c-53.333 -54 -120.333 -81 -201 -81c-49.333 0 -93.666 10.333 -132.999 31l-54 -78l-54 37l53 77c-62.667 54.667 -94 126.334 -94 215.001
c0 79.333 26.333 145.666 79 198.999c52.667 54.667 120.334 82 203.001 82c49.333 0 93.666 -10.333 132.999 -31l50 73zM137.999 269c0 -52.667 17.334 -97.667 52.001 -135l213 308c-24.667 12.667 -51.334 19 -80.001 19c-51.333 0 -95 -19 -131 -57
c-36 -37.333 -54 -82.333 -54 -135zM323 75c51.333 0 94.999 19 130.999 57s54 83.667 54 137c0 52 -17.333 96.667 -52 134l-213 -309c24.667 -12.667 51.334 -19 80.001 -19z" />
    <glyph glyph-name="ugrave" unicode="&#xf9;" horiz-adv-x="595" 
d="M291 790l59 -167h-83l-93 167h117zM297 -13c-70 0 -125.833 20.667 -167.5 62s-62.5 97 -62.5 167v320h96v-317c0 -44 11.833 -78.833 35.5 -104.5s56.5 -38.5 98.5 -38.5s75 12.833 99 38.5s36 60.5 36 104.5v317h95v-320c0 -71.333 -20.5 -127.333 -61.5 -168
s-97.167 -61 -168.5 -61z" />
    <glyph glyph-name="uacute" unicode="&#xfa;" horiz-adv-x="595" 
d="M335 623h-83l59 167h117zM297 -13c-70 0 -125.833 20.667 -167.5 62s-62.5 97 -62.5 167v320h96v-317c0 -44 11.833 -78.833 35.5 -104.5s56.5 -38.5 98.5 -38.5s75 12.833 99 38.5s36 60.5 36 104.5v317h95v-320c0 -71.333 -20.5 -127.333 -61.5 -168
s-97.167 -61 -168.5 -61z" />
    <glyph glyph-name="ucircumflex" unicode="&#xfb;" horiz-adv-x="595" 
d="M226 620h-102l140 164h69l140 -164h-103l-72 90zM297 -13c-70 0 -125.833 20.667 -167.5 62s-62.5 97 -62.5 167v320h96v-317c0 -44 11.833 -78.833 35.5 -104.5s56.5 -38.5 98.5 -38.5s75 12.833 99 38.5s36 60.5 36 104.5v317h95v-320
c0 -71.333 -20.5 -127.333 -61.5 -168s-97.167 -61 -168.5 -61z" />
    <glyph glyph-name="udieresis" unicode="&#xfc;" horiz-adv-x="595" 
d="M199 616c-20 0 -36.667 6.5 -50 19.5s-20 29.833 -20 50.5c0 18.667 6.66699 34.334 20 47.001s30 19 50 19c18.667 0 34.5 -6.33301 47.5 -19s19.5 -28.334 19.5 -47.001c0 -20 -6.5 -36.667 -19.5 -50s-28.833 -20 -47.5 -20zM328 686
c0 18.667 6.66699 34.334 20 47.001s29.666 19 48.999 19s35.5 -6.33301 48.5 -19s19.5 -28.334 19.5 -47.001c0 -20 -6.5 -36.667 -19.5 -50s-29.167 -20 -48.5 -20s-35.666 6.66699 -48.999 20s-20 30 -20 50zM297 -13c-70 0 -125.833 20.667 -167.5 62
s-62.5 97 -62.5 167v320h96v-317c0 -44 11.833 -78.833 35.5 -104.5s56.5 -38.5 98.5 -38.5s75 12.833 99 38.5s36 60.5 36 104.5v317h95v-320c0 -71.333 -20.5 -127.333 -61.5 -168s-97.167 -61 -168.5 -61z" />
    <glyph glyph-name="yacute" unicode="&#xfd;" horiz-adv-x="555" 
d="M291 788h117l-93 -167h-83zM290 134l144.001 401.999h106l-225 -596c-22 -59.333 -47.833 -102.166 -77.5 -128.499s-65.834 -39.5 -108.501 -39.5c-34 0 -62.667 7 -86 21l12 84c24 -10.667 45.667 -16 65 -16c44 0 79.333 31.333 106 94l20 47l-233 534h111z" />
    <glyph glyph-name="thorn" unicode="&#xfe;" horiz-adv-x="668" 
d="M355 549c79.333 0 144.332 -27.333 194.999 -82c51.333 -54.667 77 -120.667 77 -198c0 -78.667 -25.667 -145.667 -77 -201c-50.667 -54 -115.667 -81 -195 -81c-73.333 0 -135 29.667 -185 89v-297h-96v978h96v-298c50.667 60 112.334 90 185.001 90zM347.999 75
c54 0 98 18.667 132 56c34 36.667 51 82.667 51 138c0 54 -17 99.333 -51 136c-34 37.333 -78 56 -132 56c-54.667 0 -99 -18.667 -133 -56c-34 -36.667 -51 -82 -51 -136c0 -54.667 16.667 -100.667 50 -138c34 -37.333 78.667 -56 134 -56z" />
    <glyph glyph-name="ydieresis" unicode="&#xff;" horiz-adv-x="555" 
d="M184 616c-20 0 -36.667 6.5 -50 19.5s-20 29.833 -20 50.5c0 18.667 6.66699 34.334 20 47.001s30 19 50 19c18.667 0 34.5 -6.33301 47.5 -19s19.5 -28.334 19.5 -47.001c0 -20 -6.5 -36.667 -19.5 -50s-28.833 -20 -47.5 -20zM382 616
c-20 0 -36.499 6.66699 -49.499 20s-19.5 30 -19.5 50c0 18.667 6.66699 34.334 20 47.001s29.666 19 48.999 19s35.5 -6.33301 48.5 -19s19.5 -28.334 19.5 -47.001c0 -20 -6.5 -36.667 -19.5 -50s-29.167 -20 -48.5 -20zM290.001 134l144.001 401.999h106l-225 -596
c-22 -59.333 -47.833 -102.166 -77.5 -128.499s-65.834 -39.5 -108.501 -39.5c-34 0 -62.667 7 -86 21l12 84c24 -10.667 45.667 -16 65 -16c44 0 79.333 31.333 106 94l20 47l-233 534h111z" />
    <glyph glyph-name="Amacron" unicode="&#x100;" horiz-adv-x="674" 
d="M168 897h339v-85l-339 -1v86zM661 0h-109l-75 192h-281l-75 -192h-109l299 739h54zM443 286l-106 279l-107 -279h213z" />
    <glyph glyph-name="amacron" unicode="&#x101;" horiz-adv-x="665" 
d="M175 723h307v-85l-307 -1v86zM498 458v77.999h92v-536h-92v76c-48 -59.333 -111 -89 -189 -89c-77.333 0 -141.333 27.333 -192 82s-76 122.334 -76 203.001s25.333 146.667 76 198c50.667 52.667 114.667 79 192 79c76 0 139 -30.333 189 -91zM504 268.999
c0 54 -17 99.333 -51 136c-34 37.333 -78.333 56 -133 56s-98.667 -18.667 -132 -56s-50 -83 -50 -137s16.667 -99.667 50 -137s77.333 -56 132 -56s99 18.667 133 56c34 36.667 51 82.667 51 138z" />
    <glyph glyph-name="Abreve" unicode="&#x102;" horiz-adv-x="674" 
d="M338 785c-52 0 -93.834 15.667 -125.501 47s-48.167 73.666 -49.5 126.999h83c0.666992 -31.333 9.16699 -55.833 25.5 -73.5s38.5 -26.5 66.5 -26.5s50.333 8.83301 67 26.5s25.334 42.167 26.001 73.5h83c-0.666992 -53.333 -17 -95.666 -49 -126.999
s-74.333 -47 -127 -47zM660.999 0h-109l-75 192h-281l-75 -192h-109l299 739h54zM442.999 286l-106 279l-107 -279h213z" />
    <glyph glyph-name="abreve" unicode="&#x103;" horiz-adv-x="665" 
d="M155 790h82.001c0.666992 -31.333 9.16699 -55.666 25.5 -72.999s38.5 -26 66.5 -26s50.167 8.66699 66.5 26s24.833 41.666 25.5 72.999h83c-1.33301 -53.333 -18 -95.333 -50 -126c-32.667 -31.333 -74.334 -47 -125.001 -47c-51.333 0 -92.833 15.667 -124.5 47
s-48.167 73.333 -49.5 126zM498.001 458v77.999h92v-536h-92v76c-48 -59.333 -111 -89 -189 -89c-77.333 0 -141.333 27.333 -192 82s-76 122.334 -76 203.001s25.333 146.667 76 198c50.667 52.667 114.667 79 192 79c76 0 139 -30.333 189 -91zM504.001 268.999
c0 54 -17 99.333 -51 136c-34 37.333 -78.333 56 -133 56s-98.667 -18.667 -132 -56s-50 -83 -50 -137s16.667 -99.667 50 -137s77.333 -56 132 -56s99 18.667 133 56c34 36.667 51 82.667 51 138z" />
    <glyph glyph-name="Aogonek" unicode="&#x104;" horiz-adv-x="672" 
d="M639 -163l37 -67.999c-30.667 -19.333 -62.334 -29 -95.001 -29c-35.333 0 -63.666 10.333 -84.999 31s-32 47 -32 79c0 58 35.333 108 106 150h-18l-75 192h-281l-75 -192h-109l299 739h54l296 -739c-32.667 -14 -59.334 -32.833 -80.001 -56.5s-31 -46.834 -31 -69.501
c0 -14.667 4.33301 -26.5 13 -35.5s20.334 -13.5 35.001 -13.5c13.333 0 27 4 41 12zM443 286.001l-106 279l-107 -279h213z" />
    <glyph glyph-name="aogonek" unicode="&#x105;" horiz-adv-x="662" 
d="M569 -163l37 -68c-30.667 -19.333 -62.334 -29 -95.001 -29c-35.333 0 -63.666 10.333 -84.999 31s-32 47 -32 79c0 58 35.333 108 106 150h-2v76c-48 -59.333 -111 -89 -189 -89c-77.333 0 -141.333 27.333 -192 82s-76 122.334 -76 203.001s25.333 146.667 76 198
c50.667 52.667 114.667 79 192 79c76 0 139 -30.333 189 -91v78h92v-536h1c-32.667 -14 -59.334 -32.833 -80.001 -56.5s-31 -46.834 -31 -69.501c0 -14.667 4.33301 -26.5 13 -35.5s20.334 -13.5 35.001 -13.5c13.333 0 27 4 41 12zM504 269c0 54 -17 99.333 -51 136
c-34 37.333 -78.333 56 -133 56s-98.667 -18.667 -132 -56s-50 -83 -50 -137s16.667 -99.667 50 -137s77.333 -56 132 -56s99 18.667 133 56c34 36.667 51 82.667 51 138z" />
    <glyph glyph-name="Cacute" unicode="&#x106;" horiz-adv-x="776" 
d="M478 793h-84l59 168h118zM426 -11c-106.667 0 -196.667 35.332 -270 105.999c-73.333 71.333 -110 162 -110 272c0 112 37.333 204 112 276c74.667 72.667 165 109 271 109c67.333 0 129.333 -15 186 -45c56.667 -28.667 101 -67.667 133 -117l-74 -62
c-62.667 84.667 -143.667 127 -243 127c-78.667 0 -145.334 -27.333 -200.001 -82s-82 -123.667 -82 -207c0 -81.333 26.667 -148.666 80 -201.999c53.333 -52.667 120.333 -79 201 -79c49.333 0 95.333 11 138 33s79.334 52.667 110.001 92l72 -61
c-35.333 -49.333 -81.5 -88.333 -138.5 -117s-118.833 -43 -185.5 -43z" />
    <glyph glyph-name="cacute" unicode="&#x107;" horiz-adv-x="599" 
d="M365 623h-83l59 167h117zM324 -12c-83.333 0 -151.331 26.334 -203.998 79.001s-79 119.667 -79 201s26.667 148.666 80 201.999c53.333 52.667 122.666 79 207.999 79c52.667 0 101.167 -12.667 145.5 -38s76.833 -59.333 97.5 -102l-79 -46
c-18 30.667 -41.5 54.667 -70.5 72s-60.167 26 -93.5 26c-54.667 0 -100.334 -18.333 -137.001 -55c-36 -37.333 -54 -83.333 -54 -138c0 -54 17.667 -99.667 53 -137c34.667 -36.667 79 -55 133 -55c33.333 0 65.5 9 96.5 27s54.167 41 69.5 69l80 -46
c-22.667 -42 -56 -75.333 -100 -100c-45.333 -25.333 -94 -38 -146 -38z" />
    <glyph glyph-name="Ccircumflex" unicode="&#x108;" horiz-adv-x="776" 
d="M350 792h-103l141 165h69l141 -165h-104l-72 91zM426 -11c-106.667 0 -196.667 35.332 -270 105.999c-73.333 71.333 -110 162 -110 272c0 112 37.333 204 112 276c74.667 72.667 165 109 271 109c67.333 0 129.333 -15 186 -45c56.667 -28.667 101 -67.667 133 -117
l-74 -62c-62.667 84.667 -143.667 127 -243 127c-78.667 0 -145.334 -27.333 -200.001 -82s-82 -123.667 -82 -207c0 -81.333 26.667 -148.666 80 -201.999c53.333 -52.667 120.333 -79 201 -79c49.333 0 95.333 11 138 33s79.334 52.667 110.001 92l72 -61
c-35.333 -49.333 -81.5 -88.333 -138.5 -117s-118.833 -43 -185.5 -43z" />
    <glyph glyph-name="ccircumflex" unicode="&#x109;" horiz-adv-x="599" 
d="M252 622h-102l140 164h69l140 -164h-103l-72 90zM324 -12c-83.333 0 -151.331 26.334 -203.998 79.001s-79 119.667 -79 201s26.667 148.666 80 201.999c53.333 52.667 122.666 79 207.999 79c52.667 0 101.167 -12.667 145.5 -38s76.833 -59.333 97.5 -102l-79 -46
c-18 30.667 -41.5 54.667 -70.5 72s-60.167 26 -93.5 26c-54.667 0 -100.334 -18.333 -137.001 -55c-36 -37.333 -54 -83.333 -54 -138c0 -54 17.667 -99.667 53 -137c34.667 -36.667 79 -55 133 -55c33.333 0 65.5 9 96.5 27s54.167 41 69.5 69l80 -46
c-22.667 -42 -56 -75.333 -100 -100c-45.333 -25.333 -94 -38 -146 -38z" />
    <glyph glyph-name="Cdotaccent" unicode="&#x10a;" horiz-adv-x="776" 
d="M425 799c-20 0 -36.667 6.5 -50 19.5s-20 29.5 -20 49.5c0 19.333 6.66699 35.333 20 48s30 19 50 19c18.667 0 34.667 -6.5 48 -19.5s20 -28.833 20 -47.5c0 -20 -6.66699 -36.5 -20 -49.5s-29.333 -19.5 -48 -19.5zM426 -11c-106.667 0 -196.667 35.332 -270 105.999
c-73.333 71.333 -110 162 -110 272c0 112 37.333 204 112 276c74.667 72.667 165 109 271 109c67.333 0 129.333 -15 186 -45c56.667 -28.667 101 -67.667 133 -117l-74 -62c-62.667 84.667 -143.667 127 -243 127c-78.667 0 -145.334 -27.333 -200.001 -82
s-82 -123.667 -82 -207c0 -81.333 26.667 -148.666 80 -201.999c53.333 -52.667 120.333 -79 201 -79c49.333 0 95.333 11 138 33s79.334 52.667 110.001 92l72 -61c-35.333 -49.333 -81.5 -88.333 -138.5 -117s-118.833 -43 -185.5 -43z" />
    <glyph glyph-name="cdotaccent" unicode="&#x10b;" horiz-adv-x="599" 
d="M326 613c-20 0 -36.667 6.5 -50 19.5s-20 29.5 -20 49.5c0 19.333 6.66699 35.333 20 48s30 19 50 19c18.667 0 34.667 -6.5 48 -19.5s20 -28.833 20 -47.5c0 -20 -6.66699 -36.5 -20 -49.5s-29.333 -19.5 -48 -19.5zM324 -12c-83.333 0 -151.331 26.334 -203.998 79.001
s-79 119.667 -79 201s26.667 148.666 80 201.999c53.333 52.667 122.666 79 207.999 79c52.667 0 101.167 -12.667 145.5 -38s76.833 -59.333 97.5 -102l-79 -46c-18 30.667 -41.5 54.667 -70.5 72s-60.167 26 -93.5 26c-54.667 0 -100.334 -18.333 -137.001 -55
c-36 -37.333 -54 -83.333 -54 -138c0 -54 17.667 -99.667 53 -137c34.667 -36.667 79 -55 133 -55c33.333 0 65.5 9 96.5 27s54.167 41 69.5 69l80 -46c-22.667 -42 -56 -75.333 -100 -100c-45.333 -25.333 -94 -38 -146 -38z" />
    <glyph glyph-name="Ccaron" unicode="&#x10c;" horiz-adv-x="776" 
d="M389 794l-140 164h102l72 -90l72 90h103l-140 -164h-69zM426 -11c-106.667 0 -196.667 35.332 -270 105.999c-73.333 71.333 -110 162 -110 272c0 112 37.333 204 112 276c74.667 72.667 165 109 271 109c67.333 0 129.333 -15 186 -45
c56.667 -28.667 101 -67.667 133 -117l-74 -62c-62.667 84.667 -143.667 127 -243 127c-78.667 0 -145.334 -27.333 -200.001 -82s-82 -123.667 -82 -207c0 -81.333 26.667 -148.666 80 -201.999c53.333 -52.667 120.333 -79 201 -79c49.333 0 95.333 11 138 33
s79.334 52.667 110.001 92l72 -61c-35.333 -49.333 -81.5 -88.333 -138.5 -117s-118.833 -43 -185.5 -43z" />
    <glyph glyph-name="ccaron" unicode="&#x10d;" horiz-adv-x="599" 
d="M290 624l-140 164h102l72 -90l72 90h103l-140 -164h-69zM324 -12c-83.333 0 -151.331 26.334 -203.998 79.001s-79 119.667 -79 201s26.667 148.666 80 201.999c53.333 52.667 122.666 79 207.999 79c52.667 0 101.167 -12.667 145.5 -38s76.833 -59.333 97.5 -102
l-79 -46c-18 30.667 -41.5 54.667 -70.5 72s-60.167 26 -93.5 26c-54.667 0 -100.334 -18.333 -137.001 -55c-36 -37.333 -54 -83.333 -54 -138c0 -54 17.667 -99.667 53 -137c34.667 -36.667 79 -55 133 -55c33.333 0 65.5 9 96.5 27s54.167 41 69.5 69l80 -46
c-22.667 -42 -56 -75.333 -100 -100c-45.333 -25.333 -94 -38 -146 -38z" />
    <glyph glyph-name="Dcaron" unicode="&#x10e;" horiz-adv-x="758" 
d="M312 794l-140 164h102l72 -90l72 90h103l-140 -164h-69zM358 0l-265.001 -0.000976562v739h275c104.667 0 187.334 -33.333 248.001 -100c61.333 -67.333 92 -157.666 92 -270.999c0 -114 -31.333 -203.667 -94 -269c-62 -66 -147.333 -99 -256 -99zM192.999 643.999
v-548.999h169c75.333 0 134.666 25.667 177.999 77c42.667 51.333 64 117.666 64 198.999c0 80 -21.333 145.333 -64 196c-43.333 51.333 -102.666 77 -177.999 77h-169z" />
    <glyph glyph-name="dcaron" unicode="&#x10f;" horiz-adv-x="700" 
d="M634 623l56 167h106l-82 -167h-80zM497 458l-0.000976562 299h96v-757h-96v75c-46.667 -58.667 -108.667 -88 -186 -88c-78 0 -142.667 27 -194 81c-50.667 54.667 -76 121.667 -76 201c0 78.667 25.333 144.667 76 198c50.667 54.667 114.667 82 192 82
c76.667 0 139.334 -30.333 188.001 -91zM503.999 269c0 54 -17 99.332 -51 135.999c-33.333 37.333 -77.333 56 -132 56s-99 -18.667 -133 -56c-33.333 -37.333 -50 -82.666 -50 -135.999c0 -54.667 16.667 -100.667 50 -138c34 -37.333 78.333 -56 133 -56
s98.667 18.667 132 56c34 36.667 51 82.667 51 138z" />
    <glyph glyph-name="Dcroat" unicode="&#x110;" horiz-adv-x="777" 
d="M112 739l274.999 -0.000976562c104.667 0 187.334 -33.333 248.001 -100c61.333 -67.333 92 -157.666 92 -270.999c0 -114 -31.333 -203.667 -94 -269c-62 -66 -147.333 -99 -256 -99h-265v327h-100v86h100v326zM211.999 94.999l169 0.000976562
c75.333 0 134.666 25.667 177.999 77c42.667 51.333 64 117.666 64 198.999c0 80 -21.333 145.333 -64 196c-43.333 51.333 -102.666 77 -177.999 77h-169v-231h213v-86h-213v-232z" />
    <glyph glyph-name="dslash" unicode="&#x111;" horiz-adv-x="670" 
d="M593 664h81.999v-69h-82v-595h-96v75c-46.667 -58.667 -108.667 -88 -186 -88c-78 0 -142.667 27 -194 81c-50.667 54.667 -76 121.667 -76 201c0 78.667 25.333 144.667 76 198c50.667 54.667 114.667 82 192 82c76.667 0 139.334 -30.333 188.001 -91v137h-160v69h160
v93h96v-93zM503.999 269c0 54 -17 99.332 -51 135.999c-33.333 37.333 -77.333 56 -132 56s-99 -18.667 -133 -56c-33.333 -37.333 -50 -82.666 -50 -135.999c0 -54.667 16.667 -100.667 50 -138c34 -37.333 78.333 -56 133 -56s98.667 18.667 132 56
c34 36.667 51 82.667 51 138z" />
    <glyph glyph-name="Emacron" unicode="&#x112;" horiz-adv-x="609" 
d="M497 812l-339 -1v86h339v-85zM553 0h-460v739h460v-95h-360v-221h333v-95h-333v-233h360v-95z" />
    <glyph glyph-name="emacron" unicode="&#x113;" 
d="M159 722h307v-85l-307 -1v86zM572 278c0 -6.66699 -0.999023 -23.002 -2.99902 -49.002h-427c8.66699 -47.333 28.667 -84.666 60 -111.999s74 -41 128 -41c32 0 65 5.5 99 16.5s63.333 25.5 88 43.5l41 -73c-28 -21.333 -62.667 -39.166 -104 -53.499
s-83.333 -21.5 -126 -21.5c-48.667 0 -91.834 8 -129.501 24s-67.5 37.667 -89.5 65s-38.667 57.333 -50 90s-17 67 -17 103c0 80 25 146.667 75 200c50.667 52.667 116 79 196 79c76 0 138 -24.333 186 -73c48.667 -48.667 73 -114.667 73 -198zM142.001 311.998h331.001
c-2.66699 46 -18.834 82.833 -48.501 110.5s-66.834 41.5 -111.501 41.5c-43.333 0 -80.666 -14.167 -111.999 -42.5s-51 -64.833 -59 -109.5z" />
    <glyph glyph-name="Ebreve" unicode="&#x114;" horiz-adv-x="609" 
d="M329 785c-52 0 -93.834 15.667 -125.501 47s-48.167 73.666 -49.5 126.999h83c0.666992 -31.333 9.16699 -55.833 25.5 -73.5s38.5 -26.5 66.5 -26.5s50.333 8.83301 67 26.5s25.334 42.167 26.001 73.5h83c-0.666992 -53.333 -17 -95.666 -49 -126.999
s-74.333 -47 -127 -47zM552.999 0h-460v739h460v-95h-360v-221h333v-95h-333v-233h360v-95z" />
    <glyph glyph-name="ebreve" unicode="&#x115;" 
d="M144 788h82.001c0.666992 -31.333 9.16699 -55.666 25.5 -72.999s38.5 -26 66.5 -26s50.167 8.66699 66.5 26s24.833 41.666 25.5 72.999h83c-1.33301 -53.333 -18 -95.333 -50 -126c-32.667 -31.333 -74.334 -47 -125.001 -47c-51.333 0 -92.833 15.667 -124.5 47
s-48.167 73.333 -49.5 126zM572.001 278c0 -6.66699 -0.999023 -23.002 -2.99902 -49.002h-427c8.66699 -47.333 28.667 -84.666 60 -111.999s74 -41 128 -41c32 0 65 5.5 99 16.5s63.333 25.5 88 43.5l41 -73c-28 -21.333 -62.667 -39.166 -104 -53.499
s-83.333 -21.5 -126 -21.5c-48.667 0 -91.834 8 -129.501 24s-67.5 37.667 -89.5 65s-38.667 57.333 -50 90s-17 67 -17 103c0 80 25 146.667 75 200c50.667 52.667 116 79 196 79c76 0 138 -24.333 186 -73c48.667 -48.667 73 -114.667 73 -198zM142.002 311.998h331.001
c-2.66699 46 -18.834 82.833 -48.501 110.5s-66.834 41.5 -111.501 41.5c-43.333 0 -80.666 -14.167 -111.999 -42.5s-51 -64.833 -59 -109.5z" />
    <glyph glyph-name="Edotaccent" unicode="&#x116;" horiz-adv-x="609" 
d="M327 799c-20 0 -36.667 6.5 -50 19.5s-20 29.5 -20 49.5c0 19.333 6.66699 35.333 20 48s30 19 50 19c18.667 0 34.667 -6.5 48 -19.5s20 -28.833 20 -47.5c0 -20 -6.66699 -36.5 -20 -49.5s-29.333 -19.5 -48 -19.5zM553 0h-460v739h460v-95h-360v-221h333v-95h-333
v-233h360v-95z" />
    <glyph glyph-name="edotaccent" unicode="&#x117;" 
d="M319 613c-20 0 -36.667 6.5 -50 19.5s-20 29.5 -20 49.5c0 19.333 6.66699 35.333 20 48s30 19 50 19c18.667 0 34.667 -6.5 48 -19.5s20 -28.833 20 -47.5c0 -20 -6.66699 -36.5 -20 -49.5s-29.333 -19.5 -48 -19.5zM572 278
c0 -6.66699 -0.999023 -23.002 -2.99902 -49.002h-427c8.66699 -47.333 28.667 -84.666 60 -111.999s74 -41 128 -41c32 0 65 5.5 99 16.5s63.333 25.5 88 43.5l41 -73c-28 -21.333 -62.667 -39.166 -104 -53.499s-83.333 -21.5 -126 -21.5c-48.667 0 -91.834 8 -129.501 24
s-67.5 37.667 -89.5 65s-38.667 57.333 -50 90s-17 67 -17 103c0 80 25 146.667 75 200c50.667 52.667 116 79 196 79c76 0 138 -24.333 186 -73c48.667 -48.667 73 -114.667 73 -198zM142.001 311.998h331.001c-2.66699 46 -18.834 82.833 -48.501 110.5
s-66.834 41.5 -111.501 41.5c-43.333 0 -80.666 -14.167 -111.999 -42.5s-51 -64.833 -59 -109.5z" />
    <glyph glyph-name="Eogonek" unicode="&#x118;" horiz-adv-x="607" 
d="M532 -163l37 -67.999c-30.667 -19.333 -62.334 -29 -95.001 -29c-35.333 0 -63.666 10.333 -84.999 31s-32 47 -32 79c0 58 35.333 108 106 150h-370v739h460v-95h-360v-221h333v-95h-333v-233h360v-95h1c-32.667 -14 -59.334 -32.833 -80.001 -56.5
s-31 -46.834 -31 -69.501c0 -14.667 4.33301 -26.5 13 -35.5s20.334 -13.5 35.001 -13.5c13.333 0 27 4 41 12z" />
    <glyph glyph-name="eogonek" unicode="&#x119;" 
d="M572 278c0 -6.66699 -1.00098 -23 -3.00098 -49h-427c8.66699 -47.333 28.667 -84.666 60 -111.999s74 -41 128 -41c32 0 65 5.5 99 16.5s63.333 25.5 88 43.5l41 -73c-34.667 -26 -74 -45.333 -118 -58c-32 -14.667 -58.333 -33.667 -79 -57s-31 -46.333 -31 -69
c0 -14.667 4.33301 -26.5 13 -35.5s20.334 -13.5 35.001 -13.5c13.333 0 27 4 41 12l37 -68c-30.667 -19.333 -62.334 -29 -95.001 -29c-35.333 0 -63.666 10.333 -84.999 31s-32 47 -32 79c0 51.333 26.667 95.666 80 132.999c-48 0.666992 -90.667 9.16699 -128 25.5
s-66.833 38 -88.5 65s-38 56.667 -49 89s-16.5 66.5 -16.5 102.5c0 80 25 146.667 75 200c50.667 52.667 116 79 196 79c76 0 138 -24.333 186 -73c48.667 -48.667 73 -114.667 73 -198zM141.999 312h331.001c-2.66699 46 -18.834 82.833 -48.501 110.5
s-66.834 41.5 -111.501 41.5c-43.333 0 -80.666 -14.167 -111.999 -42.5s-51 -64.833 -59 -109.5z" />
    <glyph glyph-name="Ecaron" unicode="&#x11a;" horiz-adv-x="609" 
d="M291 794l-140 164h102l72 -90l72 90h103l-140 -164h-69zM553 0h-460v739h460v-95h-360v-221h333v-95h-333v-233h360v-95z" />
    <glyph glyph-name="ecaron" unicode="&#x11b;" 
d="M491 788l-140 -164h-69l-140 164h102l72 -90l72 90h103zM572 278c0 -6.66699 -0.999023 -23.002 -2.99902 -49.002h-427c8.66699 -47.333 28.667 -84.666 60 -111.999s74 -41 128 -41c32 0 65 5.5 99 16.5s63.333 25.5 88 43.5l41 -73
c-28 -21.333 -62.667 -39.166 -104 -53.499s-83.333 -21.5 -126 -21.5c-48.667 0 -91.834 8 -129.501 24s-67.5 37.667 -89.5 65s-38.667 57.333 -50 90s-17 67 -17 103c0 80 25 146.667 75 200c50.667 52.667 116 79 196 79c76 0 138 -24.333 186 -73
c48.667 -48.667 73 -114.667 73 -198zM142.001 311.998h331.001c-2.66699 46 -18.834 82.833 -48.501 110.5s-66.834 41.5 -111.501 41.5c-43.333 0 -80.666 -14.167 -111.999 -42.5s-51 -64.833 -59 -109.5z" />
    <glyph glyph-name="Gcircumflex" unicode="&#x11c;" horiz-adv-x="812" 
d="M359 794h-103l141 165h69l141 -165h-104l-72 91zM424 -11c-108.667 0 -199.002 35.999 -271.002 107.999c-71.333 72.667 -107 163.334 -107 272.001c0 110.667 37.333 202 112 274c74.667 72.667 165.334 109 272.001 109c61.333 0 119.5 -12.333 174.5 -37
s99.5 -57.667 133.5 -99l-71 -65c-62 69.333 -140.667 104 -236 104c-79.333 0 -146.666 -27 -201.999 -81c-54 -54 -81 -122.667 -81 -206c0 -81.333 27 -149 81 -203c54.667 -53.333 121 -80 199 -80c43.333 0 86 9.33301 128 28s78.333 44 109 76v147h-247v92h341v-283
c-90 -104 -201.667 -156 -335 -156z" />
    <glyph glyph-name="gcircumflex" unicode="&#x11d;" horiz-adv-x="667" 
d="M389 622l-72 90l-72 -90h-102l140 164h69l140 -164h-103zM498 466v70h95v-481c0 -86 -26 -154.667 -78 -206c-52.667 -51.333 -122.334 -77 -209.001 -77c-87.333 0 -166.333 25.333 -237 76l45 76c58.667 -43.333 122.334 -65 191.001 -65c59.333 0 106.333 17 141 51
c34.667 32.667 52 75.667 52 129v44c-48 -56 -110.667 -84 -188 -84s-141.333 26.333 -192 79c-51.333 53.333 -77 119 -77 197s26.333 143 79 195c52.667 52.667 117.667 79 195 79c74 0 135 -27.667 183 -83zM190 139c35.333 -36 79 -54 131 -54
c52.667 0 96.334 18 131.001 54c34.667 35.333 52 80.333 52 135s-17.333 99.334 -52 134.001c-35.333 36 -79 54 -131 54c-52.667 0 -96.334 -18 -131.001 -54c-34.667 -34.667 -52 -79.334 -52 -134.001s17.333 -99.667 52 -135z" />
    <glyph glyph-name="Gbreve" unicode="&#x11e;" horiz-adv-x="812" 
d="M430 787c-52 0 -93.834 15.667 -125.501 47s-48.167 73.666 -49.5 126.999h83c0.666992 -31.333 9.16699 -55.833 25.5 -73.5s38.5 -26.5 66.5 -26.5s50.333 8.83301 67 26.5s25.334 42.167 26.001 73.5h83c-0.666992 -53.333 -17 -95.666 -49 -126.999
s-74.333 -47 -127 -47zM423.999 -11c-108.667 0 -199.002 35.999 -271.002 107.999c-71.333 72.667 -107 163.334 -107 272.001c0 110.667 37.333 202 112 274c74.667 72.667 165.334 109 272.001 109c61.333 0 119.5 -12.333 174.5 -37s99.5 -57.667 133.5 -99l-71 -65
c-62 69.333 -140.667 104 -236 104c-79.333 0 -146.666 -27 -201.999 -81c-54 -54 -81 -122.667 -81 -206c0 -81.333 27 -149 81 -203c54.667 -53.333 121 -80 199 -80c43.333 0 86 9.33301 128 28s78.333 44 109 76v147h-247v92h341v-283c-90 -104 -201.667 -156 -335 -156
z" />
    <glyph glyph-name="gbreve" unicode="&#x11f;" horiz-adv-x="667" 
d="M140 791h82.001c0.666992 -31.333 9.16699 -55.666 25.5 -72.999s38.5 -26 66.5 -26s50.167 8.66699 66.5 26s24.833 41.666 25.5 72.999h83c-1.33301 -53.333 -18 -95.333 -50 -126c-32.667 -31.333 -74.334 -47 -125.001 -47c-51.333 0 -92.833 15.667 -124.5 47
s-48.167 73.333 -49.5 126zM498.001 466v70h95v-481c0 -86 -26 -154.667 -78 -206c-52.667 -51.333 -122.334 -77 -209.001 -77c-87.333 0 -166.333 25.333 -237 76l45 76c58.667 -43.333 122.334 -65 191.001 -65c59.333 0 106.333 17 141 51
c34.667 32.667 52 75.667 52 129v44c-48 -56 -110.667 -84 -188 -84s-141.333 26.333 -192 79c-51.333 53.333 -77 119 -77 197s26.333 143 79 195c52.667 52.667 117.667 79 195 79c74 0 135 -27.667 183 -83zM190.001 139c35.333 -36 79 -54 131 -54
c52.667 0 96.334 18 131.001 54c34.667 35.333 52 80.333 52 135s-17.333 99.334 -52 134.001c-35.333 36 -79 54 -131 54c-52.667 0 -96.334 -18 -131.001 -54c-34.667 -34.667 -52 -79.334 -52 -134.001s17.333 -99.667 52 -135z" />
    <glyph glyph-name="Gdotaccent" unicode="&#x120;" horiz-adv-x="812" 
d="M433 799c-20 0 -36.667 6.5 -50 19.5s-20 29.5 -20 49.5c0 19.333 6.66699 35.333 20 48s30 19 50 19c18.667 0 34.667 -6.5 48 -19.5s20 -28.833 20 -47.5c0 -20 -6.66699 -36.5 -20 -49.5s-29.333 -19.5 -48 -19.5zM424 -11
c-108.667 0 -199.002 35.999 -271.002 107.999c-71.333 72.667 -107 163.334 -107 272.001c0 110.667 37.333 202 112 274c74.667 72.667 165.334 109 272.001 109c61.333 0 119.5 -12.333 174.5 -37s99.5 -57.667 133.5 -99l-71 -65c-62 69.333 -140.667 104 -236 104
c-79.333 0 -146.666 -27 -201.999 -81c-54 -54 -81 -122.667 -81 -206c0 -81.333 27 -149 81 -203c54.667 -53.333 121 -80 199 -80c43.333 0 86 9.33301 128 28s78.333 44 109 76v147h-247v92h341v-283c-90 -104 -201.667 -156 -335 -156z" />
    <glyph glyph-name="gdotaccent" unicode="&#x121;" horiz-adv-x="667" 
d="M318 615c-20 0 -36.667 6.5 -50 19.5s-20 29.5 -20 49.5c0 19.333 6.66699 35.333 20 48s30 19 50 19c18.667 0 34.667 -6.5 48 -19.5s20 -28.833 20 -47.5c0 -20 -6.66699 -36.5 -20 -49.5s-29.333 -19.5 -48 -19.5zM498 466v70h95v-481c0 -86 -26 -154.667 -78 -206
c-52.667 -51.333 -122.334 -77 -209.001 -77c-87.333 0 -166.333 25.333 -237 76l45 76c58.667 -43.333 122.334 -65 191.001 -65c59.333 0 106.333 17 141 51c34.667 32.667 52 75.667 52 129v44c-48 -56 -110.667 -84 -188 -84s-141.333 26.333 -192 79
c-51.333 53.333 -77 119 -77 197s26.333 143 79 195c52.667 52.667 117.667 79 195 79c74 0 135 -27.667 183 -83zM190 139c35.333 -36 79 -54 131 -54c52.667 0 96.334 18 131.001 54c34.667 35.333 52 80.333 52 135s-17.333 99.334 -52 134.001
c-35.333 36 -79 54 -131 54c-52.667 0 -96.334 -18 -131.001 -54c-34.667 -34.667 -52 -79.334 -52 -134.001s17.333 -99.667 52 -135z" />
    <glyph glyph-name="Gcommaaccent" unicode="&#x122;" horiz-adv-x="812" 
d="M418 336l-0.00195312 91.999h341v-283c-90 -104 -201.667 -156 -335 -156c-108.667 0 -199 36 -271 108c-71.333 72.667 -107 163.334 -107 272.001c0 110.667 37.333 202 112 274c74.667 72.667 165.334 109 272.001 109c61.333 0 119.5 -12.333 174.5 -37
s99.5 -57.667 133.5 -99l-71 -65c-62 69.333 -140.667 104 -236 104c-79.333 0 -146.666 -27 -201.999 -81c-54 -54 -81 -122.667 -81 -206c0 -81.333 27 -149 81 -203c54.667 -53.333 121 -80 199 -80c43.333 0 86 9.33301 128 28s78.333 44 109 76v147h-247z
M428.998 -38.001c20 0 36.666 -7.16797 49.999 -21.501s20 -32.166 20 -53.499c0 -56.667 -41.667 -112 -125 -166l-32 44c42 32 68.333 56.667 79 74h-2c-15.333 0 -28.5 5.83301 -39.5 17.5s-16.5 25.5 -16.5 41.5c0 17.333 6.33301 32.333 19 45s28.334 19 47.001 19z
" />
    <glyph glyph-name="gcommaaccent" unicode="&#x123;" horiz-adv-x="667" 
d="M318 599c-19.333 0 -35.666 7.16797 -48.999 21.501s-20 32.166 -20 53.499c0 57.333 41.333 112.333 124 165l32 -44c-42 -32 -68.333 -56.667 -79 -74h2c14.667 0 27.667 -5.83301 39 -17.5s17 -25.167 17 -40.5c0 -17.333 -6.33301 -32.333 -19 -45
s-28.334 -19 -47.001 -19zM498 466.001v70h95v-481c0 -86 -26 -154.667 -78 -206c-52.667 -51.333 -122.334 -77 -209.001 -77c-87.333 0 -166.333 25.333 -237 76l45 76c58.667 -43.333 122.334 -65 191.001 -65c59.333 0 106.333 17 141 51
c34.667 32.667 52 75.667 52 129v44c-48 -56 -110.667 -84 -188 -84s-141.333 26.333 -192 79c-51.333 53.333 -77 119 -77 197s26.333 143 79 195c52.667 52.667 117.667 79 195 79c74 0 135 -27.667 183 -83zM190 139.001c35.333 -36 79 -54 131 -54
c52.667 0 96.334 18 131.001 54c34.667 35.333 52 80.333 52 135s-17.333 99.334 -52 134.001c-35.333 36 -79 54 -131 54c-52.667 0 -96.334 -18 -131.001 -54c-34.667 -34.667 -52 -79.334 -52 -134.001s17.333 -99.667 52 -135z" />
    <glyph glyph-name="Hcircumflex" unicode="&#x124;" horiz-adv-x="758" 
d="M308 792h-103l141 165h69l141 -165h-104l-72 91zM194 0h-101v739h101v-312h371v312h100v-739h-100v331h-371v-331z" />
    <glyph glyph-name="hcircumflex" unicode="&#x125;" horiz-adv-x="617" 
d="M50 793h-103l141 165h69l141 -165h-104l-72 91zM171 0l-96.001 0.000976562v757h93v-287c16.667 24.667 40.167 44.167 70.5 58.5s63.5 21.5 99.5 21.5c59.333 0 109.333 -19.333 150 -58s61 -94.334 61 -167.001v-325h-95v298c0 51.333 -12.333 91.333 -37 120
s-57.667 43 -99 43c-43.333 0 -78.666 -15.167 -105.999 -45.5s-41 -69.5 -41 -117.5v-298z" />
    <glyph glyph-name="Hbar" unicode="&#x126;" horiz-adv-x="795" 
d="M675 618h93v-82h-93v-536h-100v331h-371v-331h-101v536h-93v82h93v121h101v-121h371v121h100v-121zM204 427h371v109h-371v-109z" />
    <glyph glyph-name="hbar" unicode="&#x127;" horiz-adv-x="617" 
d="M338 550c59.333 0 109.332 -19.332 149.999 -57.999s61 -94.334 61 -167.001v-325h-95v298c0 51.333 -12.333 91.333 -37 120s-57.667 43 -99 43c-43.333 0 -78.666 -15.167 -105.999 -45.5s-41 -69.5 -41 -117.5v-298h-96v595h-65v69h65v93h93v-93h180v-69h-180v-125
c16.667 24.667 40.167 44.167 70.5 58.5s63.5 21.5 99.5 21.5z" />
    <glyph glyph-name="Itilde" unicode="&#x128;" horiz-adv-x="286" 
d="M19 817l-61.999 29c8.66699 30 23.5 53.5 44.5 70.5s45.5 25.5 73.5 25.5c22 0 47.333 -7.33301 76 -22c29.333 -14.667 50.666 -22 63.999 -22c24.667 0 44 15 58 45l60 -28c-8 -30 -22.333 -53.5 -43 -70.5s-45 -25.5 -73 -25.5c-21.333 0 -46.333 7.33301 -75 22
c-29.333 15.333 -50.333 23 -63 23c-24.667 0 -44.667 -15.667 -60 -47zM96.001 0v739h100v-739h-100z" />
    <glyph glyph-name="itilde" unicode="&#x129;" horiz-adv-x="245" 
d="M-3 629l-62 29c8.66699 30 23.5 53.5 44.5 70.5s45.5 25.5 73.5 25.5c22 0 47.333 -7.33301 76 -22s49.667 -22 63 -22c24.667 0 44 15 58 45l60 -28c-8 -30 -22.333 -53.5 -43 -70.5s-45 -25.5 -73 -25.5c-21.333 0 -46.333 7.33301 -75 22
c-29.333 15.333 -50.333 23 -63 23c-24 0 -43.667 -15.667 -59 -47zM170 536v-536h-96v536h96z" />
    <glyph glyph-name="Imacron" unicode="&#x12a;" horiz-adv-x="286" 
d="M316 829l-339 -1v86h339v-85zM96 0v739h100v-739h-100z" />
    <glyph glyph-name="imacron" unicode="&#x12b;" horiz-adv-x="245" 
d="M277 637l-307 -1v86h307v-85zM170 536v-536h-96v536h96z" />
    <glyph glyph-name="Ibreve" unicode="&#x12c;" horiz-adv-x="286" 
d="M145 788c-52 0 -93.834 15.667 -125.501 47s-48.167 73.666 -49.5 126.999h83c0.666992 -31.333 9.16699 -55.833 25.5 -73.5s38.5 -26.5 66.5 -26.5s50.333 8.83301 67 26.5s25.334 42.167 26.001 73.5h83c-0.666992 -53.333 -17 -95.666 -49 -126.999
s-74.333 -47 -127 -47zM95.999 0v739h100v-739h-100z" />
    <glyph glyph-name="ibreve" unicode="&#x12d;" horiz-adv-x="245" 
d="M-51 788h82.001c0.666992 -31.333 9.16699 -55.666 25.5 -72.999s38.5 -26 66.5 -26s50.167 8.66699 66.5 26s24.833 41.666 25.5 72.999h83c-1.33301 -53.333 -18 -95.333 -50 -126c-32.667 -31.333 -74.334 -47 -125.001 -47c-51.333 0 -92.833 15.667 -124.5 47
s-48.167 73.333 -49.5 126zM170.001 536v-536h-96v536h96z" />
    <glyph glyph-name="Iogonek" unicode="&#x12e;" horiz-adv-x="286" 
d="M173 -163l37 -67.999c-30.667 -19.333 -62.334 -29 -95.001 -29c-35.333 0 -63.666 10.333 -84.999 31s-32 47 -32 79c0 58 35.333 108 106 150h-9v739h100v-739c-32.667 -14 -59.334 -32.833 -80.001 -56.5s-31 -46.834 -31 -69.501c0 -14.667 4.33301 -26.5 13 -35.5
s20.334 -13.5 35.001 -13.5c13.333 0 27 4 41 12z" />
    <glyph glyph-name="iogonek" unicode="&#x12f;" horiz-adv-x="245" 
d="M124 612c-20 0 -36.667 6.5 -50 19.5s-20 29.5 -20 49.5c0 19.333 6.66699 35.333 20 48s30 19 50 19c18.667 0 34.667 -6.5 48 -19.5s20 -28.833 20 -47.5c0 -20 -6.66699 -36.5 -20 -49.5s-29.333 -19.5 -48 -19.5zM108 -175c13.333 0 27 4.00098 41 12.001l37 -68
c-30.667 -19.333 -62.334 -29 -95.001 -29c-35.333 0 -63.666 10.333 -84.999 31s-32 47 -32 79c0 58 35.333 108 106 150h-6v536h96v-536h1c-32.667 -14 -59.334 -32.833 -80.001 -56.5s-31 -46.834 -31 -69.501c0 -14.667 4.33301 -26.5 13 -35.5
s20.334 -13.5 35.001 -13.5z" />
    <glyph glyph-name="Idot" unicode="&#x130;" horiz-adv-x="286" 
d="M151 797c-20 0 -36.667 6.5 -50 19.5s-20 29.5 -20 49.5c0 19.333 6.66699 35.333 20 48s30 19 50 19c18.667 0 34.667 -6.5 48 -19.5s20 -28.833 20 -47.5c0 -20 -6.66699 -36.5 -20 -49.5s-29.333 -19.5 -48 -19.5zM100 0v739h100v-739h-100z" />
    <glyph glyph-name="dotlessi" unicode="&#x131;" horiz-adv-x="245" 
d="M170 536v-536h-96v536h96z" />
    <glyph glyph-name="IJ" unicode="&#x132;" horiz-adv-x="840" 
d="M93 0v739h100v-739h-100zM507 -12c-86 0 -156.668 31.668 -212.001 95.001l61 73c40 -48.667 90.333 -73 151 -73c44.667 0 80.334 14.167 107.001 42.5s40 68.166 40 119.499v494h100v-499c0 -80 -23 -142 -69 -186c-44.667 -44 -104 -66 -178 -66z" />
    <glyph glyph-name="ij" unicode="&#x133;" horiz-adv-x="515" 
d="M124 612c-20 0 -36.667 6.5 -50 19.5s-20 29.5 -20 49.5c0 19.333 6.66699 35.333 20 48s30 19 50 19c18.667 0 34.667 -6.5 48 -19.5s20 -28.833 20 -47.5c0 -20 -6.66699 -36.5 -20 -49.5s-29.333 -19.5 -48 -19.5zM390 612c-20 0 -36.667 6.5 -50 19.5
s-20 29.5 -20 49.5c0 19.333 6.66699 35.333 20 48s30 19 50 19c18.667 0 34.667 -6.5 48 -19.5s20 -28.833 20 -47.5c0 -20 -6.66699 -36.5 -20 -49.5s-29.333 -19.5 -48 -19.5zM170 536v-536h-96v536h96zM260 -229c-40 0 -71.668 7.33203 -95.001 21.999l19 80
c26 -9.33301 47.667 -14 65 -14c61.333 0 92 36.667 92 110v567h96v-561c0 -65.333 -15.667 -115.666 -47 -150.999s-74.666 -53 -129.999 -53z" />
    <glyph glyph-name="Jcircumflex" unicode="&#x134;" horiz-adv-x="558" 
d="M349 792h-103l141 165h69l141 -165h-104l-72 91zM225 -12c-86 0 -156.668 31.668 -212.001 95.001l61 73c40 -48.667 90.333 -73 151 -73c44.667 0 80.334 14.167 107.001 42.5s40 68.166 40 119.499v494h100v-499c0 -80 -23 -142 -69 -186
c-44.667 -44 -104 -66 -178 -66z" />
    <glyph glyph-name="jcircumflex" unicode="&#x135;" horiz-adv-x="269" 
d="M73 619h-102l140 164h69l140 -164h-103l-72 90zM17 -229c-40 0 -71.668 7.33203 -95.001 21.999l19 80c26 -9.33301 47.667 -14 65 -14c61.333 0 92 36.667 92 110v567h96v-561c0 -65.333 -15.667 -115.666 -47 -150.999s-74.666 -53 -129.999 -53z" />
    <glyph glyph-name="Kcommaaccent" unicode="&#x136;" horiz-adv-x="666" 
d="M651 739l-292 -348l319 -391h-124l-260 324l-101 -119v-205h-100v739h100v-402l339 402h119zM366 -33c20 0 36.666 -7.16797 49.999 -21.501s20 -32.166 20 -53.499c0 -56.667 -41.667 -112 -125 -166l-32 44c42 32 68.333 56.667 79 74h-2
c-15.333 0 -28.5 5.83301 -39.5 17.5s-16.5 25.5 -16.5 41.5c0 17.333 6.33301 32.333 19 45s28.334 19 47.001 19z" />
    <glyph glyph-name="kcommaaccent" unicode="&#x137;" horiz-adv-x="545" 
d="M540 536l-251 -225l260 -311h-126l-202 250l-51 -46v-204h-96v757h96v-438l240 217h130zM286 -17c19.333 0 35.666 -7.16797 48.999 -21.501s20 -32.166 20 -53.499c0 -57.333 -41.333 -112.333 -124 -165l-32 44c42 32 68.333 56.667 79 74h-2
c-14.667 0 -27.667 5.83301 -39 17.5s-17 25.167 -17 40.5c0 17.333 6.33301 32.333 19 45s28.334 19 47.001 19z" />
    <glyph glyph-name="kgreenlandic" unicode="&#x138;" horiz-adv-x="543" 
d="M544 0h-122l-200 249l-52 -47v-202h-96v536h96v-219l240 219h129l-248 -225z" />
    <glyph glyph-name="Lacute" unicode="&#x139;" horiz-adv-x="603" 
d="M185 793h-84l59 168h118zM590 0h-497v739h100v-642h397v-97z" />
    <glyph glyph-name="lacute" unicode="&#x13a;" horiz-adv-x="243" 
d="M164 795h-84l59 168h118zM170 757v-757h-96v757h96z" />
    <glyph glyph-name="Lcommaaccent" unicode="&#x13b;" horiz-adv-x="603" 
d="M193 739v-642h397v-97h-497v739h100zM348 -34c20 0 36.666 -7.16797 49.999 -21.501s20 -32.166 20 -53.499c0 -56.667 -41.667 -112 -125 -166l-32 44c42 32 68.333 56.667 79 74h-2c-15.333 0 -28.5 5.83301 -39.5 17.5s-16.5 25.5 -16.5 41.5
c0 17.333 6.33301 32.333 19 45s28.334 19 47.001 19z" />
    <glyph glyph-name="lcommaaccent" unicode="&#x13c;" horiz-adv-x="245" 
d="M76 757h96v-757h-96v757zM122 -40c19.333 0 35.666 -7.16797 48.999 -21.501s20 -32.166 20 -53.499c0 -57.333 -41.333 -112.333 -124 -165l-32 44c42 32 68.333 56.667 79 74h-2c-14.667 0 -27.667 5.83301 -39 17.5s-17 25.167 -17 40.5
c0 17.333 6.33301 32.333 19 45s28.334 19 47.001 19z" />
    <glyph glyph-name="Lcaron" unicode="&#x13d;" horiz-adv-x="609" 
d="M491 621h-80l56 167h106zM590 0h-497v739h100v-642h397v-97z" />
    <glyph glyph-name="lcaron" unicode="&#x13e;" horiz-adv-x="273" 
d="M285 622h-80l56 167h106zM170 757v-757h-96v757h96z" />
    <glyph glyph-name="Ldot" unicode="&#x13f;" horiz-adv-x="606" 
d="M590 0h-497v739h100v-642h397v-97zM381 392c0 17.333 6.16699 32 18.5 44s27.5 18 45.5 18s33.167 -6 45.5 -18s18.5 -26.667 18.5 -44c0 -18.667 -6.16699 -34.167 -18.5 -46.5s-27.5 -18.5 -45.5 -18.5s-33.167 6.16699 -45.5 18.5s-18.5 27.833 -18.5 46.5z" />
    <glyph glyph-name="ldot" unicode="&#x140;" horiz-adv-x="357" 
d="M170 757v-757h-96v757h96zM237 364c0 17.333 6.16699 32 18.5 44s27.5 18 45.5 18s33.167 -6 45.5 -18s18.5 -26.667 18.5 -44c0 -18.667 -6.16699 -34.167 -18.5 -46.5s-27.5 -18.5 -45.5 -18.5s-33.167 6.16699 -45.5 18.5s-18.5 27.833 -18.5 46.5z" />
    <glyph glyph-name="Lslash" unicode="&#x141;" horiz-adv-x="612" 
d="M202 356v-259h397v-97h-497v290l-74 -49v96l74 49v353h100v-286l114 76v-97z" />
    <glyph glyph-name="lslash" unicode="&#x142;" horiz-adv-x="304" 
d="M198 463l68 50v-97l-68 -50v-366h-96v295l-60 -44v96l60 44v366h96v-294z" />
    <glyph glyph-name="Nacute" unicode="&#x143;" horiz-adv-x="780" 
d="M423 793h-84l59 168h118zM588 212v527h99v-739h-52l-443 524v-524h-99v739h45z" />
    <glyph glyph-name="nacute" unicode="&#x144;" horiz-adv-x="618" 
d="M346 623h-83l59 167h117zM170 0h-96v536h94v-76c34 60 90.667 90 170 90c60 0 110.333 -19.333 151 -58s61 -94.334 61 -167.001v-325h-95v298c0 51.333 -12.5 91.333 -37.5 120s-58.167 43 -99.5 43c-43.333 0 -79 -15.333 -107 -46
c-27.333 -31.333 -41 -70.666 -41 -117.999v-297z" />
    <glyph glyph-name="Ncommaaccent" unicode="&#x145;" horiz-adv-x="780" 
d="M588 212v527h99v-739h-52l-443 524v-524h-99v739h45zM401 -25c20 0 36.666 -7.16797 49.999 -21.501s20 -32.166 20 -53.499c0 -56.667 -41.667 -112 -125 -166l-32 44c42 32 68.333 56.667 79 74h-2c-15.333 0 -28.5 5.83301 -39.5 17.5s-16.5 25.5 -16.5 41.5
c0 17.333 6.33301 32.333 19 45s28.334 19 47.001 19z" />
    <glyph glyph-name="ncommaaccent" unicode="&#x146;" horiz-adv-x="618" 
d="M338 550c60 0 110.333 -19.333 151 -58s61 -94.334 61 -167.001v-325h-95v298c0 51.333 -12.5 91.333 -37.5 120s-58.167 43 -99.5 43c-43.333 0 -79 -15.333 -107 -46c-27.333 -31.333 -41 -70.666 -41 -117.999v-297h-96v536h94v-76c34 60 90.667 90 170 90zM320 -28
c19.333 0 35.666 -7.16797 48.999 -21.501s20 -32.166 20 -53.499c0 -57.333 -41.333 -112.333 -124 -165l-32 44c42 32 68.333 56.667 79 74h-2c-14.667 0 -27.667 5.83301 -39 17.5s-17 25.167 -17 40.5c0 17.333 6.33301 32.333 19 45s28.334 19 47.001 19z" />
    <glyph glyph-name="Ncaron" unicode="&#x147;" horiz-adv-x="780" 
d="M364 794l-140 164h102l72 -90l72 90h103l-140 -164h-69zM588 212v527h99v-739h-52l-443 524v-524h-99v739h45z" />
    <glyph glyph-name="ncaron" unicode="&#x148;" horiz-adv-x="618" 
d="M282 623l-140 164h102l72 -90l72 90h103l-140 -164h-69zM170 0h-96v536h94v-76c34 60 90.667 90 170 90c60 0 110.333 -19.333 151 -58s61 -94.334 61 -167.001v-325h-95v298c0 51.333 -12.5 91.333 -37.5 120s-58.167 43 -99.5 43c-43.333 0 -79 -15.333 -107 -46
c-27.333 -31.333 -41 -70.666 -41 -117.999v-297z" />
    <glyph glyph-name="napostrophe" unicode="&#x149;" horiz-adv-x="644" 
d="M53 621h-80l56 167h106zM196 0h-96v536h94v-76c34 60 90.667 90 170 90c60 0 110.333 -19.333 151 -58s61 -94.334 61 -167.001v-325h-95v298c0 51.333 -12.5 91.333 -37.5 120s-58.167 43 -99.5 43c-43.333 0 -79 -15.333 -107 -46
c-27.333 -31.333 -41 -70.666 -41 -117.999v-297z" />
    <glyph glyph-name="Eng" unicode="&#x14a;" horiz-adv-x="780" 
d="M588 198l0.000976562 541h99v-737c0 -78.667 -23 -140.667 -69 -186c-45.333 -44.667 -103 -67 -173 -67c-52.667 0 -101.667 14.333 -147 43l39 85c33.333 -21.333 69 -32 107 -32c43.333 0 78.166 14 104.499 42s39.5 67.333 39.5 118v39l-396 481v-525h-99v739h45z
" />
    <glyph glyph-name="eng" unicode="&#x14b;" horiz-adv-x="617" 
d="M336 -225l4.00098 87.001c76 -6 114 30 114 108v337c0 48.667 -12 86.5 -36 113.5s-56.667 40.5 -98 40.5c-44 0 -80 -15.333 -108 -46s-42 -70 -42 -118v-297h-96v536h93v-68c16.667 24.667 40.167 44.5 70.5 59.5s63.5 22.5 99.5 22.5
c59.333 0 109.666 -19.667 150.999 -59c40.667 -38.667 61 -94.334 61 -167.001v-352c0 -72 -18.5 -125 -55.5 -159s-89.5 -46.667 -157.5 -38z" />
    <glyph glyph-name="Omacron" unicode="&#x14c;" horiz-adv-x="855" 
d="M595 812l-339 -1v86h339v-85zM45 365c0 108 37.333 199.333 112 274c75.333 75.333 165.333 113 270 113s194.667 -37.667 270 -113s113 -165.333 113 -270s-37.667 -194.667 -113 -270c-75.333 -74 -166.333 -111 -273 -111c-107.333 0 -197.333 36.333 -270 109
s-109 162 -109 268zM706 368c0 81.333 -27 149.332 -81 203.999s-120 82 -198 82c-77.333 0 -143 -27.667 -197 -83s-81 -123 -81 -203c0 -79.333 26.667 -146.666 80 -201.999c52.667 -54 118.667 -81 198 -81s145.333 27 198 81c54 54 81 121.333 81 202z" />
    <glyph glyph-name="omacron" unicode="&#x14d;" horiz-adv-x="645" 
d="M477 636l-307 -1v86h307v-85zM323 -13c-82 0 -149.668 27 -203.001 81c-52.667 54.667 -79 121.667 -79 201s26.333 145.666 79 198.999c52.667 54.667 120.334 82 203.001 82c81.333 0 148.333 -27.333 201 -82c53.333 -55.333 80 -121.666 80 -198.999
c0 -78.667 -26.667 -145.667 -80 -201c-53.333 -54 -120.333 -81 -201 -81zM507.999 269c0 52.667 -18 97.667 -54 135c-36 38 -79.667 57 -131 57s-95 -19 -131 -57c-36 -37.333 -54 -82.333 -54 -135c0 -53.333 18 -99 54 -137s79.667 -57 131 -57s95 19 131 57
s54 83.667 54 137z" />
    <glyph glyph-name="Obreve" unicode="&#x14e;" horiz-adv-x="855" 
d="M431 785c-52 0 -93.834 15.667 -125.501 47s-48.167 73.666 -49.5 126.999h83c0.666992 -31.333 9.16699 -55.833 25.5 -73.5s38.5 -26.5 66.5 -26.5s50.333 8.83301 67 26.5s25.334 42.167 26.001 73.5h83c-0.666992 -53.333 -17 -95.666 -49 -126.999
s-74.333 -47 -127 -47zM44.999 365c0 108 37.333 199.333 112 274c75.333 75.333 165.333 113 270 113s194.667 -37.667 270 -113s113 -165.333 113 -270s-37.667 -194.667 -113 -270c-75.333 -74 -166.333 -111 -273 -111c-107.333 0 -197.333 36.333 -270 109
s-109 162 -109 268zM705.999 368c0 81.333 -27 149.332 -81 203.999s-120 82 -198 82c-77.333 0 -143 -27.667 -197 -83s-81 -123 -81 -203c0 -79.333 26.667 -146.666 80 -201.999c52.667 -54 118.667 -81 198 -81s145.333 27 198 81c54 54 81 121.333 81 202z" />
    <glyph glyph-name="obreve" unicode="&#x14f;" horiz-adv-x="645" 
d="M150 788h82.001c0.666992 -31.333 9.16699 -55.666 25.5 -72.999s38.5 -26 66.5 -26s50.167 8.66699 66.5 26s24.833 41.666 25.5 72.999h83c-1.33301 -53.333 -18 -95.333 -50 -126c-32.667 -31.333 -74.334 -47 -125.001 -47c-51.333 0 -92.833 15.667 -124.5 47
s-48.167 73.333 -49.5 126zM323.001 -13c-82 0 -149.668 27 -203.001 81c-52.667 54.667 -79 121.667 -79 201s26.333 145.666 79 198.999c52.667 54.667 120.334 82 203.001 82c81.333 0 148.333 -27.333 201 -82c53.333 -55.333 80 -121.666 80 -198.999
c0 -78.667 -26.667 -145.667 -80 -201c-53.333 -54 -120.333 -81 -201 -81zM508 269c0 52.667 -18 97.667 -54 135c-36 38 -79.667 57 -131 57s-95 -19 -131 -57c-36 -37.333 -54 -82.333 -54 -135c0 -53.333 18 -99 54 -137s79.667 -57 131 -57s95 19 131 57
s54 83.667 54 137z" />
    <glyph glyph-name="Ohungarumlaut" unicode="&#x150;" horiz-adv-x="855" 
d="M385 795h-82l41 168h118zM562 795h-82l48 168h119zM45 365c0 108 37.333 199.333 112 274c75.333 75.333 165.333 113 270 113s194.667 -37.667 270 -113s113 -165.333 113 -270s-37.667 -194.667 -113 -270c-75.333 -74 -166.333 -111 -273 -111
c-107.333 0 -197.333 36.333 -270 109s-109 162 -109 268zM706 368c0 81.333 -27 149.332 -81 203.999s-120 82 -198 82c-77.333 0 -143 -27.667 -197 -83s-81 -123 -81 -203c0 -79.333 26.667 -146.666 80 -201.999c52.667 -54 118.667 -81 198 -81s145.333 27 198 81
c54 54 81 121.333 81 202z" />
    <glyph glyph-name="ohungarumlaut" unicode="&#x151;" horiz-adv-x="645" 
d="M278 622h-81l41 167h117zM454 622h-81l48 167h118zM323 -13c-82 0 -149.668 27 -203.001 81c-52.667 54.667 -79 121.667 -79 201s26.333 145.666 79 198.999c52.667 54.667 120.334 82 203.001 82c81.333 0 148.333 -27.333 201 -82
c53.333 -55.333 80 -121.666 80 -198.999c0 -78.667 -26.667 -145.667 -80 -201c-53.333 -54 -120.333 -81 -201 -81zM507.999 269c0 52.667 -18 97.667 -54 135c-36 38 -79.667 57 -131 57s-95 -19 -131 -57c-36 -37.333 -54 -82.333 -54 -135c0 -53.333 18 -99 54 -137
s79.667 -57 131 -57s95 19 131 57s54 83.667 54 137z" />
    <glyph glyph-name="OE" unicode="&#x152;" horiz-adv-x="982" 
d="M926 739v-94.999h-360v-221h333v-95h-333v-233h360v-95h-456c-30.667 -1.33301 -47 -2 -49 -2c-126 0 -219.333 33.333 -280 100s-91 156.667 -91 270s29.667 203.666 89 270.999c60 68 151 102 273 102c2 0 18.333 -0.666992 49 -2h465zM154 370.001
c0 -38 4.66699 -73 14 -105s24 -61.167 44 -87.5s47.833 -47 83.5 -62s77.5 -22.5 125.5 -22.5c3.33301 0 18.333 0.666992 45 2v549c-26.667 1.33301 -41.667 2 -45 2c-48 0 -89.833 -7.5 -125.5 -22.5s-63.5 -35.667 -83.5 -62s-34.667 -55.333 -44 -87
s-14 -66.5 -14 -104.5z" />
    <glyph glyph-name="oe" unicode="&#x153;" horiz-adv-x="1074" 
d="M1035 278c0 -6.66699 -1 -23.002 -3 -49.002h-427c8.66699 -47.333 28.667 -84.666 60 -111.999s74 -41 128 -41c32 0 65 5.5 99 16.5s63.333 25.5 88 43.5l41 -73c-28 -21.333 -62.667 -39.166 -104 -53.499s-83.333 -21.5 -126 -21.5
c-108.667 0 -188.334 38 -239.001 114c-26 -36.667 -58.833 -65 -98.5 -85s-83.5 -30 -131.5 -30c-81.333 0 -148.666 27 -201.999 81c-52.667 54.667 -79 121.667 -79 201c0 78.667 26.333 144.667 79 198c52.667 54.667 120 82 202 82c48 0 91.833 -10 131.5 -30
s72.5 -48.333 98.5 -85c24 36.667 55.5 65 94.5 85s82.167 30 129.5 30c76 0 138 -24.333 186 -73c48.667 -48.667 73 -114.667 73 -198zM605 311.998h331.001c-2.66699 46 -18.834 82.833 -48.501 110.5s-66.834 41.5 -111.501 41.5
c-43.333 0 -80.666 -14.167 -111.999 -42.5s-51 -64.833 -59 -109.5zM505.001 268.998c0 52 -17.667 96.667 -53 134s-78.666 56 -129.999 56s-94.666 -18.667 -129.999 -56s-53 -82 -53 -134s17.667 -97.333 53 -136c35.333 -37.333 78.666 -56 129.999 -56
s94.666 18.667 129.999 56c35.333 38.667 53 84 53 136z" />
    <glyph glyph-name="Racute" unicode="&#x154;" horiz-adv-x="641" 
d="M310 961h118l-93 -168h-84zM610 0h-123l-192 300h-102v-300h-100v739h251c74 0 131 -22 171 -66c40.667 -42.667 61 -94 61 -154c0 -50 -15.167 -94.667 -45.5 -134s-72.5 -65 -126.5 -77zM345 644l-151.999 0.000976562v-250h132c48 0 84.833 11.667 110.5 35
s38.5 53.666 38.5 90.999c0 36.667 -11.333 66.5 -34 89.5s-54.334 34.5 -95.001 34.5z" />
    <glyph glyph-name="racute" unicode="&#x155;" horiz-adv-x="397" 
d="M261 623h-83l59 167h117zM170 0h-95.999v536h91v-79c31.333 62 82.666 93 153.999 93c19.333 0 40.333 -2.66699 63 -8l-9 -93c-19.333 6 -38 9 -56 9c-44 0 -79.5 -15 -106.5 -45s-40.5 -73 -40.5 -129v-284z" />
    <glyph glyph-name="Rcommaaccent" unicode="&#x156;" horiz-adv-x="641" 
d="M404 308l206 -308h-123l-192 300h-102v-300h-100v739h251c74 0 131 -22 171 -66c40.667 -42.667 61 -94 61 -154c0 -50 -15.167 -94.667 -45.5 -134s-72.5 -65 -126.5 -77zM345 644l-151.999 0.000976562v-250h132c48 0 84.833 11.667 110.5 35s38.5 53.666 38.5 90.999
c0 36.667 -11.333 66.5 -34 89.5s-54.334 34.5 -95.001 34.5zM335.001 -26.999c20 0 36.666 -7.16797 49.999 -21.501s20 -32.166 20 -53.499c0 -56.667 -41.667 -112 -125 -166l-32 44c42 32 68.333 56.667 79 74h-2c-15.333 0 -28.5 5.83301 -39.5 17.5
s-16.5 25.5 -16.5 41.5c0 17.333 6.33301 32.333 19 45s28.334 19 47.001 19z" />
    <glyph glyph-name="rcommaaccent" unicode="&#x157;" horiz-adv-x="398" 
d="M320 550c19.333 0 40.333 -2.66699 63 -8l-9 -93c-19.333 6 -38 9 -56 9c-44 0 -79.5 -15 -106.5 -45s-40.5 -73 -40.5 -129v-284h-96v536h91v-79c30.667 62 82 93 154 93zM122 -39c19.333 0 35.666 -7.16797 48.999 -21.501s20 -32.166 20 -53.499
c0 -57.333 -41.333 -112.333 -124 -165l-32 44c42 32 68.333 56.667 79 74h-2c-14.667 0 -27.667 5.83301 -39 17.5s-17 25.167 -17 40.5c0 17.333 6.33301 32.333 19 45s28.334 19 47.001 19z" />
    <glyph glyph-name="Rcaron" unicode="&#x158;" horiz-adv-x="641" 
d="M483 958l-140 -164h-69l-140 164h102l72 -90l72 90h103zM610 0h-123l-192 300h-102v-300h-100v739h251c74 0 131 -22 171 -66c40.667 -42.667 61 -94 61 -154c0 -50 -15.167 -94.667 -45.5 -134s-72.5 -65 -126.5 -77zM345 644l-151.999 0.000976562v-250h132
c48 0 84.833 11.667 110.5 35s38.5 53.666 38.5 90.999c0 36.667 -11.333 66.5 -34 89.5s-54.334 34.5 -95.001 34.5z" />
    <glyph glyph-name="rcaron" unicode="&#x159;" horiz-adv-x="397" 
d="M189 623l-140 164h102l72 -90l72 90h103l-140 -164h-69zM171 0h-96v536h91v-79c30.667 62 82 93 154 93c19.333 0 40.333 -2.66699 63 -8l-9 -93c-19.333 6 -38 9 -56 9c-44 0 -79.5 -15 -106.5 -45s-40.5 -73 -40.5 -129v-284z" />
    <glyph glyph-name="Sacute" unicode="&#x15a;" horiz-adv-x="563" 
d="M318 793h-84l59 168h118zM279 -12c-54.667 0 -104.501 13.168 -149.501 39.501s-79.167 63.833 -102.5 112.5l74 61c40 -78.667 99 -118 177 -118c41.333 0 74.333 10.667 99 32s37 48 37 80c0 39.333 -25.667 73.666 -77 102.999
c-9.33301 4.66699 -34.666 16.667 -75.999 36c-34 15.333 -61.667 29.333 -83 42c-74 46.667 -111 105.334 -111 176.001c0 56.667 20.333 104 61 142c40.667 38.667 94.667 58 162 58c92 0 164.333 -36.333 217 -109l-67 -64c-40 52.667 -89.667 79 -149 79
c-34 0 -62 -9.16699 -84 -27.5s-33 -42.5 -33 -72.5c0 -38.667 21 -70.334 63 -95.001c17.333 -10.667 46 -25.334 86 -44.001c42 -20 73 -35.667 93 -47c71.333 -43.333 107 -100.666 107 -171.999c0 -63.333 -23.333 -114.333 -70 -153
c-46.667 -39.333 -104.667 -59 -174 -59z" />
    <glyph glyph-name="sacute" unicode="&#x15b;" horiz-adv-x="453" 
d="M271 623h-83l59 167h117zM224 -12c-41.333 0 -79.833 9.99902 -115.5 29.999s-63.5 48.667 -83.5 86l69 53c14.667 -27.333 34.167 -48.333 58.5 -63s49.166 -22 74.499 -22c28 0 50.833 7.16699 68.5 21.5s26.5 31.833 26.5 52.5c0 28.667 -16.333 51.334 -49 68.001
c-8.66699 4.66699 -31 14.667 -67 30c-33.333 14 -55.333 24 -66 30c-54.667 30 -82 73.333 -82 130c0 43.333 16 79 48 107c31.333 28.667 73.666 43 126.999 43c34.667 0 67.334 -7.33301 98.001 -22s54.667 -35.667 72 -63l-61 -58
c-29.333 41.333 -67.666 62 -114.999 62c-23.333 0 -42 -6.16699 -56 -18.5s-21 -27.833 -21 -46.5c0 -28 15 -49 45 -63l59 -26c32 -12.667 56 -23.667 72 -33c60.667 -30.667 91 -75.667 91 -135c0 -46 -18 -84.667 -54 -116c-36.667 -31.333 -83 -47 -139 -47z" />
    <glyph glyph-name="Scircumflex" unicode="&#x15c;" horiz-adv-x="563" 
d="M224 792h-103l141 165h69l141 -165h-104l-72 91zM279 -12c-54.667 0 -104.501 13.168 -149.501 39.501s-79.167 63.833 -102.5 112.5l74 61c40 -78.667 99 -118 177 -118c41.333 0 74.333 10.667 99 32s37 48 37 80c0 39.333 -25.667 73.666 -77 102.999
c-9.33301 4.66699 -34.666 16.667 -75.999 36c-34 15.333 -61.667 29.333 -83 42c-74 46.667 -111 105.334 -111 176.001c0 56.667 20.333 104 61 142c40.667 38.667 94.667 58 162 58c92 0 164.333 -36.333 217 -109l-67 -64c-40 52.667 -89.667 79 -149 79
c-34 0 -62 -9.16699 -84 -27.5s-33 -42.5 -33 -72.5c0 -38.667 21 -70.334 63 -95.001c17.333 -10.667 46 -25.334 86 -44.001c42 -20 73 -35.667 93 -47c71.333 -43.333 107 -100.666 107 -171.999c0 -63.333 -23.333 -114.333 -70 -153
c-46.667 -39.333 -104.667 -59 -174 -59z" />
    <glyph glyph-name="scircumflex" unicode="&#x15d;" horiz-adv-x="453" 
d="M159 622h-102l140 164h69l140 -164h-103l-72 90zM224 -12c-41.333 0 -79.833 9.99902 -115.5 29.999s-63.5 48.667 -83.5 86l69 53c14.667 -27.333 34.167 -48.333 58.5 -63s49.166 -22 74.499 -22c28 0 50.833 7.16699 68.5 21.5s26.5 31.833 26.5 52.5
c0 28.667 -16.333 51.334 -49 68.001c-8.66699 4.66699 -31 14.667 -67 30c-33.333 14 -55.333 24 -66 30c-54.667 30 -82 73.333 -82 130c0 43.333 16 79 48 107c31.333 28.667 73.666 43 126.999 43c34.667 0 67.334 -7.33301 98.001 -22s54.667 -35.667 72 -63l-61 -58
c-29.333 41.333 -67.666 62 -114.999 62c-23.333 0 -42 -6.16699 -56 -18.5s-21 -27.833 -21 -46.5c0 -28 15 -49 45 -63l59 -26c32 -12.667 56 -23.667 72 -33c60.667 -30.667 91 -75.667 91 -135c0 -46 -18 -84.667 -54 -116c-36.667 -31.333 -83 -47 -139 -47z" />
    <glyph glyph-name="Scedilla" unicode="&#x15e;" horiz-adv-x="563" 
d="M523 200c0 -57.333 -20.001 -105.667 -60.001 -145c-40 -38 -91.333 -60 -154 -66l-15 -37h8c29.333 0 53.833 -8.33301 73.5 -25s29.5 -39 29.5 -67c0 -31.333 -11.5 -57.666 -34.5 -78.999s-54.833 -32 -95.5 -32c-34 0 -72 9.66699 -114 29l25 63
c29.333 -14 56.333 -21 81 -21c18 0 32.167 4.16699 42.5 12.5s15.5 18.833 15.5 31.5c0 24 -17.333 36 -52 36h-56l-9 22l27 69c-45.333 6 -86.333 22 -123 48s-65 59.667 -85 101l74 61c40 -78.667 99 -118 177 -118c41.333 0 74.333 10.667 99 32s37 48 37 80
c0 39.333 -25.667 73.666 -77 102.999c-9.33301 4.66699 -34.666 16.667 -75.999 36c-34 15.333 -61.667 29.333 -83 42c-74 46.667 -111 105.334 -111 176.001c0 56.667 20.333 104 61 142c40.667 38.667 94.667 58 162 58c92 0 164.333 -36.333 217 -109l-67 -64
c-40 52.667 -89.667 79 -149 79c-34 0 -62 -9.16699 -84 -27.5s-33 -42.5 -33 -72.5c0 -38.667 21 -70.334 63 -95.001c17.333 -10.667 46 -25.334 86 -44.001c42 -20 73 -35.667 93 -47c71.333 -43.333 107 -100.666 107 -171.999z" />
    <glyph glyph-name="scedilla" unicode="&#x15f;" horiz-adv-x="453" 
d="M417 151c0 -42 -16.001 -78.6699 -48.001 -110.003c-31.333 -30.667 -72.666 -48 -123.999 -52l-15 -37h8c29.333 0 53.833 -8.33301 73.5 -25s29.5 -39 29.5 -67c0 -31.333 -11.5 -57.666 -34.5 -78.999s-54.833 -32 -95.5 -32c-34 0 -72 9.66699 -114 29l25 63
c29.333 -14 56.333 -21 81 -21c18 0 32.167 4.16699 42.5 12.5s15.5 18.833 15.5 31.5c0 24 -17.333 36 -52 36h-56l-9 22l28 72c-66 12.667 -115 49.334 -147 110.001l69 53c14.667 -27.333 34.167 -48.333 58.5 -63s49.166 -22 74.499 -22c28 0 50.833 7.16699 68.5 21.5
s26.5 31.833 26.5 52.5c0 28.667 -16.333 51.334 -49 68.001c-8.66699 4.66699 -31 14.667 -67 30c-33.333 14 -55.333 24 -66 30c-54.667 30 -82 73.333 -82 130c0 43.333 16 79 48 107c31.333 28.667 73.666 43 126.999 43c34.667 0 67.334 -7.33301 98.001 -22
s54.667 -35.667 72 -63l-61 -58c-29.333 41.333 -67.666 62 -114.999 62c-23.333 0 -42 -6.16699 -56 -18.5s-21 -27.833 -21 -46.5c0 -28 15 -49 45 -63l59 -26c32 -12.667 56 -23.667 72 -33c60.667 -30.667 91 -75.667 91 -135z" />
    <glyph glyph-name="Scaron" unicode="&#x160;" horiz-adv-x="563" 
d="M266 794l-140 164h102l72 -90l72 90h103l-140 -164h-69zM279 -12c-54.667 0 -104.501 13.168 -149.501 39.501s-79.167 63.833 -102.5 112.5l74 61c40 -78.667 99 -118 177 -118c41.333 0 74.333 10.667 99 32s37 48 37 80c0 39.333 -25.667 73.666 -77 102.999
c-9.33301 4.66699 -34.666 16.667 -75.999 36c-34 15.333 -61.667 29.333 -83 42c-74 46.667 -111 105.334 -111 176.001c0 56.667 20.333 104 61 142c40.667 38.667 94.667 58 162 58c92 0 164.333 -36.333 217 -109l-67 -64c-40 52.667 -89.667 79 -149 79
c-34 0 -62 -9.16699 -84 -27.5s-33 -42.5 -33 -72.5c0 -38.667 21 -70.334 63 -95.001c17.333 -10.667 46 -25.334 86 -44.001c42 -20 73 -35.667 93 -47c71.333 -43.333 107 -100.666 107 -171.999c0 -63.333 -23.333 -114.333 -70 -153
c-46.667 -39.333 -104.667 -59 -174 -59z" />
    <glyph glyph-name="scaron" unicode="&#x161;" horiz-adv-x="453" 
d="M198 623l-140 164h102l72 -90l72 90h103l-140 -164h-69zM224 -12c-41.333 0 -79.833 9.99902 -115.5 29.999s-63.5 48.667 -83.5 86l69 53c14.667 -27.333 34.167 -48.333 58.5 -63s49.166 -22 74.499 -22c28 0 50.833 7.16699 68.5 21.5s26.5 31.833 26.5 52.5
c0 28.667 -16.333 51.334 -49 68.001c-8.66699 4.66699 -31 14.667 -67 30c-33.333 14 -55.333 24 -66 30c-54.667 30 -82 73.333 -82 130c0 43.333 16 79 48 107c31.333 28.667 73.666 43 126.999 43c34.667 0 67.334 -7.33301 98.001 -22s54.667 -35.667 72 -63l-61 -58
c-29.333 41.333 -67.666 62 -114.999 62c-23.333 0 -42 -6.16699 -56 -18.5s-21 -27.833 -21 -46.5c0 -28 15 -49 45 -63l59 -26c32 -12.667 56 -23.667 72 -33c60.667 -30.667 91 -75.667 91 -135c0 -46 -18 -84.667 -54 -116c-36.667 -31.333 -83 -47 -139 -47z" />
    <glyph glyph-name="Tcaron" unicode="&#x164;" horiz-adv-x="566" 
d="M249 794l-140 164h102l72 -90l72 90h103l-140 -164h-69zM233 0v642h-219v97h538v-97h-219v-642h-100z" />
    <glyph glyph-name="tcaron" unicode="&#x165;" horiz-adv-x="429" 
d="M367 790h106l-82 -167h-80zM292 75c31.333 0 63.334 10.332 96.001 30.999l36 -74c-38.667 -30 -86.334 -45 -143.001 -45c-56 0 -98.5 17.333 -127.5 52s-43.5 84.334 -43.5 149.001v266h-95v82h96v190h94v-190h190v-82h-190v-273c0 -70.667 29 -106 87 -106z" />
    <glyph glyph-name="Tbar" unicode="&#x166;" horiz-adv-x="595" 
d="M566 739v-97h-219v-210h158v-86h-158v-346h-100v346h-155v86h155v210h-219v97h538z" />
    <glyph glyph-name="tbar" unicode="&#x167;" horiz-adv-x="435" 
d="M394 106l36.001 -74.001c-38.667 -30 -86.334 -45 -143.001 -45c-56 0 -98.5 17.333 -127.5 52s-43.5 84.334 -43.5 149.001v81h-94v81h94v104h-95v82h96v190h94v-190h190v-82h-190v-104h187v-81h-187v-88c0 -70.667 29 -106 87 -106c31.333 0 63.333 10.333 96 31z" />
    <glyph glyph-name="Utilde" unicode="&#x168;" horiz-adv-x="706" 
d="M230 800l-61.999 29c8.66699 30 23.5 53.5 44.5 70.5s45.5 25.5 73.5 25.5c22 0 47.333 -7.33301 76 -22c29.333 -14.667 50.666 -22 63.999 -22c24.667 0 44 15 58 45l60 -28c-8 -30 -22.333 -53.5 -43 -70.5s-45 -25.5 -73 -25.5c-21.333 0 -46.333 7.33301 -75 22
c-29.333 15.333 -50.333 23 -63 23c-24.667 0 -44.667 -15.667 -60 -47zM85.001 249l0.00292969 490h100v-472c0 -58.667 14.667 -103.667 44 -135s70.666 -47 123.999 -47c52.667 0 93.667 16 123 48s44 76.667 44 134v472h101v-490c0 -80.667 -24.667 -144.667 -74 -192
c-48.667 -46.667 -113.334 -70 -194.001 -70s-145.334 23.333 -194.001 70c-49.333 47.333 -74 111.333 -74 192z" />
    <glyph glyph-name="utilde" unicode="&#x169;" horiz-adv-x="595" 
d="M173 625l-62 29c8.66699 30 23.5 53.5 44.5 70.5s45.5 25.5 73.5 25.5c22 0 47.333 -7.33301 76 -22s49.667 -22 63 -22c24.667 0 44 15 58 45l60 -28c-8 -30 -22.333 -53.5 -43 -70.5s-45 -25.5 -73 -25.5c-21.333 0 -46.333 7.33301 -75 22
c-29.333 15.333 -50.333 23 -63 23c-24 0 -43.667 -15.667 -59 -47zM297 -13c-70 0 -125.833 20.667 -167.5 62s-62.5 97 -62.5 167v320h96v-317c0 -44 11.833 -78.833 35.5 -104.5s56.5 -38.5 98.5 -38.5s75 12.833 99 38.5s36 60.5 36 104.5v317h95v-320
c0 -71.333 -20.5 -127.333 -61.5 -168s-97.167 -61 -168.5 -61z" />
    <glyph glyph-name="Umacron" unicode="&#x16a;" horiz-adv-x="706" 
d="M521 812l-339 -1v86h339v-85zM85 249l0.00292969 490h100v-472c0 -58.667 14.667 -103.667 44 -135s70.666 -47 123.999 -47c52.667 0 93.667 16 123 48s44 76.667 44 134v472h101v-490c0 -80.667 -24.667 -144.667 -74 -192c-48.667 -46.667 -113.334 -70 -194.001 -70
s-145.334 23.333 -194.001 70c-49.333 47.333 -74 111.333 -74 192z" />
    <glyph glyph-name="umacron" unicode="&#x16b;" horiz-adv-x="595" 
d="M451 637l-307 -1v86h307v-85zM297 -13c-70 0 -125.833 20.667 -167.5 62s-62.5 97 -62.5 167v320h96v-317c0 -44 11.833 -78.833 35.5 -104.5s56.5 -38.5 98.5 -38.5s75 12.833 99 38.5s36 60.5 36 104.5v317h95v-320c0 -71.333 -20.5 -127.333 -61.5 -168
s-97.167 -61 -168.5 -61z" />
    <glyph glyph-name="Ubreve" unicode="&#x16c;" horiz-adv-x="706" 
d="M353 785c-52 0 -93.834 15.667 -125.501 47s-48.167 73.666 -49.5 126.999h83c0.666992 -31.333 9.16699 -55.833 25.5 -73.5s38.5 -26.5 66.5 -26.5s50.333 8.83301 67 26.5s25.334 42.167 26.001 73.5h83c-0.666992 -53.333 -17 -95.666 -49 -126.999
s-74.333 -47 -127 -47zM84.999 249l0.00292969 490h100v-472c0 -58.667 14.667 -103.667 44 -135s70.666 -47 123.999 -47c52.667 0 93.667 16 123 48s44 76.667 44 134v472h101v-490c0 -80.667 -24.667 -144.667 -74 -192c-48.667 -46.667 -113.334 -70 -194.001 -70
s-145.334 23.333 -194.001 70c-49.333 47.333 -74 111.333 -74 192z" />
    <glyph glyph-name="ubreve" unicode="&#x16d;" horiz-adv-x="595" 
d="M124 788h82.001c0.666992 -31.333 9.16699 -55.666 25.5 -72.999s38.5 -26 66.5 -26s50.167 8.66699 66.5 26s24.833 41.666 25.5 72.999h83c-1.33301 -53.333 -18 -95.333 -50 -126c-32.667 -31.333 -74.334 -47 -125.001 -47c-51.333 0 -92.833 15.667 -124.5 47
s-48.167 73.333 -49.5 126zM297.001 -13c-70 0 -125.833 20.667 -167.5 62s-62.5 97 -62.5 167v320h96v-317c0 -44 11.833 -78.833 35.5 -104.5s56.5 -38.5 98.5 -38.5s75 12.833 99 38.5s36 60.5 36 104.5v317h95v-320c0 -71.333 -20.5 -127.333 -61.5 -168
s-97.167 -61 -168.5 -61z" />
    <glyph glyph-name="Uring" unicode="&#x16e;" horiz-adv-x="706" 
d="M354 781c-33.333 0 -61.333 10.833 -84 32.5s-34 48.5 -34 80.5c0 31.333 11.333 58 34 80s50.667 33 84 33c32.667 0 60 -11 82 -33c22.667 -22 34 -48.667 34 -80c0 -32 -11.167 -58.833 -33.5 -80.5s-49.833 -32.5 -82.5 -32.5zM354 840
c14.667 0 27.167 5.33301 37.5 16s15.5 24 15.5 40c0 14 -5.33301 26.167 -16 36.5s-23 15.5 -37 15.5c-15.333 0 -28.333 -5 -39 -15s-16 -22.333 -16 -37c0 -16 5.33301 -29.333 16 -40s23.667 -16 39 -16zM85 249l0.00292969 490h100v-472
c0 -58.667 14.667 -103.667 44 -135s70.666 -47 123.999 -47c52.667 0 93.667 16 123 48s44 76.667 44 134v472h101v-490c0 -80.667 -24.667 -144.667 -74 -192c-48.667 -46.667 -113.334 -70 -194.001 -70s-145.334 23.333 -194.001 70c-49.333 47.333 -74 111.333 -74 192
z" />
    <glyph glyph-name="uring" unicode="&#x16f;" horiz-adv-x="595" 
d="M380 622c-22.667 -21.333 -50 -32 -82 -32s-59.667 10.667 -83 32c-22.667 22 -34 48.667 -34 80s11.333 58 34 80c23.333 22 51 33 83 33c32.667 0 60 -11 82 -33c22.667 -22 34 -48.667 34 -80s-11.333 -58 -34 -80zM298 649c14.667 0 27.167 5.16699 37.5 15.5
s15.5 23.5 15.5 39.5c0 14 -5.33301 26.167 -16 36.5s-23 15.5 -37 15.5c-15.333 0 -28.333 -5 -39 -15s-16 -22.333 -16 -37c0 -16 5.33301 -29.167 16 -39.5s23.667 -15.5 39 -15.5zM297 -13c-70 0 -125.833 20.667 -167.5 62s-62.5 97 -62.5 167v320h96v-317
c0 -44 11.833 -78.833 35.5 -104.5s56.5 -38.5 98.5 -38.5s75 12.833 99 38.5s36 60.5 36 104.5v317h95v-320c0 -71.333 -20.5 -127.333 -61.5 -168s-97.167 -61 -168.5 -61z" />
    <glyph glyph-name="Uhungarumlaut" unicode="&#x170;" horiz-adv-x="706" 
d="M303 795h-82l41 168h118zM480 795h-82l48 168h119zM85 249l0.00292969 490h100v-472c0 -58.667 14.667 -103.667 44 -135s70.666 -47 123.999 -47c52.667 0 93.667 16 123 48s44 76.667 44 134v472h101v-490c0 -80.667 -24.667 -144.667 -74 -192
c-48.667 -46.667 -113.334 -70 -194.001 -70s-145.334 23.333 -194.001 70c-49.333 47.333 -74 111.333 -74 192z" />
    <glyph glyph-name="uhungarumlaut" unicode="&#x171;" horiz-adv-x="594" 
d="M242 622h-81l41 167h117zM418 622h-81l48 167h118zM297 -13c-70 0 -125.833 20.667 -167.5 62s-62.5 97 -62.5 167v320h96v-317c0 -44 11.833 -78.833 35.5 -104.5s56.5 -38.5 98.5 -38.5s75 12.833 99 38.5s36 60.5 36 104.5v317h95v-320
c0 -71.333 -20.5 -127.333 -61.5 -168s-97.167 -61 -168.5 -61z" />
    <glyph glyph-name="Uogonek" unicode="&#x172;" horiz-adv-x="706" 
d="M520 267v472.001h101v-490c0 -61.333 -14.5 -113.5 -43.5 -156.5s-69.5 -72.833 -121.5 -89.5c-30.667 -14.667 -55.667 -33.334 -75 -56.001s-29 -45 -29 -67c0 -14.667 4.33301 -26.5 13 -35.5s20.334 -13.5 35.001 -13.5c13.333 0 27 4 41 12l37 -68
c-30.667 -19.333 -62.334 -29 -95.001 -29c-35.333 0 -63.666 10.333 -84.999 31s-32 47 -32 79c0 50 25.667 93.667 77 131c-78 2 -140.333 26.333 -187 73c-47.333 47.333 -71 110.333 -71 189v490h100v-472c0 -58.667 14.667 -103.667 44 -135s70.666 -47 123.999 -47
c52.667 0 93.667 16 123 48s44 76.667 44 134z" />
    <glyph glyph-name="uogonek" unicode="&#x173;" horiz-adv-x="595" 
d="M432 219v317.001h95v-320c0 -54 -12 -99.5 -36 -136.5s-58 -63.167 -102 -78.5c-32.667 -14 -59.334 -32.833 -80.001 -56.5s-31 -46.834 -31 -69.501c0 -14.667 4.33301 -26.5 13 -35.5s20.334 -13.5 35.001 -13.5c13.333 0 27 4 41 12l37 -68
c-30.667 -19.333 -62.334 -29 -95.001 -29c-35.333 0 -63.666 10.333 -84.999 31s-32 47 -32 79c0 51.333 28.333 97 85 137c-64 4 -115 26.5 -153 67.5s-57 94.5 -57 160.5v320h96v-317c0 -44 11.833 -78.833 35.5 -104.5s56.5 -38.5 98.5 -38.5s75 12.833 99 38.5
s36 60.5 36 104.5z" />
    <glyph glyph-name="Wcircumflex" unicode="&#x174;" horiz-adv-x="1029" 
d="M444 792h-103l141 165h69l141 -165h-104l-72 91zM321 0h-56l-254 739h106l178 -541l196 541h45l201 -541l175 541h105l-252 -739h-55l-195 552z" />
    <glyph glyph-name="wcircumflex" unicode="&#x175;" horiz-adv-x="840" 
d="M348 622h-102l140 164h69l140 -164h-103l-72 90zM274 1h-79l-184 535h101l127 -402l146 402h67l152 -402l122 402h100l-179 -535h-80l-148 401z" />
    <glyph glyph-name="Ycircumflex" unicode="&#x176;" horiz-adv-x="639" 
d="M246 792h-103l141 165h69l141 -165h-104l-72 91zM511 739h111l-253 -473v-266h-100v266l-250 473h111l189 -374z" />
    <glyph glyph-name="ycircumflex" unicode="&#x177;" horiz-adv-x="555" 
d="M356 619l-72 90l-72 -90h-102l140 164h69l140 -164h-103zM290 134l144.001 401.999h106l-225 -596c-22 -59.333 -47.833 -102.166 -77.5 -128.499s-65.834 -39.5 -108.501 -39.5c-34 0 -62.667 7 -86 21l12 84c24 -10.667 45.667 -16 65 -16c44 0 79.333 31.333 106 94
l20 47l-233 534h111z" />
    <glyph glyph-name="Ydieresis" unicode="&#x178;" horiz-adv-x="639" 
d="M231 806c-18 0 -33.167 6 -45.5 18s-18.5 27 -18.5 45c0 16.667 6.16699 30.834 18.5 42.501s27.5 17.5 45.5 17.5c16.667 0 30.834 -5.83301 42.501 -17.5s17.5 -25.834 17.5 -42.501c0 -18 -5.83301 -33 -17.5 -45s-25.834 -18 -42.501 -18zM410 806
c-18 0 -32.999 6 -44.999 18s-18 27 -18 45c0 16.667 6.16699 30.834 18.5 42.501s27.166 17.5 44.499 17.5s31.833 -5.83301 43.5 -17.5s17.5 -25.834 17.5 -42.501c0 -18 -5.83301 -33 -17.5 -45s-26.167 -18 -43.5 -18zM511.001 739h111l-253 -473v-266h-100v266
l-250 473h111l189 -374z" />
    <glyph glyph-name="Zacute" unicode="&#x179;" horiz-adv-x="618" 
d="M352 793h-84l59 168h118zM584 0h-553v62l402 583h-384v94h524v-63l-398 -582h409v-94z" />
    <glyph glyph-name="zacute" unicode="&#x17a;" horiz-adv-x="508" 
d="M285 623h-83l59 167h117zM465 479l-305 -397h314v-82h-444v61l306 392h-288v82h417v-56z" />
    <glyph glyph-name="Zdotaccent" unicode="&#x17b;" horiz-adv-x="618" 
d="M316 799c-20 0 -36.667 6.5 -50 19.5s-20 29.5 -20 49.5c0 19.333 6.66699 35.333 20 48s30 19 50 19c18.667 0 34.667 -6.5 48 -19.5s20 -28.833 20 -47.5c0 -20 -6.66699 -36.5 -20 -49.5s-29.333 -19.5 -48 -19.5zM584 0h-553v62l402 583h-384v94h524v-63l-398 -582
h409v-94z" />
    <glyph glyph-name="zdotaccent" unicode="&#x17c;" horiz-adv-x="508" 
d="M264 613c-20 0 -36.667 6.5 -50 19.5s-20 29.5 -20 49.5c0 19.333 6.66699 35.333 20 48s30 19 50 19c18.667 0 34.667 -6.5 48 -19.5s20 -28.833 20 -47.5c0 -20 -6.66699 -36.5 -20 -49.5s-29.333 -19.5 -48 -19.5zM465 479l-305 -397h314v-82h-444v61l306 392h-288v82
h417v-56z" />
    <glyph glyph-name="Zcaron" unicode="&#x17d;" horiz-adv-x="618" 
d="M283 795l-140 164h102l72 -90l72 90h103l-140 -164h-69zM584 0h-553v62l402 583h-384v94h524v-63l-398 -582h409v-94z" />
    <glyph glyph-name="zcaron" unicode="&#x17e;" horiz-adv-x="508" 
d="M220 623l-140 164h102l72 -90l72 90h103l-140 -164h-69zM465 479l-305 -397h314v-82h-444v61l306 392h-288v82h417v-56z" />
    <glyph glyph-name="Scommaaccent" unicode="&#x218;" horiz-adv-x="563" 
d="M416 372c71.333 -43.333 106.999 -100.665 106.999 -171.998c0 -63.333 -23.333 -114.333 -70 -153c-46.667 -39.333 -104.667 -59 -174 -59c-54.667 0 -104.5 13.167 -149.5 39.5s-79.167 63.833 -102.5 112.5l74 61c40 -78.667 99 -118 177 -118
c41.333 0 74.333 10.667 99 32s37 48 37 80c0 39.333 -25.667 73.666 -77 102.999c-9.33301 4.66699 -34.666 16.667 -75.999 36c-34 15.333 -61.667 29.333 -83 42c-74 46.667 -111 105.334 -111 176.001c0 56.667 20.333 104 61 142c40.667 38.667 94.667 58 162 58
c92 0 164.333 -36.333 217 -109l-67 -64c-40 52.667 -89.667 79 -149 79c-34 0 -62 -9.16699 -84 -27.5s-33 -42.5 -33 -72.5c0 -38.667 21 -70.334 63 -95.001c17.333 -10.667 46 -25.334 86 -44.001c42 -20 73 -35.667 93 -47zM279.999 -40.999
c20 0 36.666 -7.16797 49.999 -21.501s20 -32.166 20 -53.499c0 -56.667 -41.667 -112 -125 -166l-32 44c42 32 68.333 56.667 79 74h-2c-15.333 0 -28.5 5.83301 -39.5 17.5s-16.5 25.5 -16.5 41.5c0 17.333 6.33301 32.333 19 45s28.334 19 47.001 19z" />
    <glyph glyph-name="scommaaccent" unicode="&#x219;" horiz-adv-x="453" 
d="M326 286c60.667 -30.667 91 -75.668 91 -135.001c0 -46 -18 -84.667 -54 -116c-36.667 -31.333 -83 -47 -139 -47c-41.333 0 -79.833 10 -115.5 30s-63.5 48.667 -83.5 86l69 53c14.667 -27.333 34.167 -48.333 58.5 -63s49.166 -22 74.499 -22
c28 0 50.833 7.16699 68.5 21.5s26.5 31.833 26.5 52.5c0 28.667 -16.333 51.334 -49 68.001c-8.66699 4.66699 -31 14.667 -67 30c-33.333 14 -55.333 24 -66 30c-54.667 30 -82 73.333 -82 130c0 43.333 16 79 48 107c31.333 28.667 73.666 43 126.999 43
c34.667 0 67.334 -7.33301 98.001 -22s54.667 -35.667 72 -63l-61 -58c-29.333 41.333 -67.666 62 -114.999 62c-23.333 0 -42 -6.16699 -56 -18.5s-21 -27.833 -21 -46.5c0 -28 15 -49 45 -63l59 -26c32 -12.667 56 -23.667 72 -33zM230 -48.001
c19.333 0 35.666 -7.16797 48.999 -21.501s20 -32.166 20 -53.499c0 -57.333 -41.333 -112.333 -124 -165l-32 44c42 32 68.333 56.667 79 74h-2c-14.667 0 -27.667 5.83301 -39 17.5s-17 25.167 -17 40.5c0 17.333 6.33301 32.333 19 45s28.334 19 47.001 19z" />
    <glyph glyph-name="uni021A" unicode="&#x21a;" horiz-adv-x="566" 
d="M14 642v97h538v-97h-219v-642h-100v642h-219zM281 -28c20 0 36.666 -7.16797 49.999 -21.501s20 -32.166 20 -53.499c0 -56.667 -41.667 -112 -125 -166l-32 44c42 32 68.333 56.667 79 74h-2c-15.333 0 -28.5 5.83301 -39.5 17.5s-16.5 25.5 -16.5 41.5
c0 17.333 6.33301 32.333 19 45s28.334 19 47.001 19z" />
    <glyph glyph-name="uni021B" unicode="&#x21b;" horiz-adv-x="427" 
d="M388 106l36.001 -74.001c-38.667 -30 -86.334 -45 -143.001 -45c-56 0 -98.5 17.333 -127.5 52s-43.5 84.334 -43.5 149.001v266h-95v82h96v190h94v-190h190v-82h-190v-273c0 -70.667 29 -106 87 -106c31.333 0 63.333 10.333 96 31zM267.001 -54.001
c19.333 0 35.666 -7.16797 48.999 -21.501s20 -32.166 20 -53.499c0 -57.333 -41.333 -112.333 -124 -165l-32 44c42 32 68.333 56.667 79 74h-2c-14.667 0 -27.667 5.83301 -39 17.5s-17 25.167 -17 40.5c0 17.333 6.33301 32.333 19 45s28.334 19 47.001 19z" />
    <glyph glyph-name="uni0237" unicode="&#x237;" horiz-adv-x="269" 
d="M17 -229c-40 0 -71.668 7.33203 -95.001 21.999l19 80c26 -9.33301 47.667 -14 65 -14c61.333 0 92 36.667 92 110v567h96v-561c0 -65.333 -15.667 -115.666 -47 -150.999s-74.666 -53 -129.999 -53z" />
    <glyph glyph-name="circumflex" unicode="&#x2c6;" horiz-adv-x="573" 
d="M140 622h-102l140 164h69l140 -164h-103l-72 90z" />
    <glyph glyph-name="caron" unicode="&#x2c7;" horiz-adv-x="549" 
d="M178 624l-140 164h102l72 -90l72 90h103l-140 -164h-69z" />
    <glyph glyph-name="breve" unicode="&#x2d8;" horiz-adv-x="446" 
d="M40 788h82.001c0.666992 -31.333 9.16699 -55.666 25.5 -72.999s38.5 -26 66.5 -26s50.167 8.66699 66.5 26s24.833 41.666 25.5 72.999h83c-1.33301 -53.333 -18 -95.333 -50 -126c-32.667 -31.333 -74.334 -47 -125.001 -47c-51.333 0 -92.833 15.667 -124.5 47
s-48.167 73.333 -49.5 126z" />
    <glyph glyph-name="dotaccent" unicode="&#x2d9;" horiz-adv-x="300" 
d="M110 615c-20 0 -36.667 6.5 -50 19.5s-20 29.5 -20 49.5c0 19.333 6.66699 35.333 20 48s30 19 50 19c18.667 0 34.667 -6.5 48 -19.5s20 -28.833 20 -47.5c0 -20 -6.66699 -36.5 -20 -49.5s-29.333 -19.5 -48 -19.5z" />
    <glyph glyph-name="ring" unicode="&#x2da;" horiz-adv-x="379" 
d="M239 632c-22.667 -21.333 -50.001 -32 -82.001 -32s-59.667 10.667 -83 32c-22.667 22 -34 48.667 -34 80s11.333 58 34 80s50.334 33 83.001 33s60 -11 82 -33c22.667 -22 34 -48.667 34 -80s-11.333 -58 -34 -80zM156.999 659c14 0 26.333 5.16699 37 15.5
s16 23.5 16 39.5c0 14 -5.33301 26.167 -16 36.5s-23 15.5 -37 15.5c-15.333 0 -28.333 -5 -39 -15s-16 -22.333 -16 -37c0 -16 5.33301 -29.167 16 -39.5s23.667 -15.5 39 -15.5z" />
    <glyph glyph-name="ogonek" unicode="&#x2db;" horiz-adv-x="384" 
d="M215 -163l37 -68c-30.667 -19.333 -62.334 -29 -95.001 -29c-35.333 0 -63.666 10.333 -84.999 31s-32 47 -32 79c0 66.667 46 122.334 138 167.001l59 -17c-32.667 -14 -59.334 -32.833 -80.001 -56.5s-31 -46.834 -31 -69.501c0 -14.667 4.33301 -26.5 13 -35.5
s20.334 -13.5 35.001 -13.5c13.333 0 27 4 41 12z" />
    <glyph glyph-name="tilde" unicode="&#x2dc;" horiz-adv-x="541" 
d="M102 647l-62 29c8.66699 30 23.5 53.5 44.5 70.5s45.5 25.5 73.5 25.5c22 0 47.333 -7.33301 76 -22s49.667 -22 63 -22c24.667 0 44 15 58 45l60 -28c-8 -30 -22.333 -53.5 -43 -70.5s-45 -25.5 -73 -25.5c-21.333 0 -46.333 7.33301 -75 22
c-29.333 15.333 -50.333 23 -63 23c-24 0 -43.667 -15.667 -59 -47z" />
    <glyph glyph-name="hungarumlaut" unicode="&#x2dd;" horiz-adv-x="517" 
d="M131 620h-81l41 167h117zM307 620h-81l48 167h118z" />
    <glyph glyph-name="uni0394" unicode="&#x394;" horiz-adv-x="736" 
d="M712 0h-689v72l306 667h79l304 -667v-72zM367 627l-233 -535h467z" />
    <glyph glyph-name="uni03A9" unicode="&#x3a9;" horiz-adv-x="865" 
d="M377 0l-321 -0.00195312v88h167c-50.667 28.667 -90.667 70.334 -120 125.001c-28.667 54.667 -43 112.667 -43 174c0 100.667 36 186.667 108 258c72.667 71.333 161 107 265 107c103.333 0 191.333 -35.667 264 -107c72 -71.333 108 -157.333 108 -258
c0 -62 -14.333 -120.333 -43 -175c-29.333 -54 -69 -95.333 -119 -124h166v-88h-322v84c63.333 22.667 114.666 61.334 153.999 116.001c39.333 55.333 59 116.333 59 183c0 78 -25.333 142.333 -76 193c-51.333 51.333 -115 77 -191 77
c-77.333 0 -141.666 -25.667 -192.999 -77c-50.667 -50.667 -76 -115 -76 -193c0 -67.333 19.333 -128.333 58 -183c39.333 -54 91 -92.667 155 -116v-84z" />
    <glyph glyph-name="uni03BC" unicode="&#x3bc;" horiz-adv-x="621" 
d="M451 249l0.00195312 285.999h95v-535h-90v79c-16 -28 -38.667 -50 -68 -66s-61.333 -24 -96 -24c-50.667 0 -91.334 17.333 -122.001 52v-259h-96v753h96v-308c0 -49.333 11.333 -86.666 34 -111.999s55 -38 97 -38c45.333 0 81.666 15.167 108.999 45.5
s41 72.5 41 126.5z" />
    <glyph glyph-name="pi" unicode="&#x3c0;" horiz-adv-x="622" 
d="M212 0h-96v452h-87v83h564v-83h-88v-452h-95v452h-198v-452z" />
    <glyph glyph-name="uni0401" unicode="&#x401;" horiz-adv-x="609" 
d="M237 806c-18 0 -33.167 6 -45.5 18s-18.5 27 -18.5 45c0 16.667 6.16699 30.834 18.5 42.501s27.5 17.5 45.5 17.5c16.667 0 30.834 -5.83301 42.501 -17.5s17.5 -25.834 17.5 -42.501c0 -18 -5.83301 -33 -17.5 -45s-25.834 -18 -42.501 -18zM416 806
c-18 0 -32.999 6 -44.999 18s-18 27 -18 45c0 16.667 6.16699 30.834 18.5 42.501s27.166 17.5 44.499 17.5s31.833 -5.83301 43.5 -17.5s17.5 -25.834 17.5 -42.501c0 -18 -5.83301 -33 -17.5 -45s-26.167 -18 -43.5 -18zM553.001 0h-460v739h460v-95h-360v-221h333v-95
h-333v-233h360v-95z" />
    <glyph glyph-name="uni0410" unicode="&#x410;" horiz-adv-x="674" 
d="M661 0h-109l-75 192h-281l-75 -192h-109l299 739h54zM443 286l-106 279l-107 -279h213z" />
    <glyph glyph-name="uni0411" unicode="&#x411;" horiz-adv-x="648" 
d="M192 461h158.001c81.333 0 143.666 -19.333 186.999 -58c50 -44.667 75 -103.667 75 -177c0 -62.667 -22 -116 -66 -160c-42.667 -44 -104.667 -66 -186 -66h-267v739h456v-93h-357v-185zM192.001 94h151c52 0 92.667 12.5 122 37.5s44 57.833 44 98.5
c0 40 -13.667 72.833 -41 98.5s-67 38.5 -119 38.5h-157v-273z" />
    <glyph glyph-name="uni0412" unicode="&#x412;" horiz-adv-x="672" 
d="M488 404c44 -12 78.167 -35.501 102.5 -70.501s36.5 -75.5 36.5 -121.5c0 -58 -20.333 -107.667 -61 -149c-40 -42 -96 -63 -168 -63h-305v739h292c64 0 113.667 -18.667 149 -56c36 -36.667 54 -79.667 54 -129c0 -34 -9 -64.667 -27 -92s-42.333 -46.666 -73 -57.999z
M372 645.999h-179.999v-206h177c35.333 0 63.666 10.5 84.999 31.5s32 46.5 32 76.5c0 27.333 -10.5 50.5 -31.5 69.5s-48.5 28.5 -82.5 28.5zM192.001 93.999h190c44 0 78.333 12.333 103 37c26 24.667 39 54 39 88c0 36.667 -13.167 67.5 -39.5 92.5
s-61.833 37.5 -106.5 37.5h-186v-255z" />
    <glyph glyph-name="uni0413" unicode="&#x413;" horiz-adv-x="543" 
d="M192 0h-99v739h436v-94h-337v-645z" />
    <glyph glyph-name="uni0414" unicode="&#x414;" horiz-adv-x="762" 
d="M410 739l243 -647h78v-242h-98v150h-504v-150h-99v242h79l244 647h57zM381 567l-166 -475h331z" />
    <glyph glyph-name="uni0415" unicode="&#x415;" horiz-adv-x="609" 
d="M553 0h-460v739h460v-95h-360v-221h333v-95h-333v-233h360v-95z" />
    <glyph glyph-name="uni0416" unicode="&#x416;" horiz-adv-x="996" 
d="M975 93l5 -90.001c-22.667 -9.33301 -46.334 -14 -71.001 -14c-51.333 0 -95.666 21.667 -132.999 65c-16 18.667 -49.667 70.334 -101 155.001l-3 5l-13 22c-6.66699 13.333 -15.334 27.333 -26.001 42c-6.66699 10.667 -16.334 20.667 -29.001 30
c-8.66699 8.66699 -21 13 -37 13h-19v-323h-100v323h-19c-14.667 0 -32.334 -8.33301 -53.001 -25c-3.33301 -3.33301 -8.33301 -10 -15 -20s-10.667 -15.667 -12 -17l-26 -45c-51.333 -86.667 -85 -139.334 -101 -158.001c-38.667 -43.333 -83.667 -65.666 -135 -66.999
c-24.667 0 -48.334 4.66699 -71.001 14l5 90c16.667 -6 34.334 -9 53.001 -9c20 0 36.667 5.33301 50 16c14 10.667 31.333 30.667 52 60c18 26 49.667 77.333 95 154c18 23.333 34 40 48 50c-28.667 19.333 -51.667 48 -69 86l-22 52l-19 43
c-20.667 42.667 -38 71.334 -52 86.001c-13.333 15.333 -33.333 23 -60 23c-11.333 0 -25.333 -2 -42 -6l-16 86c20.667 10.667 43.667 16 69 16c50 0 87.333 -14.333 112 -43c26 -28.667 57.333 -84.334 94 -167.001l16 -38l14 -33l14 -22c8 -11.333 16.333 -18.5 25 -21.5
s23.334 -5.83301 44.001 -8.5c4 -0.666992 7 -1 9 -1h12v321h100v-321h12c24 2 40.833 4.83301 50.5 8.5s18.5 11.167 26.5 22.5c0.666992 1.33301 5.33398 9 14.001 23l14 32c2 5.33301 4.16699 10.333 6.5 15l6.5 13.5c2 4.33301 3.33301 7.5 4 9.5
c36.667 81.333 67.667 137 93 167c26 28.667 63.667 43 113 43c24.667 0 47.334 -5.33301 68.001 -16l-15 -86c-19.333 4 -33.333 6 -42 6c-26.667 0 -47 -7.66699 -61 -23c-14 -16 -31 -44.667 -51 -86l-24 -56c-26.667 -64 -53 -107.333 -79 -130
c14 -10.667 27.667 -25.667 41 -45c59.333 -102 100 -166 122 -192c22 -25.333 46.667 -38 74 -38c19.333 0 37.333 3 54 9z" />
    <glyph glyph-name="uni0417" unicode="&#x417;" horiz-adv-x="598" 
d="M271 -12c-88 0 -171.332 25 -249.999 75l43 82c74 -44 144 -66 210 -66c51.333 0 92.666 12.167 123.999 36.5s47 55.833 47 94.5c0 38 -15.167 68.333 -45.5 91s-70.5 34 -120.5 34h-126v89h112c46.667 0 85.167 11.5 115.5 34.5s45.5 52.833 45.5 89.5
c0.666992 33.333 -12.833 60.333 -40.5 81s-62.5 31 -104.5 31c-61.333 0 -125.333 -22.333 -192 -67l-46 74c31.333 26.667 68.833 47.5 112.5 62.5s87.5 22.5 131.5 22.5c72 0 130 -19 174 -57c44 -36.667 66 -83 66 -139c0 -38 -11 -71.333 -33 -100s-53.667 -50 -95 -64
v-4c46 -10 82.167 -31.167 108.5 -63.5s39.5 -71.833 39.5 -118.5c0 -64 -25 -116.667 -75 -158c-50 -40 -117 -60 -201 -60z" />
    <glyph glyph-name="uni0418" unicode="&#x418;" horiz-adv-x="779" 
d="M152 0h-59v739h99v-557l437 557h56v-739h-99v554z" />
    <glyph glyph-name="uni0419" unicode="&#x419;" horiz-adv-x="779" 
d="M397 777c-77.333 0 -143.331 34.333 -197.998 103l53 58c45.333 -54 93.666 -81 144.999 -81c52.667 0 101 27 145 81l55 -58c-56.667 -68.667 -123.334 -103 -200.001 -103zM152.002 0h-59v739h99v-557l437 557h56v-739h-99v554z" />
    <glyph glyph-name="uni041A" unicode="&#x41a;" horiz-adv-x="666" 
d="M678 0h-124l-260 324l-101 -119v-205h-100v739h100v-402l339 402h119l-292 -348z" />
    <glyph glyph-name="uni041B" unicode="&#x41b;" horiz-adv-x="642" 
d="M125 0h-110l279 739h57l276 -739h-109l-197 555z" />
    <glyph glyph-name="uni041C" unicode="&#x41c;" horiz-adv-x="919" 
d="M192 0h-99v739h48l319 -469l317 469h49v-739h-100v499l-254 -373h-26l-254 373v-499z" />
    <glyph glyph-name="uni041D" unicode="&#x41d;" horiz-adv-x="758" 
d="M194 0h-101v739h101v-312h371v312h100v-739h-100v331h-371v-331z" />
    <glyph glyph-name="uni041E" unicode="&#x41e;" horiz-adv-x="855" 
d="M45 365c0 108 37.333 199.333 112 274c75.333 75.333 165.333 113 270 113s194.667 -37.667 270 -113s113 -165.333 113 -270s-37.667 -194.667 -113 -270c-75.333 -74 -166.333 -111 -273 -111c-107.333 0 -197.333 36.333 -270 109s-109 162 -109 268zM706 368
c0 81.333 -27 149.332 -81 203.999s-120 82 -198 82c-77.333 0 -143 -27.667 -197 -83s-81 -123 -81 -203c0 -79.333 26.667 -146.666 80 -201.999c52.667 -54 118.667 -81 198 -81s145.333 27 198 81c54 54 81 121.333 81 202z" />
    <glyph glyph-name="uni041F" unicode="&#x41f;" horiz-adv-x="758" 
d="M194 0h-101v739h572v-739h-100v643h-371v-643z" />
    <glyph glyph-name="uni0420" unicode="&#x420;" horiz-adv-x="608" 
d="M93 739h247c77.333 0 136.666 -22.667 177.999 -68c40.667 -44.667 61 -98 61 -160c0 -63.333 -21.333 -117.333 -64 -162c-43.333 -44 -104.666 -66 -183.999 -66h-138v-283h-100v739zM193 376l140 0.000976562c46 0 81.833 13 107.5 39s38.5 58.667 38.5 98
c0 37.333 -11.833 68.666 -35.5 93.999s-56.167 38 -97.5 38h-153v-269z" />
    <glyph glyph-name="uni0421" unicode="&#x421;" horiz-adv-x="776" 
d="M426 -11c-106.667 0 -196.667 35.332 -270 105.999c-73.333 71.333 -110 162 -110 272c0 112 37.333 204 112 276c74.667 72.667 165 109 271 109c67.333 0 129.333 -15 186 -45c56.667 -28.667 101 -67.667 133 -117l-74 -62c-62.667 84.667 -143.667 127 -243 127
c-78.667 0 -145.334 -27.333 -200.001 -82s-82 -123.667 -82 -207c0 -81.333 26.667 -148.666 80 -201.999c53.333 -52.667 120.333 -79 201 -79c49.333 0 95.333 11 138 33s79.334 52.667 110.001 92l72 -61c-35.333 -49.333 -81.5 -88.333 -138.5 -117
s-118.833 -43 -185.5 -43z" />
    <glyph glyph-name="uni0422" unicode="&#x422;" horiz-adv-x="566" 
d="M233 0v642h-219v97h538v-97h-219v-642h-100z" />
    <glyph glyph-name="uni0423" unicode="&#x423;" horiz-adv-x="602" 
d="M118 -12c-30 0 -55.667 6 -77 18l10 86c20 -8.66699 40 -13 60 -13c35.333 0 66 17.333 92 52c15.333 20.667 26 36.667 32 48c8 12.667 19 32.667 33 60l-241 499h115l178 -392l170 392h110l-79 -176l-173 -377c-31.333 -65.333 -65 -114.5 -101 -147.5
s-79 -49.5 -129 -49.5z" />
    <glyph glyph-name="uni0424" unicode="&#x424;" horiz-adv-x="915" 
d="M872 371c0 -99.333 -34.334 -183.002 -103.001 -251.002c-69.333 -68.667 -156.666 -106.334 -261.999 -113.001v-87h-99v87c-106 6.66699 -193.667 44.334 -263 113.001c-68.667 68.667 -103 152.334 -103 251.001c0 98 34.667 181 104 249
c68 68 155.333 105.667 262 113v86h99v-86c105.333 -7.33301 192.333 -44.666 261 -111.999c69.333 -68 104 -151.333 104 -250zM143.999 370.998c0 -76 24.333 -138.666 73 -187.999c50 -50 113.667 -77.333 191 -82v537c-77.333 -4.66699 -141 -32 -191 -82
c-48.667 -48.667 -73 -110.334 -73 -185.001zM506.999 637.999v-537.001c76.667 4.66699 140 32 190 82c48.667 49.333 73 112 73 188c0 74.667 -24.333 136.334 -73 185.001c-50 50 -113.333 77.333 -190 82z" />
    <glyph glyph-name="uni0425" unicode="&#x425;" horiz-adv-x="627" 
d="M128 0h-120l246 375l-234 364h116l178 -288l180 288h120l-242 -364l244 -375h-116l-186 293z" />
    <glyph glyph-name="uni0426" unicode="&#x426;" horiz-adv-x="712" 
d="M667 -150h-99v150h-475v739h100v-643h303v643h99v-643h72v-246z" />
    <glyph glyph-name="uni0427" unicode="&#x427;" horiz-adv-x="680" 
d="M486 358v381h100v-739h-100v260c-64 -23.333 -122.333 -35 -175 -35c-82.667 0 -146.5 20.5 -191.5 61.5s-67.5 101.167 -67.5 180.5v272h100v-244c0 -62 12.667 -106.667 38 -134c26 -26 66.667 -39 122 -39c54.667 0 112.667 12 174 36z" />
    <glyph glyph-name="uni0428" unicode="&#x428;" horiz-adv-x="1088" 
d="M994 0h-901v739h100v-643h301v643h99v-643h302v643h99v-739z" />
    <glyph glyph-name="uni0429" unicode="&#x429;" horiz-adv-x="1110" 
d="M1066 -150h-99v150h-874v739h100v-643h301v643h99v-643h302v643h99v-643h72v-246z" />
    <glyph glyph-name="uni042A" unicode="&#x42a;" horiz-adv-x="748" 
d="M457 493c75.333 0 137.333 -22.332 186 -66.999c49.333 -44 74 -105.333 74 -184c0 -68.667 -22.333 -126.334 -67 -173.001c-45.333 -46 -111 -69 -197 -69h-256v646h-181v93h280v-278c54 21.333 107.667 32 161 32zM296 94.001l139.999 -0.000976562
c58.667 0 102.834 13.333 132.501 40s44.5 64.334 44.5 113.001c0 49.333 -14.333 86.833 -43 112.5s-69 38.5 -121 38.5c-52.667 0 -103.667 -12 -153 -36v-268z" />
    <glyph glyph-name="uni042B" unicode="&#x42b;" horiz-adv-x="907" 
d="M194 473h158c50 0 93.5 -8 130.5 -24s64.5 -37.667 82.5 -65c32.667 -47.333 49 -98 49 -152c0 -65.333 -22 -120.333 -66 -165c-42.667 -44.667 -105 -67 -187 -67h-266v739h99v-266zM714 0v739h100v-739h-100zM194 94h151c52.667 0 93.5 13 122.5 39
s43.5 60.667 43.5 104c0 42 -13.667 76.167 -41 102.5s-67 39.5 -119 39.5h-157v-285z" />
    <glyph glyph-name="uni042C" unicode="&#x42c;" horiz-adv-x="644" 
d="M353 493c74.667 0 136.333 -22.332 185 -66.999c49.333 -44 74 -105.333 74 -184c0 -68.667 -22.333 -126.334 -67 -173.001c-44.667 -46 -110 -69 -196 -69h-256v739h99v-278c54 21.333 107.667 32 161 32zM191.999 94.001l139.999 -0.000976562
c58.667 0 102.834 13.333 132.501 40s44.5 64.334 44.5 113.001c0 49.333 -14.333 86.833 -43 112.5s-69 38.5 -121 38.5c-52.667 0 -103.667 -12 -153 -36v-268z" />
    <glyph glyph-name="uni042D" unicode="&#x42d;" horiz-adv-x="781" 
d="M352 752c106 0 196.333 -36.333 271 -109c74.667 -72 112 -164 112 -276c0 -110 -37 -200.667 -111 -272c-72.667 -70.667 -162.334 -106 -269.001 -106c-66.667 0 -128.5 14.333 -185.5 43s-103.167 67.667 -138.5 117l72 61c30.667 -39.333 67.334 -70 110.001 -92
s88.667 -33 138 -33c72.667 0 134.667 22 186 66c52.667 44.667 83.334 102 92.001 172h-435v95h434c-10.667 70 -42.334 127 -95.001 171c-52 44 -113 66 -183 66c-99.333 0 -180.333 -42.333 -243 -127l-74 62c32 49.333 76.333 88.333 133 117
c57.333 30 119.333 45 186 45z" />
    <glyph glyph-name="uni042E" unicode="&#x42e;" horiz-adv-x="1107" 
d="M679 752c104.667 0 194.667 -37.6689 270 -113.002s113 -165.333 113 -270s-37.667 -194.667 -113 -270c-75.333 -74 -166.333 -111 -273 -111c-100 0 -185.333 31.333 -256 94c-69.333 62.667 -109.666 142.334 -120.999 239.001h-106v-321h-100v739h100v-322h107
c13.333 96.667 55.666 176.334 126.999 239.001c72 64 156 96 252 96zM958 367.998c0 81.333 -27 149.332 -81 203.999s-120 82 -198 82c-77.333 0 -143 -27.667 -197 -83s-81 -123 -81 -203c0 -79.333 26.667 -146.666 80 -201.999c52.667 -54 118.667 -81 198 -81
s145.333 27 198 81c54 54 81 121.333 81 202z" />
    <glyph glyph-name="uni042F" unicode="&#x42f;" horiz-adv-x="647" 
d="M312 739l240.999 -0.000976562v-739h-99v284c-38.667 -7.33301 -82 -11 -130 -11l-165 -273h-122l181 286c-51.333 14.667 -90.5 41.834 -117.5 81.501s-40.5 85.5 -40.5 137.5c0 65.333 21.333 120.333 64 165c42.667 46 105.334 69 188.001 69zM329.999 366.999
c53.333 0 94.667 3.33301 124 10v267h-131c-53.333 0 -93.5 -12.333 -120.5 -37s-40.5 -58 -40.5 -100c0 -93.333 56 -140 168 -140z" />
    <glyph glyph-name="uni0430" unicode="&#x430;" horiz-adv-x="665" 
d="M498 458v77.999h92v-536h-92v76c-48 -59.333 -111 -89 -189 -89c-77.333 0 -141.333 27.333 -192 82s-76 122.334 -76 203.001s25.333 146.667 76 198c50.667 52.667 114.667 79 192 79c76 0 139 -30.333 189 -91zM504 268.999c0 54 -17 99.333 -51 136
c-34 37.333 -78.333 56 -133 56s-98.667 -18.667 -132 -56s-50 -83 -50 -137s16.667 -99.667 50 -137s77.333 -56 132 -56s99 18.667 133 56c34 36.667 51 82.667 51 138z" />
    <glyph glyph-name="uni0431" unicode="&#x431;" horiz-adv-x="669" 
d="M363 526c69.333 0 130.332 -24.333 182.999 -73c54 -48 81 -112.333 81 -193c0 -77.333 -26 -142.333 -78 -195c-51.333 -52 -118.666 -78 -201.999 -78c-96.667 0 -170.667 36 -222 108c-50.667 71.333 -76 162.666 -76 273.999c0 95.333 19.833 172.666 59.5 231.999
s98.5 98 176.5 116l62 12l63 12c44 12 87.667 35.667 131 71l38 -87c-12.667 -12.667 -27 -25 -43 -37c-10.667 -7.33301 -26.334 -14.666 -47.001 -21.999l-29 -9l-30 -7l-37 -8l-40 -9c-28.667 -6.66699 -49 -12 -61 -16c-12.667 -3.33301 -29.667 -11 -51 -23
c-28 -15.333 -49.333 -38.166 -64 -68.499s-25.667 -74.833 -33 -133.5c20 42 49.833 74.833 89.5 98.5s82.834 35.5 129.501 35.5zM348.999 75c51.333 0 94.333 18.002 129 54.002c34.667 35.333 52 78.666 52 129.999c0 50 -17.333 92.333 -52 127
c-34 35.333 -75.667 53 -125 53c-48 0 -90.333 -16.667 -127 -50c-36 -32.667 -54 -75 -54 -127c0 -50.667 16.333 -94.334 49 -131.001c33.333 -37.333 76 -56 128 -56z" />
    <glyph glyph-name="uni0432" unicode="&#x432;" horiz-adv-x="622" 
d="M446 413c40.667 -10.667 73.166 -33.502 97.499 -68.502s36.5 -77.167 36.5 -126.5c0 -67.333 -23 -122.666 -69 -165.999c-45.333 -43.333 -107 -65 -185 -65c-86 0 -151.333 26.667 -196 80s-67 131 -67 233v177c0 88.667 23 160 69 214c46 54.667 109.667 82 191 82
c69.333 0 124 -18.667 164 -56s60 -88.333 60 -153c0 -31.333 -9.33301 -61.666 -28 -90.999c-19.333 -29.333 -43.666 -49.333 -72.999 -60zM322.999 684.998c-46.667 0 -85.999 -18.334 -117.999 -55.001c-31.333 -37.333 -47 -96.666 -47 -177.999v-9h167
c41.333 0 72.666 11.5 93.999 34.5s32 51.833 32 86.5c0 38 -11 67.667 -33 89s-53.667 32 -95 32zM328 74.9971c46.667 0 84.168 13.668 112.501 41.001s42.5 62.666 42.5 105.999c0 40 -12.333 72.5 -37 97.5s-60.334 37.5 -107.001 37.5h-181v-56
c0 -93.333 20.333 -156 61 -188c34 -25.333 70.333 -38 109 -38z" />
    <glyph glyph-name="uni0433" unicode="&#x433;" horiz-adv-x="495" 
d="M238 -13c-62 0 -111.502 12.666 -148.502 37.999s-55.5 61.333 -55.5 108c0 32.667 10 61.334 30 86.001s45.667 43.667 77 57l53 21.5l55 22.5c14 6 28.667 13.333 44 22s26.666 18 33.999 28s11 20.667 11 32c0 18.667 -8.16699 33.667 -24.5 45s-39.833 17 -70.5 17
c-46.667 0 -100.667 -10.333 -162 -31l-22 80c60.667 24 124 36 190 36c56.667 0 103.667 -11.667 141 -35c38 -22.667 57 -57 57 -103c0 -60 -36 -105 -108 -135l-44 -17l-46 -17.5c-11.333 -4.33301 -24.666 -10.333 -39.999 -18s-27.166 -15 -35.499 -22
s-15.666 -15.667 -21.999 -26s-9.5 -21.5 -9.5 -33.5c0 -46 35 -69 105 -69c64 0 126.667 15.667 188 47l27 -79c-73.333 -36 -148 -54 -224 -54z" />
    <glyph glyph-name="uni0434" unicode="&#x434;" horiz-adv-x="666" 
d="M498 466v70h95v-479c0 -93.333 -25.333 -164.333 -76 -213s-123.667 -73 -219 -73c-66.667 0 -136.667 13 -210 39l21 82c66 -22 128 -33 186 -33c135.333 0 203 60 203 180v44c-48 -56 -110.667 -84 -188 -84s-141.333 26.333 -192 79c-51.333 53.333 -77 119 -77 197
s26.333 143 79 195c52.667 52.667 117.667 79 195 79c74 0 135 -27.667 183 -83zM190 139c35.333 -36 79 -54 131 -54c52.667 0 96.334 18 131.001 54c34.667 35.333 52 80.333 52 135s-17.333 99.334 -52 134.001c-35.333 36 -79 54 -131 54
c-52.667 0 -96.334 -18 -131.001 -54c-34.667 -34.667 -52 -79.334 -52 -134.001s17.333 -99.667 52 -135z" />
    <glyph glyph-name="uni0435" unicode="&#x435;" 
d="M572 278c0 -6.66699 -0.999023 -23.002 -2.99902 -49.002h-427c8.66699 -47.333 28.667 -84.666 60 -111.999s74 -41 128 -41c32 0 65 5.5 99 16.5s63.333 25.5 88 43.5l41 -73c-28 -21.333 -62.667 -39.166 -104 -53.499s-83.333 -21.5 -126 -21.5
c-48.667 0 -91.834 8 -129.501 24s-67.5 37.667 -89.5 65s-38.667 57.333 -50 90s-17 67 -17 103c0 80 25 146.667 75 200c50.667 52.667 116 79 196 79c76 0 138 -24.333 186 -73c48.667 -48.667 73 -114.667 73 -198zM142.001 311.998h331.001
c-2.66699 46 -18.834 82.833 -48.501 110.5s-66.834 41.5 -111.501 41.5c-43.333 0 -80.666 -14.167 -111.999 -42.5s-51 -64.833 -59 -109.5z" />
    <glyph glyph-name="uni0436" unicode="&#x436;" horiz-adv-x="836" 
d="M815 75l5.00391 -72.9951c-22 -7.33301 -43 -11 -63 -11c-18.667 2 -32 3.5 -40 4.5s-17.333 3.66699 -28 8s-20.334 10.5 -29.001 18.5l-23 20c-5.33301 5.33301 -12.666 15 -21.999 29l-20 29l-22 36c-26 40.667 -44.333 65 -55 73c-12.667 9.33301 -25.667 14 -39 14
h-17v-225h-89v225h-16c-16.667 0 -31 -5.66699 -43 -17s-27 -31.333 -45 -60l-6 -10c-33.333 -52 -58 -86 -74 -102c-28.667 -28.667 -65.667 -43 -111 -43c-19.333 0 -40 3.66699 -62 11l4 73c14.667 -4 30.334 -6 47.001 -6c20.667 0 39 9.33301 55 28
c4.66699 5.33301 16.667 21.666 36 48.999l58 83c11.333 15.333 23 26.666 35 33.999c-20 11.333 -37 29.666 -51 54.999l-14 25l-2 6c-0.666992 2 -1.33398 3.66699 -2.00098 5l-1 2c0 1.33301 -1.66699 6 -5 14l-5 12c-12.667 29.333 -23 49.333 -31 60
c-10.667 16.667 -28.667 25 -54 25c-6 0 -18 -1.66699 -36 -5l-14 72c20 7.33301 40.333 11 61 11c43.333 0 75.666 -9.66699 96.999 -29s42 -53.333 62 -102c0.666992 -1.33301 2.5 -5.5 5.5 -12.5s5.66699 -13.5 8 -19.5s3.5 -10 3.5 -12l7.5 -15.5
c4.33301 -9 7.16602 -14.167 8.49902 -15.5c0.666992 -0.666992 3.66699 -3.83398 9 -9.50098s9.33301 -9.16699 12 -10.5c2.66699 -0.666992 7 -1.83398 13 -3.50098s12.333 -3.16699 19 -4.5s13.667 -2 21 -2h10v227h89v-227h10c28 0 49.333 6.33301 64 19
c9.33301 11.333 15.333 20 18 26l8 16l18 44c18.667 48 39 82 61 102c22.667 19.333 55.334 29 98.001 29c21.333 0 41.333 -3.66699 60 -11l-13 -72c-18.667 3.33301 -30.667 5 -36 5c-24 0 -42.333 -8.33301 -55 -25c-7.33301 -10.667 -12.333 -19 -15 -25l-15 -35
c-2.66699 -11.333 -7.33398 -22.333 -14.001 -33c-0.666992 -0.666992 -3.16699 -5.5 -7.5 -14.5s-7.5 -14.833 -9.5 -17.5c-14 -24.667 -30.667 -42.667 -50 -54c13.333 -8 25.333 -19.333 36 -34l29 -43c34 -52 57.667 -85 71 -99c13.333 -12 29.666 -18 48.999 -18
c15.333 0 30.666 2 45.999 6z" />
    <glyph glyph-name="uni0437" unicode="&#x437;" horiz-adv-x="545" 
d="M251 -227c-84.667 0 -163.665 26.001 -236.998 78.001l40 77c62.667 -45.333 125.667 -68 189 -68c50 0 90.333 12.833 121 38.5s46 59.5 46 101.5c0 39.333 -13.833 70.333 -41.5 93s-64.167 34 -109.5 34h-121v87h82c53.333 0 95.333 12.167 126 36.5
s46 55.833 46 94.5c0 35.333 -13.167 63.666 -39.5 84.999s-59.833 32 -100.5 32c-58 0 -116.667 -23.667 -176 -71l-51 67c29.333 26.667 65.166 48.5 107.499 65.5s84.833 25.5 127.5 25.5c65.333 0 119.666 -19 162.999 -57c43.333 -37.333 65 -83.666 65 -138.999
c0 -38 -11 -72.167 -33 -102.5s-52.667 -52.833 -92 -67.5v-4c43.333 -8.66699 78.333 -30.667 105 -66c26.667 -34.667 40 -75.334 40 -122.001c0 -62.667 -23.667 -114.667 -71 -156s-109.333 -62 -186 -62z" />
    <glyph glyph-name="uni0438" unicode="&#x438;" horiz-adv-x="633" 
d="M463 536l94.999 0.000976562v-536h-91v77c-16 -26.667 -41.333 -48.334 -76 -65.001s-73 -25 -115 -25c-60 0 -109.667 17.667 -149 53c-39.333 36 -59 94 -59 174v322h96v-318c0 -94.667 42.667 -142 128 -142c52.667 0 94.334 15.833 125.001 47.5s46 75.5 46 131.5
v281z" />
    <glyph glyph-name="uni0439" unicode="&#x439;" horiz-adv-x="633" 
d="M317 574c-70 0 -129.334 31 -178.001 93l48 52c40.667 -48.667 84 -73 130 -73c48.667 0 92.334 24.333 131.001 73l49 -52c-51.333 -62 -111.333 -93 -180 -93zM462.999 536l94.999 0.000976562v-536h-91v77c-16 -26.667 -41.333 -48.334 -76 -65.001s-73 -25 -115 -25
c-60 0 -109.667 17.667 -149 53c-39.333 36 -59 94 -59 174v322h96v-318c0 -94.667 42.667 -142 128 -142c52.667 0 94.334 15.833 125.001 47.5s46 75.5 46 131.5v281z" />
    <glyph glyph-name="uni043A" unicode="&#x43a;" horiz-adv-x="545" 
d="M549 0h-126l-202 250l-51 -46v-204h-96v757h96v-438l240 217h130l-251 -225z" />
    <glyph glyph-name="uni043B" unicode="&#x43b;" horiz-adv-x="567" 
d="M116 0h-105l244 536h59l242 -536h-105l-166 391z" />
    <glyph glyph-name="uni043C" unicode="&#x43c;" horiz-adv-x="770" 
d="M169 0h-95v536h57l255 -334l252 334h57v-536h-94v346l-202 -266h-28l-202 266v-346z" />
    <glyph glyph-name="uni043D" unicode="&#x43d;" 
d="M441 313v223h95v-536h-95v230h-271v-230h-96v536h96v-223h271z" />
    <glyph glyph-name="uni043E" unicode="&#x43e;" horiz-adv-x="645" 
d="M323 -13c-82 0 -149.668 27 -203.001 81c-52.667 54.667 -79 121.667 -79 201s26.333 145.666 79 198.999c52.667 54.667 120.334 82 203.001 82c81.333 0 148.333 -27.333 201 -82c53.333 -55.333 80 -121.666 80 -198.999c0 -78.667 -26.667 -145.667 -80 -201
c-53.333 -54 -120.333 -81 -201 -81zM507.999 269c0 52.667 -18 97.667 -54 135c-36 38 -79.667 57 -131 57s-95 -19 -131 -57c-36 -37.333 -54 -82.333 -54 -135c0 -53.333 18 -99 54 -137s79.667 -57 131 -57s95 19 131 57s54 83.667 54 137z" />
    <glyph glyph-name="uni043F" unicode="&#x43f;" horiz-adv-x="618" 
d="M170 0h-96v536h94v-76c34 60 90.667 90 170 90c60 0 110.333 -19.333 151 -58s61 -94.334 61 -167.001v-325h-95v298c0 51.333 -12.5 91.333 -37.5 120s-58.167 43 -99.5 43c-43.333 0 -79 -15.333 -107 -46c-27.333 -31.333 -41 -70.666 -41 -117.999v-297z" />
    <glyph glyph-name="uni0440" unicode="&#x440;" horiz-adv-x="670" 
d="M361 549c76.667 0 140.333 -27.334 191 -82.001c51.333 -55.333 77 -121.666 77 -198.999c0 -78 -25.667 -144.667 -77 -200c-50.667 -54 -114.667 -81 -192 -81c-78 0 -141.333 30.333 -190 91v-299h-96v757h96v-81c50 62.667 113.667 94 191 94zM532.999 268.999
c0 54 -17 99.332 -51 135.999c-34 37.333 -78.333 56 -133 56s-99 -18.667 -133 -56c-33.333 -37.333 -50 -82.666 -50 -135.999c0 -54.667 16.667 -100.667 50 -138c34 -37.333 78.333 -56 133 -56s99 18.667 133 56c34 36.667 51 82.667 51 138z" />
    <glyph glyph-name="uni0441" unicode="&#x441;" horiz-adv-x="599" 
d="M324 -12c-83.333 0 -151.331 26.334 -203.998 79.001s-79 119.667 -79 201s26.667 148.666 80 201.999c53.333 52.667 122.666 79 207.999 79c52.667 0 101.167 -12.667 145.5 -38s76.833 -59.333 97.5 -102l-79 -46c-18 30.667 -41.5 54.667 -70.5 72
s-60.167 26 -93.5 26c-54.667 0 -100.334 -18.333 -137.001 -55c-36 -37.333 -54 -83.333 -54 -138c0 -54 17.667 -99.667 53 -137c34.667 -36.667 79 -55 133 -55c33.333 0 65.5 9 96.5 27s54.167 41 69.5 69l80 -46c-22.667 -42 -56 -75.333 -100 -100
c-45.333 -25.333 -94 -38 -146 -38z" />
    <glyph glyph-name="uni0442" unicode="&#x442;" horiz-adv-x="974" 
d="M693 550c64.667 0 116.667 -21 156 -63c38.667 -40.667 58 -96.667 58 -168v-319h-96v304c0 50 -11.5 88.667 -34.5 116s-54.5 41 -94.5 41c-42 0 -76.333 -14.667 -103 -44s-40 -67.666 -40 -114.999v-302h-95v302c0 50 -11.667 89 -35 117s-55 42 -95 42
c-42 0 -76.5 -14.833 -103.5 -44.5s-40.5 -68.5 -40.5 -116.5v-300h-96v536h94v-79c16 30 38.167 53.167 66.5 69.5s60.166 24.166 95.499 23.499c36.667 0 70.334 -8.83301 101.001 -26.5s53 -42.167 67 -73.5c18 30.667 44.5 55 79.5 73s73.5 27 115.5 27z" />
    <glyph glyph-name="uni0443" unicode="&#x443;" horiz-adv-x="555" 
d="M289 134l144.002 401.999h106l-225 -596c-22 -59.333 -47.833 -102.166 -77.5 -128.499s-65.834 -39.5 -108.501 -39.5c-34.667 0 -63.334 7 -86.001 21l12 84c24 -10.667 45.667 -16 65 -16c44 0 79.333 31.333 106 94l20 47l-233 534h111z" />
    <glyph glyph-name="uni0444" unicode="&#x444;" horiz-adv-x="821" 
d="M780 267c0 -83.333 -29.999 -150.333 -89.999 -201c-60 -50 -138.667 -76 -236 -78v-212h-87v212c-99.333 2 -178.333 28.333 -237 79c-59.333 51.333 -89 118.333 -89 201c0 84.667 30.333 152.334 91 203.001c61.333 51.333 139.666 77.333 234.999 78v208h87v-208
c96 -2 174.333 -28.333 235 -79s91 -118.334 91 -203.001zM454.001 466v-397c72 1.33301 129.167 19.833 171.5 55.5s63.5 84.167 63.5 145.5c0 60 -21 107.333 -63 142s-99.333 52.667 -172 54zM131.001 269c0 -61.333 21.333 -109.667 64 -145s100 -53.666 172 -54.999
v397c-72.667 -1.33301 -130.167 -19.333 -172.5 -54s-63.5 -82.334 -63.5 -143.001z" />
    <glyph glyph-name="uni0445" unicode="&#x445;" horiz-adv-x="509" 
d="M311 271l184 -271h-111l-130 201l-130 -201h-116l189 278l-170 258h111l119 -188l121 188h113z" />
    <glyph glyph-name="uni0446" unicode="&#x446;" horiz-adv-x="677" 
d="M558 536l0.000976562 -408c0 -43.333 37.333 -65 112 -65v-243h-88v173c-28.667 0 -53.834 9 -75.501 27s-33.5 39.333 -35.5 64c-14 -27.333 -39.333 -50.333 -76 -69s-76.334 -28 -119.001 -28c-60 0 -109.667 17.667 -149 53c-39.333 36 -59 94 -59 174v322h96v-318
c0 -94.667 42.667 -142 128 -142c52.667 0 94.334 15.833 125.001 47.5s46 75.5 46 131.5v281h95z" />
    <glyph glyph-name="uni0447" unicode="&#x447;" horiz-adv-x="560" 
d="M390 268l0.000976562 268h96v-536h-96v181c-51.333 -13.333 -97.333 -20 -138 -20c-140.667 0 -211 67.667 -211 203v172h95v-165c0 -43.333 10.167 -74.5 30.5 -93.5s51.166 -28.5 92.499 -28.5c49.333 0 93 6.33301 131 19z" />
    <glyph glyph-name="uni0448" unicode="&#x448;" horiz-adv-x="965" 
d="M795 254v282.001h96v-536h-90v77c-14.667 -26 -38.334 -47.5 -71.001 -64.5s-67 -25.5 -103 -25.5c-37.333 0 -70.5 8.5 -99.5 25.5s-50.167 41.833 -63.5 74.5c-16 -32.667 -41 -57.5 -75 -74.5s-72.333 -25.5 -115 -25.5c-26.667 0 -51.5 3.83301 -74.5 11.5
s-44.667 20 -65 37s-36.5 40.667 -48.5 71s-18 66.166 -18 107.499v322h96v-309c0 -100.667 40.667 -151 122 -151c45.333 0 81 15.667 107 47s39 75 39 131v282h95v-318c0 -46 10.5 -81.167 31.5 -105.5s50.833 -36.5 89.5 -36.5c44.667 0 80.334 16.333 107.001 49
s40 75.667 40 129z" />
    <glyph glyph-name="uni0449" unicode="&#x449;" horiz-adv-x="1010" 
d="M891 536v-408c0 -43.333 36.333 -65 109 -65v-243h-87v173c-28.667 0 -53.5 8.83301 -74.5 26.5s-32.833 39.167 -35.5 64.5c-14 -28.667 -37.5 -52 -70.5 -70s-69.5 -27 -109.5 -27c-38 0 -71 8.33301 -99 25s-48 41.334 -60 74.001c-16 -32 -41.167 -56.5 -75.5 -73.5
s-72.166 -25.5 -113.499 -25.5c-26.667 0 -51.667 3.83301 -75 11.5s-45.333 20 -66 37s-36.834 40.667 -48.501 71s-17.5 66.166 -17.5 107.499v322h96v-309c0 -100.667 40.667 -151 122 -151c45.333 0 81 15.667 107 47s39 75 39 131v282h95v-318
c0 -46 10.5 -81.167 31.5 -105.5s50.5 -36.5 88.5 -36.5c45.333 0 81.333 16.333 108 49s40 75.667 40 129v282h96z" />
    <glyph glyph-name="uni044A" unicode="&#x44a;" horiz-adv-x="643" 
d="M384 431c65.333 0 119 -21.334 161 -64.001c42 -42 63 -95 63 -159c0 -61.333 -20 -113.666 -60 -156.999c-38.667 -42.667 -96.667 -64 -174 -64c-70.667 0 -125 19.667 -163 59c-42 48 -62.333 111 -61 189v214h-140v87h235v-145c40.667 26.667 87 40 139 40z
M376 73.999c42.667 0 76 12.5 100 37.5s36 57.833 36 98.5s-12 73.167 -36 97.5s-58 36.5 -102 36.5c-49.333 0 -92.333 -14.333 -129 -43v-69c0 -105.333 43.667 -158 131 -158z" />
    <glyph glyph-name="uni044B" unicode="&#x44b;" horiz-adv-x="757" 
d="M169 355h131c82.667 0 140 -20.333 172 -61c28.667 -33.333 43 -72 43 -116c0 -48.667 -17.667 -90.667 -53 -126c-34.667 -34.667 -87 -52 -157 -52h-231v536h95v-181zM587 0v536h95v-536h-95zM169 82l125 0.000976562c84 0 126 32.667 126 98
c0 27.333 -10 49.666 -30 66.999s-49.667 26 -89 26h-132v-191z" />
    <glyph glyph-name="uni044C" unicode="&#x44c;" horiz-adv-x="560" 
d="M301 431c66 0 120 -21.334 162 -64.001c42 -42 63 -95 63 -159c0 -61.333 -20 -113.666 -60 -156.999c-38.667 -42.667 -96.667 -64 -174 -64c-70.667 0 -125 19.667 -163 59c-44 50 -64.667 113 -62 189v301h96v-144c40.667 26 86.667 39 138 39zM293 73.999
c43.333 0 77 12.5 101 37.5s36 57.833 36 98.5s-12 73.167 -36 97.5s-58 36.5 -102 36.5c-49.333 0 -92.333 -14 -129 -42v-70c0 -105.333 43.333 -158 130 -158z" />
    <glyph glyph-name="uni044D" unicode="&#x44d;" horiz-adv-x="603" 
d="M280 549c82 0 149.332 -26.332 201.999 -78.999c53.333 -53.333 80 -120.666 80 -201.999s-26.333 -148.333 -79 -201c-52 -52.667 -118.333 -79 -199 -79c-55.333 0 -105.333 12.667 -150 38s-78 58.666 -100 99.999l78 46c16 -28 39.667 -51 71 -69
s64.666 -27 99.999 -27c44 0 82.667 14.167 116 42.5s54.333 64.5 63 108.5h-231v84h231c-9.33301 44.667 -30.833 81 -64.5 109s-73.5 42 -119.5 42c-35.333 0 -67.666 -8.83301 -96.999 -26.5s-53.333 -41.834 -72 -72.501l-78 46c22 44 55.333 78.333 100 103
s94.334 37 149.001 37z" />
    <glyph glyph-name="uni044E" unicode="&#x44e;" horiz-adv-x="844" 
d="M522 550c81.333 0 148.335 -27.335 201.002 -82.002c53.333 -55.333 80 -121.666 80 -198.999c0 -78.667 -26.667 -145.667 -80 -201c-52.667 -54 -119.667 -81 -201 -81c-74.667 0 -137.334 22.333 -188.001 67s-81 101.334 -91 170.001h-73v-224h-96v757h96v-451h72
c9.33301 70 39.333 128 90 174c51.333 46.667 114.666 70 189.999 70zM707.002 268.998c0 52.667 -18 97.667 -54 135c-36 38 -79.667 57 -131 57s-95 -19 -131 -57c-36 -37.333 -54 -82.333 -54 -135c0 -53.333 18 -99 54 -137s79.667 -57 131 -57s95 19 131 57
s54 83.667 54 137z" />
    <glyph glyph-name="uni044F" unicode="&#x44f;" horiz-adv-x="554" 
d="M268 536l210.999 0.000976562v-536h-95v203c-26 -4.66699 -63.333 -7 -112 -7l-131 -196h-110l145 206c-39.333 12 -69.666 32.167 -90.999 60.5s-32 61.166 -32 98.499c0 50 18.667 91 56 123s90.333 48 159 48zM274.999 276.001c47.333 0 83.667 2.33301 109 7v171
h-115c-80.667 0 -121 -29.333 -121 -88c0 -60 42.333 -90 127 -90z" />
    <glyph glyph-name="uni0451" unicode="&#x451;" 
d="M220 592c-20 0 -36.667 6.5 -50 19.5s-20 29.833 -20 50.5c0 18.667 6.66699 34.334 20 47.001s30 19 50 19c18.667 0 34.5 -6.33301 47.5 -19s19.5 -28.334 19.5 -47.001c0 -20 -6.5 -36.667 -19.5 -50s-28.833 -20 -47.5 -20zM418 592
c-20 0 -36.499 6.66699 -49.499 20s-19.5 30 -19.5 50c0 18.667 6.66699 34.334 20 47.001s29.666 19 48.999 19s35.5 -6.33301 48.5 -19s19.5 -28.334 19.5 -47.001c0 -20 -6.5 -36.667 -19.5 -50s-29.167 -20 -48.5 -20zM572.001 278
c0 -6.66699 -0.999023 -23.002 -2.99902 -49.002h-427c8.66699 -47.333 28.667 -84.666 60 -111.999s74 -41 128 -41c32 0 65 5.5 99 16.5s63.333 25.5 88 43.5l41 -73c-28 -21.333 -62.667 -39.166 -104 -53.499s-83.333 -21.5 -126 -21.5c-48.667 0 -91.834 8 -129.501 24
s-67.5 37.667 -89.5 65s-38.667 57.333 -50 90s-17 67 -17 103c0 80 25 146.667 75 200c50.667 52.667 116 79 196 79c76 0 138 -24.333 186 -73c48.667 -48.667 73 -114.667 73 -198zM142.002 311.998h331.001c-2.66699 46 -18.834 82.833 -48.501 110.5
s-66.834 41.5 -111.501 41.5c-43.333 0 -80.666 -14.167 -111.999 -42.5s-51 -64.833 -59 -109.5z" />
    <glyph glyph-name="Wgrave" unicode="&#x1e80;" horiz-adv-x="1029" 
d="M502 962l60 -168h-84l-94 168h118zM321 0h-56l-254 739h106l178 -541l196 541h45l201 -541l175 541h105l-252 -739h-55l-195 552z" />
    <glyph glyph-name="wgrave" unicode="&#x1e81;" horiz-adv-x="840" 
d="M413 789l59 -167h-83l-93 167h117zM274 1h-79l-184 535h101l127 -402l146 402h67l152 -402l122 402h100l-179 -535h-80l-148 401z" />
    <glyph glyph-name="Wacute" unicode="&#x1e82;" horiz-adv-x="1029" 
d="M563 793h-84l59 168h118zM321 0h-56l-254 739h106l178 -541l196 541h45l201 -541l175 541h105l-252 -739h-55l-195 552z" />
    <glyph glyph-name="wacute" unicode="&#x1e83;" horiz-adv-x="840" 
d="M466 623h-83l59 167h117zM274 1h-79l-184 535h101l127 -402l146 402h67l152 -402l122 402h100l-179 -535h-80l-148 401z" />
    <glyph glyph-name="Wdieresis" unicode="&#x1e84;" horiz-adv-x="1029" 
d="M427 806c-18 0 -33.167 6 -45.5 18s-18.5 27 -18.5 45c0 16.667 6.16699 30.834 18.5 42.501s27.5 17.5 45.5 17.5c16.667 0 30.834 -5.83301 42.501 -17.5s17.5 -25.834 17.5 -42.501c0 -18 -5.83301 -33 -17.5 -45s-25.834 -18 -42.501 -18zM606 806
c-18 0 -32.999 6 -44.999 18s-18 27 -18 45c0 16.667 6.16699 30.834 18.5 42.501s27.166 17.5 44.499 17.5s31.833 -5.83301 43.5 -17.5s17.5 -25.834 17.5 -42.501c0 -18 -5.83301 -33 -17.5 -45s-26.167 -18 -43.5 -18zM321.001 0h-56l-254 739h106l178 -541l196 541h45
l201 -541l175 541h105l-252 -739h-55l-195 552z" />
    <glyph glyph-name="wdieresis" unicode="&#x1e85;" horiz-adv-x="840" 
d="M321 616c-20 0 -36.667 6.5 -50 19.5s-20 29.833 -20 50.5c0 18.667 6.66699 34.334 20 47.001s30 19 50 19c18.667 0 34.5 -6.33301 47.5 -19s19.5 -28.334 19.5 -47.001c0 -20 -6.5 -36.667 -19.5 -50s-28.833 -20 -47.5 -20zM450 686
c0 18.667 6.66699 34.334 20 47.001s29.666 19 48.999 19s35.5 -6.33301 48.5 -19s19.5 -28.334 19.5 -47.001c0 -20 -6.5 -36.667 -19.5 -50s-29.167 -20 -48.5 -20s-35.666 6.66699 -48.999 20s-20 30 -20 50zM274 1h-79l-184 535h101l127 -402l146 402h67l152 -402
l122 402h100l-179 -535h-80l-148 401z" />
    <glyph glyph-name="Ygrave" unicode="&#x1ef2;" horiz-adv-x="639" 
d="M312 962l60 -168h-84l-94 168h118zM511 739h111l-253 -473v-266h-100v266l-250 473h111l189 -374z" />
    <glyph glyph-name="ygrave" unicode="&#x1ef3;" horiz-adv-x="555" 
d="M279 790l59 -167h-83l-93 167h117zM290 134l144.001 401.999h106l-225 -596c-22 -59.333 -47.833 -102.166 -77.5 -128.499s-65.834 -39.5 -108.501 -39.5c-34 0 -62.667 7 -86 21l12 84c24 -10.667 45.667 -16 65 -16c44 0 79.333 31.333 106 94l20 47l-233 534h111z
" />
    <glyph glyph-name="uni2009" unicode="&#x2009;" horiz-adv-x="78" 
 />
    <glyph glyph-name="endash" unicode="&#x2013;" horiz-adv-x="716" 
d="M650 232h-584v90h584v-90z" />
    <glyph glyph-name="emdash" unicode="&#x2014;" horiz-adv-x="1035" 
d="M969 232h-903v90h903v-90z" />
    <glyph glyph-name="quoteleft" unicode="&#x2018;" horiz-adv-x="236" 
d="M118 643h4c15.333 0 28.333 -5.66699 39 -17s16 -25 16 -41c0 -17.333 -6.33301 -32 -19 -44s-28 -18 -46 -18c-19.333 0 -35.666 7.16699 -48.999 21.5s-20 31.833 -20 52.5c0 57.333 41.333 112.333 124 165l30 -43c-40 -32 -64.667 -54.333 -74 -67
c-2.66699 -4 -4.33398 -7 -5.00098 -9z" />
    <glyph glyph-name="quoteright" unicode="&#x2019;" horiz-adv-x="234" 
d="M130 759c20 0 36.5 -6.99902 49.5 -20.999s19.5 -31.667 19.5 -53c0 -56.667 -41.333 -111.334 -124 -164.001l-30 43c42.667 31.333 69 56.333 79 75h-4c-15.333 0 -28.333 5.66699 -39 17s-16 25 -16 41c0 17.333 6.33301 32 19 44s28 18 46 18z" />
    <glyph glyph-name="quotesinglbase" unicode="&#x201a;" horiz-adv-x="242" 
d="M119 108c20 0 36.5 -6.99902 49.5 -20.999s19.5 -31.667 19.5 -53c0 -56.667 -41.333 -111.334 -124 -164.001l-30 43c42.667 31.333 69 56.333 79 75h-4c-15.333 0 -28.333 5.66699 -39 17s-16 25 -16 41c0 17.333 6.33301 32 19 44s28 18 46 18z" />
    <glyph glyph-name="quotedblleft" unicode="&#x201c;" horiz-adv-x="476" 
d="M171 762l30 -43c-40 -32 -64.667 -54.333 -74 -67c-2.66699 -4 -4.33398 -7 -5.00098 -9h4c15.333 0 28.333 -5.66699 39 -17s16 -25 16 -41c0 -17.333 -6.33301 -32 -19 -44s-28 -18 -46 -18c-19.333 0 -35.666 7.16699 -48.999 21.5s-20 31.833 -20 52.5
c0 57.333 41.333 112.333 124 165zM358 643h4c15.333 0 28.333 -5.66699 39 -17s16 -25 16 -41c0 -17.333 -6.33301 -32 -19 -44s-28 -18 -46 -18c-19.333 0 -35.666 7.16699 -48.999 21.5s-20 31.833 -20 52.5c0 57.333 41.333 112.333 124 165l30 -43
c-40 -32 -64.667 -54.333 -74 -67c-2.66699 -4 -4.33398 -7 -5.00098 -9z" />
    <glyph glyph-name="quotedblright" unicode="&#x201d;" horiz-adv-x="466" 
d="M127 763c19.333 0 35.666 -7.16699 48.999 -21.5s20 -31.833 20 -52.5c0 -57.333 -41.333 -112.333 -124 -165l-30 43c40 32 64.667 54.333 74 67c2.66699 4 4.33398 7 5.00098 9h-4c-15.333 0 -28.333 5.66699 -39 17s-16 25 -16 41c0 17.333 6.33301 32 19 44
s28 18 46 18zM361 763c19.333 0 35.666 -7.16699 48.999 -21.5s20 -31.833 20 -52.5c0 -57.333 -41.333 -112.333 -124 -165l-30 43c40 32 64.667 54.333 74 67c2.66699 4 4.33398 7 5.00098 9h-4c-15.333 0 -28.333 5.66699 -39 17s-16 25 -16 41
c0 17.333 6.33301 32 19 44s28 18 46 18z" />
    <glyph glyph-name="quotedblbase" unicode="&#x201e;" horiz-adv-x="471" 
d="M115 107c19.333 0 35.666 -7.16699 48.999 -21.5s20 -31.833 20 -52.5c0 -57.333 -41.333 -112.333 -124 -165l-30 43c40 32 64.667 54.333 74 67c2.66699 4 4.33398 7 5.00098 9h-4c-15.333 0 -28.333 5.66699 -39 17s-16 25 -16 41c0 17.333 6.33301 32 19 44
s28 18 46 18zM349 107c19.333 0 35.666 -7.16699 48.999 -21.5s20 -31.833 20 -52.5c0 -57.333 -41.333 -112.333 -124 -165l-30 43c40 32 64.667 54.333 74 67c2.66699 4 4.33398 7 5.00098 9h-4c-15.333 0 -28.333 5.66699 -39 17s-16 25 -16 41
c0 17.333 6.33301 32 19 44s28 18 46 18z" />
    <glyph glyph-name="dagger" unicode="&#x2020;" horiz-adv-x="481" 
d="M285 511h160v-83h-160v-606h-89v606h-160v83h160v338h89v-338z" />
    <glyph glyph-name="daggerdbl" unicode="&#x2021;" horiz-adv-x="481" 
d="M445 553v-83h-160v-270h160v-83h-160v-295h-89v295h-160v83h160v270h-160v83h160v296h89v-296h160z" />
    <glyph glyph-name="bullet" unicode="&#x2022;" horiz-adv-x="419" 
d="M209 207c-36.667 0 -68.334 13.001 -95.001 39.001c-26 27.333 -39 59 -39 95c0 37.333 13 69 39 95c26.667 26.667 58.334 40 95.001 40c37.333 0 69 -13.333 95 -40c26.667 -26 40 -57.667 40 -95c0 -36.667 -13.333 -68.334 -40 -95.001c-26 -26 -57.667 -39 -95 -39z
" />
    <glyph glyph-name="ellipsis" unicode="&#x2026;" horiz-adv-x="698" 
d="M51 49c0 17.333 6.16699 32 18.5 44s27.5 18 45.5 18s33.167 -6 45.5 -18s18.5 -26.667 18.5 -44c0 -18.667 -6.16699 -34.167 -18.5 -46.5s-27.5 -18.5 -45.5 -18.5s-33.167 6.16699 -45.5 18.5s-18.5 27.833 -18.5 46.5zM284 49c0 17.333 6.16699 32 18.5 44
s27.5 18 45.5 18s33.167 -6 45.5 -18s18.5 -26.667 18.5 -44c0 -18.667 -6.16699 -34.167 -18.5 -46.5s-27.5 -18.5 -45.5 -18.5s-33.167 6.16699 -45.5 18.5s-18.5 27.833 -18.5 46.5zM518 49c0 17.333 6.16699 32 18.5 44s27.5 18 45.5 18s33.167 -6 45.5 -18
s18.5 -26.667 18.5 -44c0 -18.667 -6.16699 -34.167 -18.5 -46.5s-27.5 -18.5 -45.5 -18.5s-33.167 6.16699 -45.5 18.5s-18.5 27.833 -18.5 46.5z" />
    <glyph glyph-name="perthousand" unicode="&#x2030;" horiz-adv-x="1295" 
d="M354 441c-37.333 -35.333 -81.334 -53 -132.001 -53c-51.333 0 -95.666 17.667 -132.999 53c-36.667 36 -55 79 -55 129c0 50.667 18.333 93.334 55 128.001c36.667 36 81 54 133 54c50.667 0 94.667 -18 132 -54c36.667 -34.667 55 -77.334 55 -128.001
c0 -50 -18.333 -93 -55 -129zM214.999 0h-100l544 739h101zM221.999 678c-31.333 0 -57.333 -10.333 -78 -31s-31 -46.334 -31 -77.001s10.5 -56.5 31.5 -77.5s46.833 -31.5 77.5 -31.5s56.5 10.5 77.5 31.5s31.5 46.833 31.5 77.5s-10.5 56.334 -31.5 77.001
s-46.833 31 -77.5 31zM469.999 168c0 50 18.3311 92.999 54.998 128.999s81 54 133 54s96.333 -18 133 -54c37.333 -36 56 -79 56 -129c0 -49.333 -18.667 -91.666 -56 -126.999s-81.666 -53 -132.999 -53s-95.666 17.667 -132.999 53c-36.667 34.667 -55 77 -55 127z
M893.997 167.999c0 50.667 18.3311 93.332 54.998 127.999c36.667 36 81 54 133 54s96.333 -18 133 -54c37.333 -35.333 56 -78 56 -128c0 -49.333 -18.667 -91.666 -56 -126.999s-81.666 -53 -132.999 -53s-95.666 17.667 -132.999 53c-36.667 34.667 -55 77 -55 127z
M657.995 60.9971c31.333 0 57.5 10.167 78.5 30.5s31.5 45.833 31.5 76.5c0 31.333 -10.5 57.666 -31.5 78.999s-47.167 32 -78.5 32c-30.667 0 -56.5 -10.667 -77.5 -32s-31.5 -47.666 -31.5 -78.999c0 -30 10.667 -55.333 32 -76s47 -31 77 -31zM1082 59.9971
c31.333 0 57.5 10.332 78.5 30.999s31.5 46.334 31.5 77.001c0 31.333 -10.5 57.666 -31.5 78.999s-47.167 32 -78.5 32c-30.667 0 -56.5 -10.667 -77.5 -32s-31.5 -47.666 -31.5 -78.999c0 -30 10.667 -55.5 32 -76.5s47 -31.5 77 -31.5z" />
    <glyph glyph-name="guilsinglleft" unicode="&#x2039;" horiz-adv-x="331" 
d="M278 88h-95l-142 203l142 203h95l-143 -203z" />
    <glyph glyph-name="guilsinglright" unicode="&#x203a;" horiz-adv-x="331" 
d="M290 291l-142 -203h-95l143 203l-143 203h95z" />
    <glyph glyph-name="fraction" unicode="&#x2044;" horiz-adv-x="191" 
d="M-148 0h-86l578 739h84z" />
    <glyph glyph-name="uni2070" unicode="&#x2070;" horiz-adv-x="372" 
d="M307 560c-27.333 -39.333 -67.667 -58.998 -121 -58.998c-54 0 -94.667 19.667 -122 59c-26.667 39.333 -40 88 -40 146s13.333 106.667 40 146c26.667 40 67.334 60 122.001 60c53.333 0 93.666 -20 120.999 -60c27.333 -40.667 41 -89.334 41 -146.001
s-13.667 -105.334 -41 -146.001zM273.999 706.002c0 41.333 -7.5 74.5 -22.5 99.5s-36.833 37.5 -65.5 37.5s-50.5 -12.5 -65.5 -37.5s-22.5 -58.167 -22.5 -99.5c0 -42 7.33301 -75.333 22 -100s36.667 -37 66 -37s51.333 12.333 66 37s22 58 22 100z" />
    <glyph glyph-name="uni2074" unicode="&#x2074;" horiz-adv-x="366" 
d="M284 662h44v-57h-44v-98h-63v98h-185l-15 41l214 257h49v-241zM221 799l-115 -137h115v137z" />
    <glyph glyph-name="uni2075" unicode="&#x2075;" horiz-adv-x="347" 
d="M176 763c39.333 0 71.667 -12.1689 97 -36.502s38 -55.166 38 -92.499c0 -38.667 -14 -70.667 -42 -96c-27.333 -25.333 -62.666 -38 -105.999 -38c-48 0 -92.667 15.667 -134 47l30 54c33.333 -25.333 66.666 -38 99.999 -38c24 0 43.833 6.83301 59.5 20.5
s23.5 30.834 23.5 51.501c0 20 -7.16699 36.667 -21.5 50s-32.833 20 -55.5 20c-27.333 0 -51 -10 -71 -30l-40 29l24 199h207v-60h-157l-12 -92c18 8 38 12 60 12z" />
    <glyph glyph-name="uni2076" unicode="&#x2076;" horiz-adv-x="348" 
d="M190 763c38 0 69.5 -12.168 94.5 -36.501s37.5 -55.166 37.5 -92.499c0 -38.667 -13.5 -70.667 -40.5 -96s-61.5 -38 -103.5 -38c-49.333 0 -87.666 18 -114.999 54c-26.667 36.667 -40 82.667 -40 138c0 61.333 15 113.333 45 156c30.667 42.667 75 64 133 64
c42 0 78.667 -11.333 110 -34l-29 -51c-23.333 16.667 -49 25 -77 25c-36 0 -64 -14.333 -84 -43c-20.667 -28.667 -31.334 -60.667 -32.001 -96c21.333 33.333 55 50 101 50zM179 705.999c-22 0 -40.332 -6.83301 -54.999 -20.5s-22 -31.167 -22 -52.5
c-1.33301 -20.667 6 -38.167 22 -52.5s34 -21.333 54 -21s38 7.5 54 21.5c14.667 16 22.167 33.667 22.5 53s-6.83398 36.5 -21.501 51.5s-32.667 21.833 -54 20.5z" />
    <glyph glyph-name="uni2077" unicode="&#x2077;" horiz-adv-x="288" 
d="M14 838v61h262v-46l-156 -346h-74l151 331h-183z" />
    <glyph glyph-name="uni2078" unicode="&#x2078;" horiz-adv-x="383" 
d="M41 615c0 22 7.33105 42.335 21.998 61.002s34.334 32.667 59.001 42v1c-42.667 18.667 -64 47.667 -64 87c0 30.667 12.333 56 37 76s56.667 30 96 30s71.5 -10 96.5 -30s37.5 -45.333 37.5 -76c0 -38.667 -21.667 -67.667 -65 -87v-2
c25.333 -8.66699 45.333 -22.334 60 -41.001s22 -39 22 -61c0 -32.667 -14 -59.834 -42 -81.501s-64.333 -32.5 -109 -32.5c-45.333 0 -81.666 10.5 -108.999 31.5s-41 48.5 -41 82.5zM256.998 799.002c0 16 -6.16797 29.333 -18.501 40s-28.166 16 -47.499 16
s-35.333 -5.33301 -48 -16s-19 -24 -19 -40s6.16699 -29.167 18.5 -39.5s28.5 -15.5 48.5 -15.5s36 5.16699 48 15.5s18 23.5 18 39.5zM270.997 624.002c0 18 -7.33301 33 -22 45s-34 18 -58 18s-43.333 -6 -58 -18s-22 -27 -22 -45c0 -18.667 7.5 -34.167 22.5 -46.5
s34.167 -18.5 57.5 -18.5s42.5 6.16699 57.5 18.5s22.5 27.833 22.5 46.5z" />
    <glyph glyph-name="uni2079" unicode="&#x2079;" horiz-adv-x="375" 
d="M181 912c49.333 0 86.998 -17.332 112.998 -51.999s39 -82 39 -142c0 -62 -14.667 -113.667 -44 -155s-72.333 -62 -129 -62c-46 0 -83 11 -111 33l26 52c24.667 -16.667 51.667 -25 81 -25c34.667 0 61.834 12.833 81.501 38.5s30.167 59.5 31.5 101.5
c-24 -34.667 -57.667 -52 -101 -52c-38 0 -69.333 12.167 -94 36.5s-37 54.833 -37 91.5c0 39.333 13.333 71.666 40 96.999s61.334 38 104.001 38zM178.998 706.001c21.333 0 39.332 6.83105 53.999 20.498s22 30.834 22 51.501c0 21.333 -7.16699 39.166 -21.5 53.499
s-32.166 21.5 -53.499 21.5c-22 0 -40.167 -7.16699 -54.5 -21.5s-21.5 -32.166 -21.5 -53.499s7 -38.666 21 -51.999s32 -20 54 -20z" />
    <glyph glyph-name="uni2080" unicode="&#x2080;" horiz-adv-x="372" 
d="M307 -101c-27.333 -40 -67.666 -60 -120.999 -60c-54.667 0 -95.334 20 -122.001 60c-26.667 38.667 -40 87 -40 145s13.333 106.667 40 146c26.667 40 67.334 60 122.001 60c53.333 0 93.666 -20 120.999 -60c27.333 -40.667 41 -89.334 41 -146.001
c0 -57.333 -13.667 -105.666 -41 -144.999zM274 44c0 41.333 -7.5 74.5 -22.5 99.5s-36.833 37.5 -65.5 37.5s-50.5 -12.5 -65.5 -37.5s-22.5 -58.167 -22.5 -99.5c0 -42 7.33301 -75.333 22 -100s36.667 -37 66 -37s51.333 12.333 66 37s22 58 22 100z" />
    <glyph glyph-name="uni2081" unicode="&#x2081;" horiz-adv-x="265" 
d="M18 131l132 106h54v-392h-72v293l-76 -61z" />
    <glyph glyph-name="uni2082" unicode="&#x2082;" horiz-adv-x="344" 
d="M244 16l-101 -105.999h159v-65h-262v58l130 132c37.333 39.333 56 70.333 56 93c0 16.667 -5.83301 30.167 -17.5 40.5s-26.5 15.5 -44.5 15.5c-30.667 0 -62 -15 -94 -45l-37 53c39.333 38.667 84.333 58 135 58c38 0 69.167 -11.167 93.5 -33.5s36.5 -51.5 36.5 -87.5
c0 -36.667 -18 -74.334 -54 -113.001z" />
    <glyph glyph-name="uni2083" unicode="&#x2083;" horiz-adv-x="331" 
d="M147 -161c-46 0 -89.3301 12.998 -129.997 38.998l30 56c37.333 -21.333 70 -32 98 -32c23.333 0 41.5 5.16699 54.5 15.5s19.5 24.5 19.5 42.5c0 17.333 -6.83301 31.333 -20.5 42s-31.834 16 -54.501 16h-51v61h48c20 0 36.667 5 50 15s20 23 20 39
s-6.16699 28.833 -18.5 38.5s-27.5 14.5 -45.5 14.5c-26.667 0 -55 -11 -85 -33l-35 50c33.333 31.333 75.666 47 126.999 47c37.333 0 68.166 -10 92.499 -30s36.5 -45 36.5 -75c0 -21.333 -6.5 -40.166 -19.5 -56.499s-30.167 -27.833 -51.5 -34.5v-2
c25.333 -5.33301 45 -16.666 59 -33.999s21 -38.333 21 -63c0 -34 -13.5 -61.833 -40.5 -83.5s-61.833 -32.5 -104.5 -32.5z" />
    <glyph glyph-name="uni2084" unicode="&#x2084;" horiz-adv-x="366" 
d="M284 0h44v-57h-44v-98h-63v98h-185l-15 41l214 257h49v-241zM221 137l-115 -137h115v137z" />
    <glyph glyph-name="uni2085" unicode="&#x2085;" horiz-adv-x="347" 
d="M176 101c39.333 0 71.667 -12.1689 97 -36.502s38 -55.166 38 -92.499c0 -38.667 -14 -70.667 -42 -96c-27.333 -25.333 -62.666 -38 -105.999 -38c-48 0 -92.667 15.667 -134 47l30 54c33.333 -25.333 66.666 -38 99.999 -38c24 0 43.833 6.83301 59.5 20.5
s23.5 30.834 23.5 51.501c0 20 -7.16699 36.667 -21.5 50s-32.833 20 -55.5 20c-27.333 0 -51 -10 -71 -30l-40 29l24 199h207v-60h-157l-12 -92c18 8 38 12 60 12z" />
    <glyph glyph-name="uni2086" unicode="&#x2086;" horiz-adv-x="348" 
d="M190 101c38 0 69.501 -12.168 94.501 -36.501s37.5 -55.166 37.5 -92.499c0 -38.667 -13.5 -70.667 -40.5 -96s-61.5 -38 -103.5 -38c-50 0 -88.333 18.333 -115 55c-26.667 35.333 -40 81 -40 137c0 61.333 15 113.333 45 156c30.667 42.667 75 64 133 64
c42 0 78.667 -11.333 110 -34l-29 -51c-23.333 16.667 -49 25 -77 25c-36 0 -64 -14.333 -84 -43c-20.667 -28.667 -31.334 -60.667 -32.001 -96c21.333 33.333 55 50 101 50zM179.001 43.999c-22 0 -40.332 -6.83301 -54.999 -20.5s-22 -31.167 -22 -52.5
c-1.33301 -20 6 -37.167 22 -51.5s34 -21.333 54 -21s38 7.5 54 21.5c14.667 15.333 22.167 32.5 22.5 51.5s-6.83398 36.167 -21.501 51.5s-32.667 22.333 -54 21z" />
    <glyph glyph-name="uni2087" unicode="&#x2087;" horiz-adv-x="288" 
d="M14 176v61h262v-46l-156 -346h-74l151 331h-183z" />
    </font>
</defs>
</svg>
