<svg width="20" height="20" viewBox="0 0 20 20" fill="none" xmlns="http://www.w3.org/2000/svg">
<path fill-rule="evenodd" clip-rule="evenodd" d="M10 20C15.5228 20 20 15.5228 20 10C20 4.47715 15.5228 0 10 0C4.47715 0 0 4.47715 0 10C0 15.5228 4.47715 20 10 20ZM13.3323 10.9435L14.7278 12.339C15.0767 12.6879 15.0767 13.286 14.7278 13.6847L13.7809 14.6316C12.7841 15.6285 10.1425 14.532 7.80002 12.1895C5.45753 9.84697 4.41088 7.20544 5.35785 6.20863L6.30481 5.26166C6.6537 4.91278 7.25178 4.91278 7.6505 5.26166L9.04603 6.65719C9.54444 7.15559 9.34507 8.00288 8.69715 8.20224C8.24859 8.35174 7.94954 8.85015 8.09907 9.29873C8.34827 10.3454 9.69396 11.6412 10.6908 11.8904C11.1393 11.9901 11.6377 11.7409 11.7873 11.2923C11.9866 10.6444 12.8339 10.4451 13.3323 10.9435Z" fill="#65BBE9"/>
</svg>
